<svg width="196" height="67" viewBox="0 0 196 67" fill="none" xmlns="http://www.w3.org/2000/svg">
<g filter="url(#filter0_d_0_1)">
<rect x="15.5034" y="13.6853" width="167.503" height="38.6852" rx="8.77396" fill="white"/>
<rect x="15.7028" y="13.8847" width="167.104" height="38.2864" rx="8.57456" stroke="url(#paint0_linear_0_1)" stroke-width="0.398817"/>
</g>
<path d="M63.0578 27.2502H62.1278V21.8981L60.0834 27.2502H59.2499L57.2143 21.8981V27.2502H56.2843V21.0032H57.811L59.671 25.8025L61.5311 21.0032H63.0578V27.2502ZM66.0562 27.338C64.6173 27.338 63.8189 26.4255 63.8189 24.9866C63.8189 23.5476 64.6173 22.6351 66.0562 22.6351C67.4952 22.6351 68.2936 23.5476 68.2936 24.9866C68.2936 26.4255 67.4952 27.338 66.0562 27.338ZM66.0562 26.6273C66.8898 26.6273 67.3636 26.0833 67.3636 24.9866C67.3636 23.8986 66.8898 23.3458 66.0562 23.3458C65.2227 23.3458 64.7489 23.8986 64.7489 24.9866C64.7489 26.0833 65.2227 26.6273 66.0562 26.6273ZM71.4023 27.338C70.6214 27.338 70.1301 26.9958 69.8844 26.4167V27.2502H68.9982V21.0032H69.9283V23.495C70.1827 22.9335 70.6741 22.6351 71.4023 22.6351C72.6219 22.6351 73.3852 23.5038 73.3852 24.9866C73.3852 26.4694 72.6219 27.338 71.4023 27.338ZM71.1917 26.6273C71.9375 26.6273 72.4552 26.1272 72.4552 24.9866C72.4552 23.8547 71.9375 23.3458 71.1917 23.3458C70.4372 23.3458 69.9283 23.8547 69.9283 24.9866C69.9283 26.1272 70.4372 26.6273 71.1917 26.6273ZM75.0179 27.2502H74.0878V22.7229H75.0179V27.2502ZM74.5529 21.9332C74.1931 21.9332 74.0001 21.7226 74.0001 21.4419C74.0001 21.1611 74.1931 20.9418 74.5529 20.9418C74.9038 20.9418 75.1056 21.1611 75.1056 21.4419C75.1056 21.7226 74.9038 21.9332 74.5529 21.9332ZM76.8258 27.2502H75.8958V21.0032H76.8258V27.2502ZM79.7655 27.338C78.3266 27.338 77.5282 26.4255 77.5282 24.9866C77.5282 23.5915 78.2827 22.6351 79.7129 22.6351C81.1431 22.6351 81.8976 23.609 81.8976 24.9076C81.8976 24.9953 81.8888 25.0743 81.8801 25.162H78.4582C78.4845 26.2325 78.9934 26.6975 79.7655 26.6975C80.406 26.6975 80.8097 26.3641 80.95 25.8464H81.8011C81.5993 26.7677 80.9413 27.338 79.7655 27.338ZM79.7129 23.2756C79.011 23.2756 78.5547 23.6968 78.4582 24.5479H80.9676C80.8711 23.6968 80.4148 23.2756 79.7129 23.2756ZM87.65 27.338C85.6758 27.338 84.6142 26.0307 84.6142 24.1267C84.6142 22.2228 85.6758 20.9154 87.65 20.9154C89.3521 20.9154 90.4577 21.9332 90.4577 23.2318H89.5452C89.4311 22.3631 88.8169 21.7139 87.65 21.7139C86.29 21.7139 85.5881 22.5825 85.5881 24.1267C85.5881 25.6709 86.29 26.5396 87.65 26.5396C88.7994 26.5396 89.4311 25.9254 89.5452 24.969H90.4577C90.4577 26.2939 89.3872 27.338 87.65 27.338ZM93.2178 27.338C91.7789 27.338 90.9805 26.4255 90.9805 24.9866C90.9805 23.5476 91.7789 22.6351 93.2178 22.6351C94.6567 22.6351 95.4552 23.5476 95.4552 24.9866C95.4552 26.4255 94.6567 27.338 93.2178 27.338ZM93.2178 26.6273C94.0513 26.6273 94.5251 26.0833 94.5251 24.9866C94.5251 23.8986 94.0513 23.3458 93.2178 23.3458C92.3843 23.3458 91.9105 23.8986 91.9105 24.9866C91.9105 26.0833 92.3843 26.6273 93.2178 26.6273ZM102.231 27.2502H101.336V24.3987C101.336 23.7143 101.117 23.3897 100.599 23.3897C100.055 23.3897 99.6343 23.8723 99.6343 24.697V27.2502H98.7394V24.3987C98.7394 23.7143 98.52 23.3897 98.0111 23.3897C97.4672 23.3897 97.0548 23.8723 97.0548 24.697V27.2502H96.1598V22.7229H97.046V23.5125C97.2566 22.9861 97.6777 22.6351 98.3007 22.6351C98.9763 22.6351 99.3799 22.9422 99.5466 23.5476C99.7747 22.9685 100.249 22.6351 100.871 22.6351C101.784 22.6351 102.231 23.1616 102.231 24.2583V27.2502ZM105.513 27.338C104.785 27.338 104.293 27.0397 104.039 26.4781V28.9699H103.109V22.7229H103.995V23.5652C104.241 22.9773 104.732 22.6351 105.513 22.6351C106.732 22.6351 107.496 23.5038 107.496 24.9866C107.496 26.4694 106.732 27.338 105.513 27.338ZM105.302 26.6273C106.048 26.6273 106.566 26.1272 106.566 24.9866C106.566 23.8547 106.048 23.3458 105.302 23.3458C104.548 23.3458 104.039 23.8547 104.039 24.9866C104.039 26.1272 104.548 26.6273 105.302 26.6273ZM109.646 27.338C108.593 27.338 108.023 26.8115 108.023 25.9692C108.023 25.2937 108.435 24.7584 109.558 24.6619L110.436 24.5917C110.971 24.5391 111.129 24.4163 111.129 24.1267C111.129 23.609 110.831 23.302 110.172 23.302C109.558 23.302 109.225 23.5652 109.181 24.1267H108.269C108.269 23.2142 108.83 22.6351 110.164 22.6351C111.489 22.6351 112.059 23.2142 112.059 24.1267V26.0921C112.059 26.7063 112.112 27.1011 112.199 27.2502H111.366C111.225 27.0748 111.173 26.8905 111.173 26.4694C110.927 27.0484 110.427 27.338 109.646 27.338ZM109.9 26.6975C110.699 26.6975 111.129 26.0745 111.129 25.3287V24.9427C111.032 25.0655 110.787 25.1357 110.436 25.162L109.857 25.2147C109.207 25.2673 108.953 25.5393 108.953 25.9078C108.953 26.3728 109.234 26.6975 109.9 26.6975ZM114.518 27.2941C113.57 27.2941 113.237 27.0133 113.237 26.0921V23.3897H112.5V22.7229H113.237V21.3541H114.167V22.7229H115.211V23.3897H114.167V26.1184C114.167 26.5132 114.316 26.6273 114.729 26.6273L115.211 26.6185V27.2502C115.027 27.2678 114.702 27.2941 114.518 27.2941ZM116.806 27.2502H115.876V22.7229H116.806V27.2502ZM116.341 21.9332C115.981 21.9332 115.788 21.7226 115.788 21.4419C115.788 21.1611 115.981 20.9418 116.341 20.9418C116.692 20.9418 116.893 21.1611 116.893 21.4419C116.893 21.7226 116.692 21.9332 116.341 21.9332ZM120.088 27.338C119.307 27.338 118.815 26.9958 118.57 26.4167V27.2502H117.683V21.0032H118.614V23.495C118.868 22.9335 119.359 22.6351 120.088 22.6351C121.307 22.6351 122.07 23.5038 122.07 24.9866C122.07 26.4694 121.307 27.338 120.088 27.338ZM119.877 26.6273C120.623 26.6273 121.14 26.1272 121.14 24.9866C121.14 23.8547 120.623 23.3458 119.877 23.3458C119.122 23.3458 118.614 23.8547 118.614 24.9866C118.614 26.1272 119.122 26.6273 119.877 26.6273ZM123.703 27.2502H122.773V22.7229H123.703V27.2502ZM123.238 21.9332C122.878 21.9332 122.685 21.7226 122.685 21.4419C122.685 21.1611 122.878 20.9418 123.238 20.9418C123.589 20.9418 123.791 21.1611 123.791 21.4419C123.791 21.7226 123.589 21.9332 123.238 21.9332ZM125.511 27.2502H124.581V21.0032H125.511V27.2502ZM127.319 27.2502H126.389V22.7229H127.319V27.2502ZM126.854 21.9332C126.494 21.9332 126.301 21.7226 126.301 21.4419C126.301 21.1611 126.494 20.9418 126.854 20.9418C127.205 20.9418 127.407 21.1611 127.407 21.4419C127.407 21.7226 127.205 21.9332 126.854 21.9332ZM129.864 27.2941C128.916 27.2941 128.583 27.0133 128.583 26.0921V23.3897H127.846V22.7229H128.583V21.3541H129.513V22.7229H130.557V23.3897H129.513V26.1184C129.513 26.5132 129.662 26.6273 130.074 26.6273L130.557 26.6185V27.2502C130.373 27.2678 130.048 27.2941 129.864 27.2941ZM131.283 28.9699V28.3031H131.686C132.292 28.3031 132.643 27.9171 132.643 27.5047C132.643 27.4169 132.625 27.3204 132.59 27.2327L130.87 22.7229H131.836L133.143 26.5045L134.459 22.7229H135.433L133.696 27.2327C133.178 28.5663 132.66 28.9699 131.678 28.9699H131.283ZM59.1218 38.2502H58.6818L58.3307 37.3602H56.6396L56.2885 38.2502H55.8485L57.228 34.7296H57.7423L59.1218 38.2502ZM58.217 37.0289L57.4852 35.1351L56.7484 37.0289H58.217ZM60.4467 38.2997C59.6902 38.2997 59.2551 37.7953 59.2551 36.9745C59.2551 36.1586 59.6902 35.6493 60.4467 35.6493C61.228 35.6493 61.5593 36.1586 61.5593 36.6086H61.1884C61.139 36.2724 60.9313 35.9658 60.4467 35.9658C59.9622 35.9658 59.6655 36.307 59.6655 36.9745C59.6655 37.642 59.9622 37.9832 60.4467 37.9832C60.872 37.9832 61.1291 37.7508 61.1884 37.3206H61.5593C61.5593 37.8201 61.1983 38.2997 60.4467 38.2997ZM63.0301 38.2997C62.2736 38.2997 61.8385 37.7953 61.8385 36.9745C61.8385 36.1586 62.2736 35.6493 63.0301 35.6493C63.8114 35.6493 64.1427 36.1586 64.1427 36.6086H63.7719C63.7224 36.2724 63.5147 35.9658 63.0301 35.9658C62.5456 35.9658 62.2489 36.307 62.2489 36.9745C62.2489 37.642 62.5456 37.9832 63.0301 37.9832C63.4554 37.9832 63.7125 37.7508 63.7719 37.3206H64.1427C64.1427 37.8201 63.7817 38.2997 63.0301 38.2997ZM65.6432 38.2997C64.857 38.2997 64.4219 37.7953 64.4219 36.9745C64.4219 36.1883 64.8273 35.6493 65.6136 35.6493C66.4047 35.6493 66.8102 36.2031 66.8102 36.9152C66.8102 36.9547 66.8102 36.9992 66.8003 37.0388H64.8323C64.8422 37.7311 65.1685 38.0129 65.6432 38.0129C66.0536 38.0129 66.3009 37.7953 66.3899 37.4739H66.7558C66.6371 37.9832 66.286 38.2997 65.6432 38.2997ZM65.6136 35.9361C65.1735 35.9361 64.8867 36.2081 64.8323 36.7619H66.3998C66.3454 36.2081 66.0536 35.9361 65.6136 35.9361ZM68.1889 38.2997C67.4126 38.2997 67.1357 37.9486 67.1357 37.4739H67.5263C67.551 37.7904 67.6796 38.0178 68.1938 38.0178C68.7031 38.0178 68.8366 37.7904 68.8366 37.5432C68.8366 37.3108 68.6784 37.197 68.4163 37.1575L67.9169 37.0833C67.4373 37.0141 67.2049 36.8361 67.2049 36.4257C67.2049 36.0004 67.4472 35.6493 68.1889 35.6493C68.9355 35.6493 69.1778 36.0004 69.1778 36.4355H68.7872C68.7625 36.1735 68.6834 35.9312 68.1889 35.9312C67.7686 35.9312 67.6153 36.1043 67.6153 36.396C67.6153 36.6432 67.7538 36.7223 67.9713 36.752L68.4757 36.8262C68.9504 36.8954 69.247 37.0784 69.247 37.5234C69.247 37.9486 68.9701 38.2997 68.1889 38.2997ZM70.6274 38.2997C69.8511 38.2997 69.5742 37.9486 69.5742 37.4739H69.9648C69.9896 37.7904 70.1181 38.0178 70.6324 38.0178C71.1417 38.0178 71.2752 37.7904 71.2752 37.5432C71.2752 37.3108 71.1169 37.197 70.8549 37.1575L70.3555 37.0833C69.8758 37.0141 69.6434 36.8361 69.6434 36.4257C69.6434 36.0004 69.8857 35.6493 70.6274 35.6493C71.3741 35.6493 71.6164 36.0004 71.6164 36.4355H71.2257C71.201 36.1735 71.1219 35.9312 70.6274 35.9312C70.2071 35.9312 70.0538 36.1043 70.0538 36.396C70.0538 36.6432 70.1923 36.7223 70.4099 36.752L70.9142 36.8262C71.3889 36.8954 71.6856 37.0784 71.6856 37.5234C71.6856 37.9486 71.4087 38.2997 70.6274 38.2997ZM73.3824 39.2194V38.9227H73.5802C73.8769 38.9227 74.0598 38.7595 74.2032 38.3887L73.15 35.6988H73.5753L74.3862 37.9091L75.207 35.6988H75.6323L74.5889 38.3392C74.317 39.0216 74.0598 39.2194 73.5802 39.2194H73.3824ZM76.9329 38.2997C76.1467 38.2997 75.7116 37.7953 75.7116 36.9745C75.7116 36.1586 76.1467 35.6493 76.9329 35.6493C77.7241 35.6493 78.1592 36.1586 78.1592 36.9745C78.1592 37.7953 77.7241 38.2997 76.9329 38.2997ZM76.9329 37.9832C77.4521 37.9832 77.7488 37.642 77.7488 36.9745C77.7488 36.307 77.4521 35.9658 76.9329 35.9658C76.4187 35.9658 76.122 36.307 76.122 36.9745C76.122 37.642 76.4187 37.9832 76.9329 37.9832ZM79.4377 38.2997C78.8542 38.2997 78.5822 38.003 78.5822 37.3849V35.6988H78.9926V37.3206C78.9926 37.7459 79.1459 37.9684 79.5563 37.9684C79.9816 37.9684 80.2585 37.6371 80.2585 37.1229V35.6988H80.6689V38.2502H80.2782V37.7805C80.1349 38.097 79.8728 38.2997 79.4377 38.2997ZM81.605 38.2502H81.1946V35.6988H81.5852V36.302C81.7237 35.857 81.9561 35.6741 82.3368 35.6741C82.406 35.6741 82.4951 35.684 82.5692 35.6988V36.0548L82.322 36.0449C81.8869 36.0449 81.605 36.391 81.605 37.019V38.2502ZM84.5747 38.2502H84.1643V35.6988H84.5747V38.2502ZM84.367 35.1895C84.2039 35.1895 84.1149 35.0906 84.1149 34.962C84.1149 34.8335 84.2039 34.7346 84.367 34.7346C84.5302 34.7346 84.6242 34.8335 84.6242 34.962C84.6242 35.0906 84.5302 35.1895 84.367 35.1895ZM87.1877 38.2502H86.7773V36.6284C86.7773 36.2031 86.6241 35.9806 86.2136 35.9806C85.7884 35.9806 85.5115 36.3119 85.5115 36.8262V38.2502H85.1011V35.6988H85.4917V36.1685C85.6351 35.8521 85.8972 35.6493 86.3274 35.6493C86.9108 35.6493 87.1877 35.946 87.1877 36.5641V38.2502ZM88.8833 38.2502H88.3888L87.395 35.6988H87.8202L88.6361 37.8794L89.452 35.6988H89.8772L88.8833 38.2502ZM91.1779 38.2997C90.3917 38.2997 89.9565 37.7953 89.9565 36.9745C89.9565 36.1883 90.362 35.6493 91.1482 35.6493C91.9394 35.6493 92.3448 36.2031 92.3448 36.9152C92.3448 36.9547 92.3448 36.9992 92.3349 37.0388H90.3669C90.3768 37.7311 90.7032 38.0129 91.1779 38.0129C91.5883 38.0129 91.8355 37.7953 91.9245 37.4739H92.2904C92.1718 37.9832 91.8207 38.2997 91.1779 38.2997ZM91.1482 35.9361C90.7081 35.9361 90.4213 36.2081 90.3669 36.7619H91.9344C91.88 36.2081 91.5883 35.9361 91.1482 35.9361ZM94.8559 38.2502H94.4455V36.6284C94.4455 36.2031 94.2922 35.9806 93.8818 35.9806C93.4565 35.9806 93.1796 36.3119 93.1796 36.8262V38.2502H92.7692V35.6988H93.1598V36.1685C93.3032 35.8521 93.5653 35.6493 93.9955 35.6493C94.579 35.6493 94.8559 35.946 94.8559 36.5641V38.2502ZM96.2283 38.275C95.7388 38.275 95.5558 38.1316 95.5558 37.6569V35.9955H95.1207V35.6988H95.5558V34.9274H95.9662V35.6988H96.5794V35.9955H95.9662V37.6668C95.9662 37.914 96.0503 37.9733 96.3124 37.9733L96.5794 37.9635V38.2502C96.4805 38.2601 96.3173 38.275 96.2283 38.275ZM97.9478 38.2997C97.1616 38.2997 96.7265 37.7953 96.7265 36.9745C96.7265 36.1586 97.1616 35.6493 97.9478 35.6493C98.739 35.6493 99.1741 36.1586 99.1741 36.9745C99.1741 37.7953 98.739 38.2997 97.9478 38.2997ZM97.9478 37.9832C98.467 37.9832 98.7637 37.642 98.7637 36.9745C98.7637 36.307 98.467 35.9658 97.9478 35.9658C97.4336 35.9658 97.1369 36.307 97.1369 36.9745C97.1369 37.642 97.4336 37.9832 97.9478 37.9832ZM100.008 38.2502H99.5971V35.6988H99.9878V36.302C100.126 35.857 100.359 35.6741 100.739 35.6741C100.809 35.6741 100.898 35.684 100.972 35.6988V36.0548L100.725 36.0449C100.289 36.0449 100.008 36.391 100.008 37.019V38.2502ZM101.365 39.2194V38.9227H101.563C101.86 38.9227 102.043 38.7595 102.186 38.3887L101.133 35.6988H101.558L102.369 37.9091L103.19 35.6988H103.615L102.572 38.3392C102.3 39.0216 102.043 39.2194 101.563 39.2194H101.365ZM106.134 38.2997C105.357 38.2997 105.08 37.9486 105.08 37.4739H105.471C105.496 37.7904 105.624 38.0178 106.138 38.0178C106.648 38.0178 106.781 37.7904 106.781 37.5432C106.781 37.3108 106.623 37.197 106.361 37.1575L105.862 37.0833C105.382 37.0141 105.15 36.8361 105.15 36.4257C105.15 36.0004 105.392 35.6493 106.134 35.6493C106.88 35.6493 107.122 36.0004 107.122 36.4355H106.732C106.707 36.1735 106.628 35.9312 106.134 35.9312C105.713 35.9312 105.56 36.1043 105.56 36.396C105.56 36.6432 105.698 36.7223 105.916 36.752L106.42 36.8262C106.895 36.8954 107.192 37.0784 107.192 37.5234C107.192 37.9486 106.915 38.2997 106.134 38.2997ZM107.512 39.2194V38.9227H107.71C108.007 38.9227 108.19 38.7595 108.333 38.3887L107.28 35.6988H107.705L108.516 37.9091L109.337 35.6988H109.762L108.719 38.3392C108.447 39.0216 108.19 39.2194 107.71 39.2194H107.512ZM110.904 38.2997C110.128 38.2997 109.851 37.9486 109.851 37.4739H110.242C110.267 37.7904 110.395 38.0178 110.909 38.0178C111.419 38.0178 111.552 37.7904 111.552 37.5432C111.552 37.3108 111.394 37.197 111.132 37.1575L110.632 37.0833C110.153 37.0141 109.92 36.8361 109.92 36.4257C109.92 36.0004 110.163 35.6493 110.904 35.6493C111.651 35.6493 111.893 36.0004 111.893 36.4355H111.503C111.478 36.1735 111.399 35.9312 110.904 35.9312C110.484 35.9312 110.331 36.1043 110.331 36.396C110.331 36.6432 110.469 36.7223 110.687 36.752L111.191 36.8262C111.666 36.8954 111.963 37.0784 111.963 37.5234C111.963 37.9486 111.686 38.2997 110.904 38.2997ZM113.235 38.275C112.746 38.275 112.563 38.1316 112.563 37.6569V35.9955H112.128V35.6988H112.563V34.9274H112.973V35.6988H113.586V35.9955H112.973V37.6668C112.973 37.914 113.057 37.9733 113.319 37.9733L113.586 37.9635V38.2502C113.487 38.2601 113.324 38.275 113.235 38.275ZM114.955 38.2997C114.169 38.2997 113.734 37.7953 113.734 36.9745C113.734 36.1883 114.139 35.6493 114.925 35.6493C115.716 35.6493 116.122 36.2031 116.122 36.9152C116.122 36.9547 116.122 36.9992 116.112 37.0388H114.144C114.154 37.7311 114.48 38.0129 114.955 38.0129C115.365 38.0129 115.612 37.7953 115.701 37.4739H116.067C115.949 37.9832 115.598 38.2997 114.955 38.2997ZM114.925 35.9361C114.485 35.9361 114.198 36.2081 114.144 36.7619H115.711C115.657 36.2081 115.365 35.9361 114.925 35.9361ZM119.869 38.2502H119.473V36.6185C119.473 36.1933 119.345 35.9806 119.004 35.9806C118.658 35.9806 118.396 36.302 118.396 36.8163V38.2502H118.005V36.6185C118.005 36.1933 117.871 35.9806 117.54 35.9806C117.194 35.9806 116.942 36.302 116.942 36.8163V38.2502H116.546V35.6988H116.937V36.1685C117.055 35.8521 117.308 35.6493 117.659 35.6493C118.049 35.6493 118.277 35.8323 118.361 36.1982C118.489 35.8372 118.766 35.6493 119.117 35.6493C119.627 35.6493 119.869 35.946 119.869 36.5641V38.2502ZM122.264 38.2502H121.853V35.9955H121.418V35.6988H121.853V35.3823C121.853 34.9274 122.041 34.7049 122.526 34.7049C122.615 34.7049 122.778 34.7197 122.877 34.7296V35.0164L122.61 35.0065C122.348 35.0065 122.264 35.1252 122.264 35.3724V35.6988H122.877V35.9955H122.264V38.2502ZM123.649 38.2502H123.239V35.6988H123.63V36.302C123.768 35.857 124 35.6741 124.381 35.6741C124.45 35.6741 124.539 35.684 124.614 35.6988V36.0548L124.366 36.0449C123.931 36.0449 123.649 36.391 123.649 37.019V38.2502ZM125.964 38.2997C125.178 38.2997 124.743 37.7953 124.743 36.9745C124.743 36.1586 125.178 35.6493 125.964 35.6493C126.756 35.6493 127.191 36.1586 127.191 36.9745C127.191 37.7953 126.756 38.2997 125.964 38.2997ZM125.964 37.9832C126.484 37.9832 126.78 37.642 126.78 36.9745C126.78 36.307 126.484 35.9658 125.964 35.9658C125.45 35.9658 125.154 36.307 125.154 36.9745C125.154 37.642 125.45 37.9832 125.964 37.9832ZM130.937 38.2502H130.541V36.6185C130.541 36.1933 130.412 35.9806 130.071 35.9806C129.725 35.9806 129.463 36.302 129.463 36.8163V38.2502H129.072V36.6185C129.072 36.1933 128.939 35.9806 128.608 35.9806C128.262 35.9806 128.009 36.302 128.009 36.8163V38.2502H127.614V35.6988H128.004V36.1685C128.123 35.8521 128.375 35.6493 128.726 35.6493C129.117 35.6493 129.344 35.8323 129.428 36.1982C129.557 35.8372 129.834 35.6493 130.185 35.6493C130.694 35.6493 130.937 35.946 130.937 36.5641V38.2502ZM133.504 38.2997C132.926 38.2997 132.6 38.003 132.6 37.5283C132.6 37.1525 132.837 36.8608 133.46 36.8064L133.93 36.7668C134.276 36.7372 134.375 36.663 134.375 36.4751C134.375 36.1488 134.192 35.946 133.767 35.946C133.371 35.946 133.163 36.1141 133.134 36.4751H132.738C132.738 35.9707 133.05 35.6493 133.762 35.6493C134.474 35.6493 134.785 35.9707 134.785 36.4751V37.5975C134.785 37.9437 134.815 38.1662 134.864 38.2502H134.503C134.424 38.1415 134.395 38.0376 134.395 37.7657C134.256 38.1217 133.954 38.2997 133.504 38.2997ZM133.613 38.0129C134.118 38.0129 134.375 37.6124 134.375 37.1377V36.8855C134.315 36.9646 134.157 37.0141 133.93 37.0339L133.579 37.0635C133.173 37.0932 133.01 37.2663 133.01 37.5036C133.01 37.7953 133.188 38.0129 133.613 38.0129ZM137.398 38.2502H136.987V36.6284C136.987 36.2031 136.834 35.9806 136.423 35.9806C135.998 35.9806 135.721 36.3119 135.721 36.8262V38.2502H135.311V35.6988H135.702V36.1685C135.845 35.8521 136.107 35.6493 136.537 35.6493C137.121 35.6493 137.398 35.946 137.398 36.5641V38.2502ZM137.837 39.2194V38.9227H138.035C138.332 38.9227 138.515 38.7595 138.658 38.3887L137.605 35.6988H138.03L138.841 37.9091L139.662 35.6988H140.087L139.044 38.3392C138.772 39.0216 138.515 39.2194 138.035 39.2194H137.837ZM142.061 38.2502H141.651V35.6988H142.061V38.2502ZM141.854 35.1895C141.691 35.1895 141.602 35.0906 141.602 34.962C141.602 34.8335 141.691 34.7346 141.854 34.7346C142.017 34.7346 142.111 34.8335 142.111 34.962C142.111 35.0906 142.017 35.1895 141.854 35.1895ZM144.16 38.2997C143.058 38.2997 142.489 37.5629 142.489 36.4899C142.489 35.4169 143.058 34.6802 144.16 34.6802C145.268 34.6802 145.837 35.4169 145.837 36.4899C145.837 37.5629 145.268 38.2997 144.16 38.2997ZM144.16 37.9486C144.986 37.9486 145.411 37.4195 145.411 36.4899C145.411 35.5603 144.986 35.0313 144.16 35.0313C143.339 35.0313 142.914 35.5603 142.914 36.4899C142.914 37.4195 143.339 37.9486 144.16 37.9486ZM147.528 38.2997C146.599 38.2997 146.164 37.8992 146.164 37.1476H146.564C146.628 37.7014 146.856 37.9733 147.538 37.9733C148.206 37.9733 148.468 37.6915 148.468 37.2366C148.468 36.9646 148.32 36.7619 147.741 36.6778L147.207 36.5987C146.495 36.4899 146.253 36.2279 146.253 35.7334C146.253 35.1104 146.663 34.6802 147.528 34.6802C148.394 34.6802 148.804 35.0955 148.804 35.7828H148.414C148.354 35.2637 148.112 35.0065 147.519 35.0065C146.94 35.0065 146.678 35.2785 146.678 35.7087C146.678 36.0004 146.811 36.1636 147.331 36.2427L147.865 36.3218C148.542 36.4207 148.893 36.6828 148.893 37.2168C148.893 37.8893 148.458 38.2997 147.528 38.2997ZM152.914 38.2997C152.128 38.2997 151.693 37.7953 151.693 36.9745C151.693 36.1586 152.128 35.6493 152.914 35.6493C153.705 35.6493 154.14 36.1586 154.14 36.9745C154.14 37.7953 153.705 38.2997 152.914 38.2997ZM152.914 37.9832C153.433 37.9832 153.73 37.642 153.73 36.9745C153.73 36.307 153.433 35.9658 152.914 35.9658C152.4 35.9658 152.103 36.307 152.103 36.9745C152.103 37.642 152.4 37.9832 152.914 37.9832ZM154.974 38.2502H154.563V35.6988H154.954V36.302C155.092 35.857 155.325 35.6741 155.705 35.6741C155.775 35.6741 155.864 35.684 155.938 35.6988V36.0548L155.691 36.0449C155.256 36.0449 154.974 36.391 154.974 37.019V38.2502ZM160.609 38.2502H160.168L159.817 37.3602H158.126L157.775 38.2502H157.335L158.715 34.7296H159.229L160.609 38.2502ZM159.704 37.0289L158.972 35.1351L158.235 37.0289H159.704ZM163.024 38.2502H162.614V36.6284C162.614 36.2031 162.46 35.9806 162.05 35.9806C161.625 35.9806 161.348 36.3119 161.348 36.8262V38.2502H160.937V35.6988H161.328V36.1685C161.471 35.8521 161.733 35.6493 162.164 35.6493C162.747 35.6493 163.024 35.946 163.024 36.5641V38.2502ZM164.558 38.2997C163.871 38.2997 163.451 37.8102 163.451 36.9745C163.451 36.1389 163.871 35.6493 164.558 35.6493C164.994 35.6493 165.295 35.8273 165.439 36.1834V34.7296H165.849V38.2502H165.458V37.7409C165.315 38.1019 165.013 38.2997 164.558 38.2997ZM164.647 37.9832C165.117 37.9832 165.439 37.6717 165.439 36.9745C165.439 36.2773 165.117 35.9658 164.647 35.9658C164.183 35.9658 163.861 36.2773 163.861 36.9745C163.861 37.6717 164.183 37.9832 164.647 37.9832ZM166.785 38.2502H166.375V35.6988H166.765V36.302C166.904 35.857 167.136 35.6741 167.517 35.6741C167.586 35.6741 167.675 35.684 167.749 35.6988V36.0548L167.502 36.0449C167.067 36.0449 166.785 36.391 166.785 37.019V38.2502ZM169.1 38.2997C168.314 38.2997 167.879 37.7953 167.879 36.9745C167.879 36.1586 168.314 35.6493 169.1 35.6493C169.891 35.6493 170.326 36.1586 170.326 36.9745C170.326 37.7953 169.891 38.2997 169.1 38.2997ZM169.1 37.9832C169.619 37.9832 169.916 37.642 169.916 36.9745C169.916 36.307 169.619 35.9658 169.1 35.9658C168.586 35.9658 168.289 36.307 168.289 36.9745C168.289 37.642 168.586 37.9832 169.1 37.9832ZM171.16 38.2502H170.749V35.6988H171.16V38.2502ZM170.952 35.1895C170.789 35.1895 170.7 35.0906 170.7 34.962C170.7 34.8335 170.789 34.7346 170.952 34.7346C171.115 34.7346 171.209 34.8335 171.209 34.962C171.209 35.0906 171.115 35.1895 170.952 35.1895ZM172.695 38.2997C172.008 38.2997 171.587 37.8102 171.587 36.9745C171.587 36.1389 172.008 35.6493 172.695 35.6493C173.13 35.6493 173.432 35.8273 173.575 36.1834V34.7296H173.985V38.2502H173.595V37.7409C173.451 38.1019 173.15 38.2997 172.695 38.2997ZM172.784 37.9832C173.254 37.9832 173.575 37.6717 173.575 36.9745C173.575 36.2773 173.254 35.9658 172.784 35.9658C172.319 35.9658 171.998 36.2773 171.998 36.9745C171.998 37.6717 172.319 37.9832 172.784 37.9832ZM57.055 45.2997C56.3677 45.2997 55.9474 44.8102 55.9474 43.9745C55.9474 43.1389 56.3677 42.6493 57.055 42.6493C57.4901 42.6493 57.7917 42.8273 57.9351 43.1834V41.7296H58.3455V45.2502H57.9549V44.7409C57.8115 45.1019 57.5099 45.2997 57.055 45.2997ZM57.144 44.9832C57.6137 44.9832 57.9351 44.6717 57.9351 43.9745C57.9351 43.2773 57.6137 42.9658 57.144 42.9658C56.6792 42.9658 56.3578 43.2773 56.3578 43.9745C56.3578 44.6717 56.6792 44.9832 57.144 44.9832ZM59.9935 45.2997C59.2073 45.2997 58.7722 44.7953 58.7722 43.9745C58.7722 43.1883 59.1777 42.6493 59.9639 42.6493C60.755 42.6493 61.1605 43.2031 61.1605 43.9152C61.1605 43.9547 61.1605 43.9992 61.1506 44.0388H59.1826C59.1925 44.7311 59.5188 45.0129 59.9935 45.0129C60.4039 45.0129 60.6512 44.7953 60.7402 44.4739H61.1061C60.9874 44.9832 60.6363 45.2997 59.9935 45.2997ZM59.9639 42.9361C59.5238 42.9361 59.237 43.2081 59.1826 43.7619H60.7501C60.6957 43.2081 60.4039 42.9361 59.9639 42.9361ZM62.7257 45.2502H62.2313L61.2374 42.6988H61.6626L62.4785 44.8794L63.2944 42.6988H63.7196L62.7257 45.2502ZM64.458 45.2502H64.0476V42.6988H64.458V45.2502ZM64.2503 42.1895C64.0871 42.1895 63.9981 42.0906 63.9981 41.962C63.9981 41.8335 64.0871 41.7346 64.2503 41.7346C64.4135 41.7346 64.5074 41.8335 64.5074 41.962C64.5074 42.0906 64.4135 42.1895 64.2503 42.1895ZM66.0771 45.2997C65.3206 45.2997 64.8854 44.7953 64.8854 43.9745C64.8854 43.1586 65.3206 42.6493 66.0771 42.6493C66.8584 42.6493 67.1897 43.1586 67.1897 43.6086H66.8188C66.7694 43.2724 66.5617 42.9658 66.0771 42.9658C65.5925 42.9658 65.2959 43.307 65.2959 43.9745C65.2959 44.642 65.5925 44.9832 66.0771 44.9832C66.5024 44.9832 66.7595 44.7508 66.8188 44.3206H67.1897C67.1897 44.8201 66.8287 45.2997 66.0771 45.2997ZM68.6902 45.2997C67.904 45.2997 67.4689 44.7953 67.4689 43.9745C67.4689 43.1883 67.8743 42.6493 68.6605 42.6493C69.4517 42.6493 69.8571 43.2031 69.8571 43.9152C69.8571 43.9547 69.8571 43.9992 69.8472 44.0388H67.8793C67.8892 44.7311 68.2155 45.0129 68.6902 45.0129C69.1006 45.0129 69.3478 44.7953 69.4368 44.4739H69.8027C69.6841 44.9832 69.333 45.2997 68.6902 45.2997ZM68.6605 42.9361C68.2204 42.9361 67.9337 43.2081 67.8793 43.7619H69.4467C69.3923 43.2081 69.1006 42.9361 68.6605 42.9361ZM70.2888 45.9376L70.0762 45.8486C70.185 45.6705 70.2146 45.5271 70.2146 45.2651V44.7261H70.5657V45.2651C70.5657 45.5716 70.4816 45.7942 70.2888 45.9376ZM73.1639 45.2997C72.5854 45.2997 72.259 45.003 72.259 44.5283C72.259 44.1525 72.4964 43.8608 73.1194 43.8064L73.5891 43.7668C73.9353 43.7372 74.0342 43.663 74.0342 43.4751C74.0342 43.1488 73.8512 42.946 73.426 42.946C73.0304 42.946 72.8227 43.1141 72.793 43.4751H72.3975C72.3975 42.9707 72.709 42.6493 73.421 42.6493C74.1331 42.6493 74.4446 42.9707 74.4446 43.4751V44.5975C74.4446 44.9437 74.4742 45.1662 74.5237 45.2502H74.1627C74.0836 45.1415 74.0539 45.0376 74.0539 44.7657C73.9155 45.1217 73.6139 45.2997 73.1639 45.2997ZM73.2727 45.0129C73.777 45.0129 74.0342 44.6124 74.0342 44.1377V43.8855C73.9748 43.9646 73.8166 44.0141 73.5891 44.0339L73.2381 44.0635C72.8326 44.0932 72.6694 44.2663 72.6694 44.5036C72.6694 44.7953 72.8474 45.0129 73.2727 45.0129ZM77.0569 45.2502H76.6465V43.6284C76.6465 43.2031 76.4932 42.9806 76.0828 42.9806C75.6576 42.9806 75.3807 43.3119 75.3807 43.8262V45.2502H74.9703V42.6988H75.3609V43.1685C75.5043 42.8521 75.7664 42.6493 76.1966 42.6493C76.78 42.6493 77.0569 42.946 77.0569 43.5641V45.2502ZM77.4966 46.2194V45.9227H77.6943C77.991 45.9227 78.174 45.7595 78.3174 45.3887L77.2642 42.6988H77.6894L78.5003 44.9091L79.3211 42.6988H79.7464L78.7031 45.3392C78.4311 46.0216 78.174 46.2194 77.6943 46.2194H77.4966ZM82.8681 45.2502H82.4329L81.8297 43.2279L81.2264 45.2502H80.7913L79.8765 42.6988H80.3018L81.0286 44.7904L81.6418 42.6988H82.0176L82.6307 44.7904L83.3576 42.6988H83.7828L82.8681 45.2502ZM86.1978 45.2502H85.7874V43.6284C85.7874 43.2031 85.6342 42.9806 85.2237 42.9806C84.7985 42.9806 84.5216 43.3119 84.5216 43.8262V45.2502H84.1112V41.7296H84.5216V43.1438C84.66 42.8372 84.9221 42.6493 85.3375 42.6493C85.9209 42.6493 86.1978 42.946 86.1978 43.5641V45.2502ZM87.846 45.2997C87.0598 45.2997 86.6247 44.7953 86.6247 43.9745C86.6247 43.1883 87.0301 42.6493 87.8163 42.6493C88.6075 42.6493 89.013 43.2031 89.013 43.9152C89.013 43.9547 89.013 43.9992 89.0031 44.0388H87.0351C87.045 44.7311 87.3713 45.0129 87.846 45.0129C88.2564 45.0129 88.5037 44.7953 88.5927 44.4739H88.9586C88.8399 44.9832 88.4888 45.2997 87.846 45.2997ZM87.8163 42.9361C87.3763 42.9361 87.0895 43.2081 87.0351 43.7619H88.6025C88.5482 43.2081 88.2564 42.9361 87.8163 42.9361ZM89.8478 45.2502H89.4373V42.6988H89.828V43.302C89.9664 42.857 90.1988 42.6741 90.5796 42.6741C90.6488 42.6741 90.7378 42.684 90.812 42.6988V43.0548L90.5647 43.0449C90.1296 43.0449 89.8478 43.391 89.8478 44.019V45.2502ZM92.1629 45.2997C91.3767 45.2997 90.9416 44.7953 90.9416 43.9745C90.9416 43.1883 91.3471 42.6493 92.1333 42.6493C92.9244 42.6493 93.3299 43.2031 93.3299 43.9152C93.3299 43.9547 93.3299 43.9992 93.32 44.0388H91.352C91.3619 44.7311 91.6883 45.0129 92.1629 45.0129C92.5734 45.0129 92.8206 44.7953 92.9096 44.4739H93.2755C93.1568 44.9832 92.8058 45.2997 92.1629 45.2997ZM92.1333 42.9361C91.6932 42.9361 91.4064 43.2081 91.352 43.7619H92.9195C92.8651 43.2081 92.5734 42.9361 92.1333 42.9361ZM93.7616 45.9376L93.5489 45.8486C93.6577 45.6705 93.6874 45.5271 93.6874 45.2651V44.7261H94.0385V45.2651C94.0385 45.5716 93.9544 45.7942 93.7616 45.9376ZM96.6367 45.2997C96.0581 45.2997 95.7318 45.003 95.7318 44.5283C95.7318 44.1525 95.9691 43.8608 96.5921 43.8064L97.0619 43.7668C97.408 43.7372 97.5069 43.663 97.5069 43.4751C97.5069 43.1488 97.324 42.946 96.8987 42.946C96.5031 42.946 96.2955 43.1141 96.2658 43.4751H95.8702C95.8702 42.9707 96.1817 42.6493 96.8938 42.6493C97.6058 42.6493 97.9173 42.9707 97.9173 43.4751V44.5975C97.9173 44.9437 97.947 45.1662 97.9964 45.2502H97.6355C97.5564 45.1415 97.5267 45.0376 97.5267 44.7657C97.3882 45.1217 97.0866 45.2997 96.6367 45.2997ZM96.7454 45.0129C97.2498 45.0129 97.5069 44.6124 97.5069 44.1377V43.8855C97.4476 43.9646 97.2893 44.0141 97.0619 44.0339L96.7108 44.0635C96.3054 44.0932 96.1422 44.2663 96.1422 44.5036C96.1422 44.7953 96.3202 45.0129 96.7454 45.0129ZM100.53 45.2502H100.119V43.6284C100.119 43.2031 99.966 42.9806 99.5556 42.9806C99.1304 42.9806 98.8535 43.3119 98.8535 43.8262V45.2502H98.443V42.6988H98.8337V43.1685C98.9771 42.8521 99.2391 42.6493 99.6693 42.6493C100.253 42.6493 100.53 42.946 100.53 43.5641V45.2502ZM100.969 46.2194V45.9227H101.167C101.464 45.9227 101.647 45.7595 101.79 45.3887L100.737 42.6988H101.162L101.973 44.9091L102.794 42.6988H103.219L102.176 45.3392C101.904 46.0216 101.647 46.2194 101.167 46.2194H100.969ZM104.442 45.275C103.953 45.275 103.77 45.1316 103.77 44.6569V42.9955H103.334V42.6988H103.77V41.9274H104.18V42.6988H104.793V42.9955H104.18V44.6668C104.18 44.914 104.264 44.9733 104.526 44.9733L104.793 44.9635V45.2502C104.694 45.2601 104.531 45.275 104.442 45.275ZM105.594 45.2502H105.184V42.6988H105.594V45.2502ZM105.387 42.1895C105.224 42.1895 105.135 42.0906 105.135 41.962C105.135 41.8335 105.224 41.7346 105.387 41.7346C105.55 41.7346 105.644 41.8335 105.644 41.962C105.644 42.0906 105.55 42.1895 105.387 42.1895ZM109.444 45.2502H109.048V43.6185C109.048 43.1933 108.92 42.9806 108.578 42.9806C108.232 42.9806 107.97 43.302 107.97 43.8163V45.2502H107.58V43.6185C107.58 43.1933 107.446 42.9806 107.115 42.9806C106.769 42.9806 106.516 43.302 106.516 43.8163V45.2502H106.121V42.6988H106.511V43.1685C106.63 42.8521 106.882 42.6493 107.233 42.6493C107.624 42.6493 107.851 42.8323 107.936 43.1982C108.064 42.8372 108.341 42.6493 108.692 42.6493C109.201 42.6493 109.444 42.946 109.444 43.5641V45.2502ZM111.092 45.2997C110.306 45.2997 109.87 44.7953 109.87 43.9745C109.87 43.1883 110.276 42.6493 111.062 42.6493C111.853 42.6493 112.259 43.2031 112.259 43.9152C112.259 43.9547 112.259 43.9992 112.249 44.0388H110.281C110.291 44.7311 110.617 45.0129 111.092 45.0129C111.502 45.0129 111.749 44.7953 111.838 44.4739H112.204C112.086 44.9832 111.735 45.2997 111.092 45.2997ZM111.062 42.9361C110.622 42.9361 110.335 43.2081 110.281 43.7619H111.848C111.794 43.2081 111.502 42.9361 111.062 42.9361ZM112.789 45.2799C112.621 45.2799 112.527 45.1761 112.527 45.0426C112.527 44.914 112.621 44.8052 112.789 44.8052C112.957 44.8052 113.051 44.914 113.051 45.0426C113.051 45.1761 112.957 45.2799 112.789 45.2799Z" fill="#107789"/>
<path d="M42.3857 35.7436C42.5593 35.7436 42.7001 35.6028 42.7001 35.4292C42.7001 35.2555 42.5593 35.1147 42.3857 35.1147C42.2121 35.1147 42.0713 35.2555 42.0713 35.4292C42.0713 35.6028 42.2121 35.7436 42.3857 35.7436Z" fill="url(#paint1_linear_0_1)"/>
<path d="M34.5259 26.9404C32.9656 26.9404 31.6963 28.2098 31.6963 29.77C31.6963 31.3302 32.9656 32.5996 34.5259 32.5996C36.0861 32.5996 37.3554 31.3302 37.3554 29.77C37.3554 28.2097 36.0861 26.9404 34.5259 26.9404ZM36.0058 29.0491L34.4338 30.6211C34.3748 30.68 34.2948 30.7132 34.2115 30.7132C34.1281 30.7132 34.0481 30.68 33.9891 30.6211L33.046 29.6779C32.9885 29.6186 32.9566 29.5391 32.9572 29.4566C32.9578 29.374 32.9909 29.295 33.0493 29.2366C33.1077 29.1782 33.1867 29.1451 33.2693 29.1445C33.3518 29.1439 33.4313 29.1758 33.4906 29.2333L34.2115 29.9542L35.5611 28.6045C35.6204 28.547 35.6999 28.5151 35.7825 28.5157C35.865 28.5163 35.944 28.5494 36.0024 28.6078C36.0608 28.6662 36.0939 28.7452 36.0945 28.8278C36.0951 28.9103 36.0633 28.9898 36.0058 29.0491Z" fill="url(#paint2_linear_0_1)"/>
<path d="M42.3857 38.5731C42.5593 38.5731 42.7001 38.4324 42.7001 38.2587C42.7001 38.0851 42.5593 37.9443 42.3857 37.9443C42.2121 37.9443 42.0713 38.0851 42.0713 38.2587C42.0713 38.4324 42.2121 38.5731 42.3857 38.5731Z" fill="url(#paint3_linear_0_1)"/>
<path d="M37.9273 36.3724C38.3052 36.3724 38.6126 36.065 38.6126 35.6871V35.4292H36.0975V35.6871C36.0975 36.065 36.4049 36.3724 36.7828 36.3724H37.9273ZM44.9005 30.3989V25.0542H29.8096V34.8004H39.8702V31.8619C39.8702 31.0552 40.5265 30.3989 41.3332 30.3989L44.9005 30.3989ZM34.5255 33.2285C32.6186 33.2285 31.0672 31.6771 31.0672 29.7702C31.0672 27.8632 32.6186 26.3118 34.5255 26.3118C36.4324 26.3118 37.9838 27.8632 37.9838 29.7702C37.9838 31.6771 36.4324 33.2285 34.5255 33.2285ZM40.499 41.5117C40.499 41.9717 40.8733 42.3459 41.3332 42.3459H46.5815C47.0414 42.3459 47.4157 41.9717 47.4157 41.5117V40.7739H40.499V41.5117Z" fill="url(#paint4_linear_0_1)"/>
<path d="M43.5945 31.6566H44.3211C44.6409 31.6566 44.901 31.3965 44.901 31.0768V31.0278H43.0146V31.0768C43.0146 31.3965 43.2747 31.6566 43.5945 31.6566Z" fill="url(#paint5_linear_0_1)"/>
<path d="M45.5297 38.5731C45.7034 38.5731 45.8441 38.4324 45.8441 38.2587C45.8441 38.0851 45.7034 37.9443 45.5297 37.9443C45.3561 37.9443 45.2153 38.0851 45.2153 38.2587C45.2153 38.4324 45.3561 38.5731 45.5297 38.5731Z" fill="url(#paint6_linear_0_1)"/>
<path d="M46.5815 31.0278H45.5293V31.0768C45.5293 31.7432 44.9871 32.2854 44.3206 32.2854H43.594C42.9276 32.2854 42.3854 31.7432 42.3854 31.0768V31.0278H41.3332C40.8733 31.0278 40.499 31.4021 40.499 31.862V40.1453H47.4157V31.862C47.4157 31.402 47.0414 31.0278 46.5815 31.0278ZM42.3853 39.2021C41.8653 39.2021 41.4422 38.7789 41.4422 38.2589C41.4422 37.7389 41.8653 37.3157 42.3853 37.3157C42.9054 37.3157 43.3285 37.7389 43.3285 38.2589C43.3285 38.7789 42.9054 39.2021 42.3853 39.2021ZM42.3853 36.3725C41.8653 36.3725 41.4422 35.9494 41.4422 35.4293C41.4422 34.9093 41.8653 34.4862 42.3853 34.4862C42.9054 34.4862 43.3285 34.9093 43.3285 35.4293C43.3285 35.9494 42.9054 36.3725 42.3853 36.3725ZM45.5293 39.2021C45.0092 39.2021 44.5861 38.7789 44.5861 38.2589C44.5861 37.7389 45.0093 37.3157 45.5293 37.3157C46.0493 37.3157 46.4725 37.7389 46.4725 38.2589C46.4725 38.7789 46.0493 39.2021 45.5293 39.2021ZM45.5293 36.3725C45.0092 36.3725 44.5861 35.9494 44.5861 35.4293C44.5861 34.9093 45.0093 34.4862 45.5293 34.4862C46.0493 34.4862 46.4725 34.9093 46.4725 35.4293C46.4725 35.9494 46.0493 36.3725 45.5293 36.3725Z" fill="url(#paint7_linear_0_1)"/>
<path d="M29.1813 24.964C29.1813 24.667 29.4229 24.4253 29.7199 24.4253H44.9912C45.2882 24.4253 45.5299 24.667 45.5299 24.964V30.3989H46.473V24.8466C46.473 24.0943 45.861 23.4822 45.1086 23.4822H29.6026C28.8502 23.4822 28.2381 24.0943 28.2381 24.8466V34.8004H29.1813V24.964ZM39.2419 35.687C39.2419 36.4116 38.6524 37.0012 37.9278 37.0012H36.7833C36.0587 37.0012 35.4692 36.4116 35.4692 35.687V35.4292H27.2949V36.8754C27.2949 37.4648 27.7744 37.9443 28.3639 37.9443H39.8707V35.4292H39.2419V35.687Z" fill="url(#paint8_linear_0_1)"/>
<path d="M45.5297 35.7436C45.7034 35.7436 45.8441 35.6028 45.8441 35.4292C45.8441 35.2555 45.7034 35.1147 45.5297 35.1147C45.3561 35.1147 45.2153 35.2555 45.2153 35.4292C45.2153 35.6028 45.3561 35.7436 45.5297 35.7436Z" fill="url(#paint9_linear_0_1)"/>
<defs>
<filter id="filter0_d_0_1" x="0.906734" y="0.683885" width="195.101" height="66.2834" filterUnits="userSpaceOnUse" color-interpolation-filters="sRGB">
<feFlood flood-opacity="0" result="BackgroundImageFix"/>
<feColorMatrix in="SourceAlpha" type="matrix" values="0 0 0 0 0 0 0 0 0 0 0 0 0 0 0 0 0 0 127 0" result="hardAlpha"/>
<feOffset dx="-0.797633" dy="0.797633"/>
<feGaussianBlur stdDeviation="6.89953"/>
<feComposite in2="hardAlpha" operator="out"/>
<feColorMatrix type="matrix" values="0 0 0 0 0 0 0 0 0 0 0 0 0 0 0 0 0 0 0.18 0"/>
<feBlend mode="normal" in2="BackgroundImageFix" result="effect1_dropShadow_0_1"/>
<feBlend mode="normal" in="SourceGraphic" in2="effect1_dropShadow_0_1" result="shape"/>
</filter>
<linearGradient id="paint0_linear_0_1" x1="172.935" y1="41.1697" x2="65.088" y2="-19.0865" gradientUnits="userSpaceOnUse">
<stop stop-color="#0C6271"/>
<stop offset="1" stop-color="#117D90"/>
</linearGradient>
<linearGradient id="paint1_linear_0_1" x1="42.6623" y1="35.5615" x2="42.1397" y2="35.4941" gradientUnits="userSpaceOnUse">
<stop stop-color="#0C6271"/>
<stop offset="1" stop-color="#117D90"/>
</linearGradient>
<linearGradient id="paint2_linear_0_1" x1="37.0152" y1="30.961" x2="32.3124" y2="30.3542" gradientUnits="userSpaceOnUse">
<stop stop-color="#0C6271"/>
<stop offset="1" stop-color="#117D90"/>
</linearGradient>
<linearGradient id="paint3_linear_0_1" x1="42.6623" y1="38.3911" x2="42.1397" y2="38.3237" gradientUnits="userSpaceOnUse">
<stop stop-color="#0C6271"/>
<stop offset="1" stop-color="#117D90"/>
</linearGradient>
<linearGradient id="paint4_linear_0_1" x1="46.3571" y1="37.3393" x2="31.7351" y2="35.4182" gradientUnits="userSpaceOnUse">
<stop stop-color="#0C6271"/>
<stop offset="1" stop-color="#117D90"/>
</linearGradient>
<linearGradient id="paint5_linear_0_1" x1="44.7876" y1="31.4746" x2="43.4016" y2="30.9381" gradientUnits="userSpaceOnUse">
<stop stop-color="#0C6271"/>
<stop offset="1" stop-color="#117D90"/>
</linearGradient>
<linearGradient id="paint6_linear_0_1" x1="45.8063" y1="38.3911" x2="45.2838" y2="38.3237" gradientUnits="userSpaceOnUse">
<stop stop-color="#0C6271"/>
<stop offset="1" stop-color="#117D90"/>
</linearGradient>
<linearGradient id="paint7_linear_0_1" x1="46.9998" y1="37.5054" x2="41.2118" y2="36.9389" gradientUnits="userSpaceOnUse">
<stop stop-color="#0C6271"/>
<stop offset="1" stop-color="#117D90"/>
</linearGradient>
<linearGradient id="paint8_linear_0_1" x1="45.3199" y1="33.757" x2="29.5784" y2="31.0634" gradientUnits="userSpaceOnUse">
<stop stop-color="#0C6271"/>
<stop offset="1" stop-color="#117D90"/>
</linearGradient>
<linearGradient id="paint9_linear_0_1" x1="45.8063" y1="35.5615" x2="45.2838" y2="35.4941" gradientUnits="userSpaceOnUse">
<stop stop-color="#0C6271"/>
<stop offset="1" stop-color="#117D90"/>
</linearGradient>
</defs>
</svg>
