<svg width="196" height="67" viewBox="0 0 196 67" fill="none" xmlns="http://www.w3.org/2000/svg">
<g filter="url(#filter0_d_0_1)">
<rect x="15.5029" y="13" width="167.503" height="38.6852" rx="8.77396" fill="white"/>
<rect x="15.7023" y="13.1994" width="167.104" height="38.2864" rx="8.57456" stroke="url(#paint0_linear_0_1)" stroke-width="0.398817"/>
</g>
<path d="M61.047 21.5841C61.047 22.3826 60.6609 22.9178 59.9327 23.1283C60.6083 23.2863 60.9592 23.7513 60.9592 24.4357V25.4359C60.9592 25.6991 60.9943 25.9185 61.047 26.0676H60.1257C60.0467 25.9009 59.9853 25.7079 59.9853 25.4359V24.4708C59.9853 23.6723 59.4852 23.4618 58.8184 23.4618H57.1776V26.0676H56.2037V19.8206H59.0465C60.3363 19.8206 61.047 20.4962 61.047 21.5841ZM60.073 21.6455C60.073 20.9963 59.7396 20.5576 58.9412 20.5576H57.1776V22.7247H58.9412C59.7396 22.7247 60.073 22.2948 60.073 21.6455ZM63.9021 26.1554C62.4632 26.1554 61.6648 25.2429 61.6648 23.8039C61.6648 22.4089 62.4193 21.4525 63.8495 21.4525C65.2796 21.4525 66.0342 22.4264 66.0342 23.725C66.0342 23.8127 66.0254 23.8917 66.0167 23.9794H62.5948C62.6211 25.0498 63.13 25.5149 63.9021 25.5149C64.5426 25.5149 64.9462 25.1815 65.0866 24.6638H65.9377C65.7359 25.5851 65.0778 26.1554 63.9021 26.1554ZM63.8495 22.093C63.1476 22.093 62.6913 22.5142 62.5948 23.3652H65.1042C65.0076 22.5142 64.5514 22.093 63.8495 22.093ZM68.1805 26.1554C67.1276 26.1554 66.5573 25.6289 66.5573 24.7866C66.5573 24.111 66.9697 23.5758 68.0927 23.4793L68.9701 23.4091C69.5053 23.3565 69.6633 23.2336 69.6633 22.9441C69.6633 22.4264 69.3649 22.1193 68.7069 22.1193C68.0927 22.1193 67.7593 22.3826 67.7154 22.9441H66.803C66.803 22.0316 67.3645 21.4525 68.6981 21.4525C70.023 21.4525 70.5933 22.0316 70.5933 22.9441V24.9095C70.5933 25.5236 70.6459 25.9185 70.7337 26.0676H69.9002C69.7598 25.8921 69.7071 25.7079 69.7071 25.2867C69.4615 25.8658 68.9613 26.1554 68.1805 26.1554ZM68.4349 25.5149C69.2333 25.5149 69.6633 24.8919 69.6633 24.1461V23.7601C69.5668 23.8829 69.3211 23.9531 68.9701 23.9794L68.391 24.0321C67.7418 24.0847 67.4873 24.3567 67.4873 24.7252C67.4873 25.1902 67.7681 25.5149 68.4349 25.5149ZM72.4011 26.0676H71.471V19.8206H72.4011V26.0676ZM75.5865 23.9092H73.2351V23.1985H75.5865V23.9092ZM78.3443 26.0676H77.3704V20.619H75.4314V19.8206H80.2922V20.619H78.3443V26.0676ZM81.8091 26.0676H80.8791V21.5403H81.8091V26.0676ZM81.3441 20.7506C80.9844 20.7506 80.7913 20.54 80.7913 20.2593C80.7913 19.9785 80.9844 19.7591 81.3441 19.7591C81.695 19.7591 81.8968 19.9785 81.8968 20.2593C81.8968 20.54 81.695 20.7506 81.3441 20.7506ZM88.7586 26.0676H87.8636V23.2161C87.8636 22.5317 87.6443 22.2071 87.1266 22.2071C86.5826 22.2071 86.1615 22.6897 86.1615 23.5144V26.0676H85.2665V23.2161C85.2665 22.5317 85.0472 22.2071 84.5383 22.2071C83.9943 22.2071 83.5819 22.6897 83.5819 23.5144V26.0676H82.687V21.5403H83.5732V22.3299C83.7837 21.8035 84.2049 21.4525 84.8278 21.4525C85.5034 21.4525 85.907 21.7596 86.0737 22.365C86.3019 21.7859 86.7756 21.4525 87.3986 21.4525C88.3111 21.4525 88.7586 21.979 88.7586 23.0757V26.0676ZM91.6978 26.1554C90.2588 26.1554 89.4604 25.2429 89.4604 23.8039C89.4604 22.4089 90.215 21.4525 91.6451 21.4525C93.0753 21.4525 93.8298 22.4264 93.8298 23.725C93.8298 23.8127 93.8211 23.8917 93.8123 23.9794H90.3905C90.4168 25.0498 90.9257 25.5149 91.6978 25.5149C92.3383 25.5149 92.7419 25.1815 92.8823 24.6638H93.7333C93.5315 25.5851 92.8735 26.1554 91.6978 26.1554ZM91.6451 22.093C90.9432 22.093 90.487 22.5142 90.3905 23.3652H92.8998C92.8033 22.5142 92.347 22.093 91.6451 22.093ZM99.3014 26.1554C97.5116 26.1554 96.6956 25.3218 96.6956 23.7074V19.8206H97.6695V23.6197C97.6695 24.9007 98.1696 25.3569 99.3014 25.3569C100.433 25.3569 100.933 24.9007 100.933 23.6197V19.8206H101.907V23.7074C101.907 25.3218 101.091 26.1554 99.3014 26.1554ZM105.167 26.1554C104.438 26.1554 103.947 25.8571 103.693 25.2955V27.7873H102.763V21.5403H103.649V22.3826C103.894 21.7947 104.386 21.4525 105.167 21.4525C106.386 21.4525 107.15 22.3211 107.15 23.8039C107.15 25.2867 106.386 26.1554 105.167 26.1554ZM104.956 25.4447C105.702 25.4447 106.22 24.9446 106.22 23.8039C106.22 22.6721 105.702 22.1632 104.956 22.1632C104.201 22.1632 103.693 22.6721 103.693 23.8039C103.693 24.9446 104.201 25.4447 104.956 25.4447ZM109.651 26.1554C108.431 26.1554 107.677 25.2867 107.677 23.8039C107.677 22.3211 108.431 21.4525 109.651 21.4525C110.379 21.4525 110.879 21.7508 111.134 22.3124V19.8206H112.064V26.0676H111.177V25.2341C110.923 25.8132 110.44 26.1554 109.651 26.1554ZM109.87 25.4447C110.616 25.4447 111.134 24.9446 111.134 23.8039C111.134 22.6721 110.616 22.1632 109.87 22.1632C109.116 22.1632 108.607 22.6721 108.607 23.8039C108.607 24.9446 109.116 25.4447 109.87 25.4447ZM114.389 26.1554C113.337 26.1554 112.766 25.6289 112.766 24.7866C112.766 24.111 113.179 23.5758 114.302 23.4793L115.179 23.4091C115.714 23.3565 115.872 23.2336 115.872 22.9441C115.872 22.4264 115.574 22.1193 114.916 22.1193C114.302 22.1193 113.968 22.3826 113.924 22.9441H113.012C113.012 22.0316 113.573 21.4525 114.907 21.4525C116.232 21.4525 116.802 22.0316 116.802 22.9441V24.9095C116.802 25.5236 116.855 25.9185 116.943 26.0676H116.109C115.969 25.8921 115.916 25.7079 115.916 25.2867C115.67 25.8658 115.17 26.1554 114.389 26.1554ZM114.644 25.5149C115.442 25.5149 115.872 24.8919 115.872 24.1461V23.7601C115.776 23.8829 115.53 23.9531 115.179 23.9794L114.6 24.0321C113.951 24.0847 113.696 24.3567 113.696 24.7252C113.696 25.1902 113.977 25.5149 114.644 25.5149ZM119.261 26.1115C118.314 26.1115 117.98 25.8307 117.98 24.9095V22.2071H117.243V21.5403H117.98V20.1715H118.91V21.5403H119.955V22.2071H118.91V24.9358C118.91 25.3306 119.06 25.4447 119.472 25.4447L119.955 25.4359V26.0676C119.77 26.0852 119.446 26.1115 119.261 26.1115ZM122.449 26.1554C121.011 26.1554 120.212 25.2429 120.212 23.8039C120.212 22.4089 120.967 21.4525 122.397 21.4525C123.827 21.4525 124.582 22.4264 124.582 23.725C124.582 23.8127 124.573 23.8917 124.564 23.9794H121.142C121.168 25.0498 121.677 25.5149 122.449 25.5149C123.09 25.5149 123.494 25.1815 123.634 24.6638H124.485C124.283 25.5851 123.625 26.1554 122.449 26.1554ZM122.397 22.093C121.695 22.093 121.239 22.5142 121.142 23.3652H123.652C123.555 22.5142 123.099 22.093 122.397 22.093ZM127.07 26.1554C125.649 26.1554 125.105 25.5324 125.105 24.6638H126C126.043 25.1815 126.272 25.5324 127.079 25.5324C127.868 25.5324 128.105 25.1902 128.105 24.8042C128.105 24.4444 127.842 24.2602 127.412 24.1988L126.579 24.0759C125.631 23.9443 125.227 23.6109 125.227 22.8564C125.227 22.0755 125.719 21.4525 127.07 21.4525C128.421 21.4525 128.913 22.0755 128.913 22.8739H128.018C127.974 22.4528 127.833 22.0755 127.061 22.0755C126.403 22.0755 126.158 22.3475 126.158 22.7862C126.158 23.1547 126.368 23.2863 126.719 23.3389L127.553 23.4618C128.474 23.5934 129.035 23.9268 129.035 24.7515C129.035 25.5324 128.491 26.1554 127.07 26.1554ZM57.2315 37.1171C56.3019 37.1171 55.8668 36.7166 55.8668 35.965H56.2673C56.3316 36.5188 56.559 36.7907 57.2414 36.7907C57.9089 36.7907 58.171 36.5089 58.171 36.054C58.171 35.782 58.0227 35.5793 57.4441 35.4952L56.9101 35.4161C56.1981 35.3073 55.9558 35.0453 55.9558 34.5508C55.9558 33.9278 56.3662 33.4976 57.2315 33.4976C58.0968 33.4976 58.5072 33.9129 58.5072 34.6002H58.1166C58.0573 34.081 57.815 33.8239 57.2216 33.8239C56.6431 33.8239 56.381 34.0959 56.381 34.5261C56.381 34.8178 56.5145 34.981 57.0337 35.0601L57.5678 35.1392C58.2452 35.2381 58.5963 35.5002 58.5963 36.0342C58.5963 36.7067 58.1611 37.1171 57.2315 37.1171ZM59.0569 38.0368V37.7401H59.2547C59.5514 37.7401 59.7343 37.5769 59.8777 37.2061L58.8245 34.5162H59.2498L60.0607 36.7264L60.8815 34.5162H61.3068L60.2634 37.1566C59.9915 37.839 59.7343 38.0368 59.2547 38.0368H59.0569ZM63.7213 37.0676H63.3109V35.4458C63.3109 35.0205 63.1576 34.798 62.7472 34.798C62.322 34.798 62.0451 35.1293 62.0451 35.6436V37.0676H61.6347V34.5162H62.0253V34.9859C62.1687 34.6695 62.4308 34.4667 62.861 34.4667C63.4444 34.4667 63.7213 34.7634 63.7213 35.3815V37.0676ZM65.3398 37.1171C64.5833 37.1171 64.1482 36.6127 64.1482 35.7919C64.1482 34.976 64.5833 34.4667 65.3398 34.4667C66.1211 34.4667 66.4524 34.976 66.4524 35.426H66.0815C66.0321 35.0898 65.8244 34.7832 65.3398 34.7832C64.8553 34.7832 64.5586 35.1244 64.5586 35.7919C64.5586 36.4594 64.8553 36.8006 65.3398 36.8006C65.7651 36.8006 66.0222 36.5682 66.0815 36.138H66.4524C66.4524 36.6374 66.0914 37.1171 65.3398 37.1171ZM68.9171 37.0676H68.5067V35.4458C68.5067 35.0205 68.3534 34.798 67.943 34.798C67.5178 34.798 67.2409 35.1293 67.2409 35.6436V37.0676H66.8305V33.547H67.2409V34.9612C67.3793 34.6546 67.6414 34.4667 68.0567 34.4667C68.6402 34.4667 68.9171 34.7634 68.9171 35.3815V37.0676ZM69.8532 37.0676H69.4428V34.5162H69.8335V35.1194C69.9719 34.6744 70.2043 34.4914 70.5851 34.4914C70.6543 34.4914 70.7433 34.5013 70.8175 34.5162V34.8722L70.5702 34.8623C70.1351 34.8623 69.8532 35.2084 69.8532 35.8364V37.0676ZM72.1684 37.1171C71.3822 37.1171 70.9471 36.6127 70.9471 35.7919C70.9471 34.976 71.3822 34.4667 72.1684 34.4667C72.9596 34.4667 73.3947 34.976 73.3947 35.7919C73.3947 36.6127 72.9596 37.1171 72.1684 37.1171ZM72.1684 36.8006C72.6876 36.8006 72.9843 36.4594 72.9843 35.7919C72.9843 35.1244 72.6876 34.7832 72.1684 34.7832C71.6542 34.7832 71.3575 35.1244 71.3575 35.7919C71.3575 36.4594 71.6542 36.8006 72.1684 36.8006ZM75.9044 37.0676H75.494V35.4458C75.494 35.0205 75.3407 34.798 74.9303 34.798C74.505 34.798 74.2281 35.1293 74.2281 35.6436V37.0676H73.8177V34.5162H74.2084V34.9859C74.3518 34.6695 74.6138 34.4667 75.044 34.4667C75.6275 34.4667 75.9044 34.7634 75.9044 35.3815V37.0676ZM76.8405 37.0676H76.4301V34.5162H76.8405V37.0676ZM76.6328 34.0069C76.4697 34.0069 76.3807 33.908 76.3807 33.7794C76.3807 33.6509 76.4697 33.552 76.6328 33.552C76.796 33.552 76.89 33.6509 76.89 33.7794C76.89 33.908 76.796 34.0069 76.6328 34.0069ZM79.1865 37.0676H77.2334V36.7858L78.6673 34.8129H77.2828V34.5162H79.1371V34.798L77.7081 36.7709H79.1865V37.0676ZM80.7057 37.1171C79.9195 37.1171 79.4844 36.6127 79.4844 35.7919C79.4844 35.0057 79.8899 34.4667 80.6761 34.4667C81.4672 34.4667 81.8727 35.0205 81.8727 35.7326C81.8727 35.7721 81.8727 35.8166 81.8628 35.8562H79.8948C79.9047 36.5484 80.2311 36.8303 80.7057 36.8303C81.1162 36.8303 81.3634 36.6127 81.4524 36.2913H81.8183C81.6996 36.8006 81.3486 37.1171 80.7057 37.1171ZM80.6761 34.7535C80.236 34.7535 79.9492 35.0255 79.8948 35.5793H81.4623C81.4079 35.0255 81.1162 34.7535 80.6761 34.7535ZM84.4876 37.1171C83.7113 37.1171 83.4344 36.766 83.4344 36.2913H83.825C83.8497 36.6078 83.9783 36.8352 84.4925 36.8352C85.0018 36.8352 85.1353 36.6078 85.1353 36.3605C85.1353 36.1281 84.9771 36.0144 84.715 35.9749L84.2156 35.9007C83.736 35.8315 83.5036 35.6534 83.5036 35.243C83.5036 34.8178 83.7459 34.4667 84.4876 34.4667C85.2342 34.4667 85.4765 34.8178 85.4765 35.2529H85.0859C85.0612 34.9909 84.982 34.7486 84.4876 34.7486C84.0673 34.7486 83.914 34.9216 83.914 35.2134C83.914 35.4606 84.0524 35.5397 84.27 35.5694L84.7744 35.6436C85.2491 35.7128 85.5457 35.8957 85.5457 36.3408C85.5457 36.766 85.2688 37.1171 84.4876 37.1171ZM86.7778 37.1171C86.1993 37.1171 85.8729 36.8204 85.8729 36.3457C85.8729 35.9699 86.1102 35.6782 86.7333 35.6238L87.203 35.5842C87.5492 35.5546 87.648 35.4804 87.648 35.2925C87.648 34.9661 87.4651 34.7634 87.0399 34.7634C86.6443 34.7634 86.4366 34.9315 86.4069 35.2925H86.0114C86.0114 34.7881 86.3229 34.4667 87.0349 34.4667C87.7469 34.4667 88.0585 34.7881 88.0585 35.2925V36.4149C88.0585 36.7611 88.0881 36.9836 88.1376 37.0676H87.7766C87.6975 36.9588 87.6678 36.855 87.6678 36.583C87.5294 36.9391 87.2277 37.1171 86.7778 37.1171ZM86.8866 36.8303C87.3909 36.8303 87.648 36.4298 87.648 35.9551V35.7029C87.5887 35.782 87.4305 35.8315 87.203 35.8512L86.852 35.8809C86.4465 35.9106 86.2833 36.0836 86.2833 36.321C86.2833 36.6127 86.4613 36.8303 86.8866 36.8303ZM88.9946 37.0676H88.5842V33.547H88.9946V37.0676ZM90.6434 37.1171C89.8572 37.1171 89.4221 36.6127 89.4221 35.7919C89.4221 35.0057 89.8275 34.4667 90.6137 34.4667C91.4049 34.4667 91.8103 35.0205 91.8103 35.7326C91.8103 35.7721 91.8103 35.8166 91.8005 35.8562H89.8325C89.8424 36.5484 90.1687 36.8303 90.6434 36.8303C91.0538 36.8303 91.301 36.6127 91.3901 36.2913H91.756C91.6373 36.8006 91.2862 37.1171 90.6434 37.1171ZM90.6137 34.7535C90.1737 34.7535 89.8869 35.0255 89.8325 35.5793H91.3999C91.3455 35.0255 91.0538 34.7535 90.6137 34.7535ZM93.1891 37.1171C92.4128 37.1171 92.1358 36.766 92.1358 36.2913H92.5265C92.5512 36.6078 92.6798 36.8352 93.194 36.8352C93.7033 36.8352 93.8368 36.6078 93.8368 36.3605C93.8368 36.1281 93.6786 36.0144 93.4165 35.9749L92.9171 35.9007C92.4375 35.8315 92.2051 35.6534 92.2051 35.243C92.2051 34.8178 92.4474 34.4667 93.1891 34.4667C93.9357 34.4667 94.178 34.8178 94.178 35.2529H93.7874C93.7627 34.9909 93.6835 34.7486 93.1891 34.7486C92.7688 34.7486 92.6155 34.9216 92.6155 35.2134C92.6155 35.4606 92.7539 35.5397 92.9715 35.5694L93.4759 35.6436C93.9505 35.7128 94.2472 35.8957 94.2472 36.3408C94.2472 36.766 93.9703 37.1171 93.1891 37.1171ZM96.9182 37.1171C96.2309 37.1171 95.8106 36.6276 95.8106 35.7919C95.8106 34.9562 96.2309 34.4667 96.9182 34.4667C97.3533 34.4667 97.6549 34.6447 97.7983 35.0007V33.547H98.2087V37.0676H97.8181V36.5583C97.6747 36.9193 97.3731 37.1171 96.9182 37.1171ZM97.0072 36.8006C97.4769 36.8006 97.7983 36.4891 97.7983 35.7919C97.7983 35.0947 97.4769 34.7832 97.0072 34.7832C96.5424 34.7832 96.221 35.0947 96.221 35.7919C96.221 36.4891 96.5424 36.8006 97.0072 36.8006ZM99.5403 37.1171C98.9618 37.1171 98.6354 36.8204 98.6354 36.3457C98.6354 35.9699 98.8727 35.6782 99.4958 35.6238L99.9655 35.5842C100.312 35.5546 100.411 35.4804 100.411 35.2925C100.411 34.9661 100.228 34.7634 99.8023 34.7634C99.4068 34.7634 99.1991 34.9315 99.1694 35.2925H98.7739C98.7739 34.7881 99.0854 34.4667 99.7974 34.4667C100.509 34.4667 100.821 34.7881 100.821 35.2925V36.4149C100.821 36.7611 100.851 36.9836 100.9 37.0676H100.539C100.46 36.9588 100.43 36.855 100.43 36.583C100.292 36.9391 99.9902 37.1171 99.5403 37.1171ZM99.6491 36.8303C100.153 36.8303 100.411 36.4298 100.411 35.9551V35.7029C100.351 35.782 100.193 35.8315 99.9655 35.8512L99.6145 35.8809C99.209 35.9106 99.0458 36.0836 99.0458 36.321C99.0458 36.6127 99.2238 36.8303 99.6491 36.8303ZM102.193 37.0924C101.704 37.0924 101.521 36.949 101.521 36.4743V34.8129H101.086V34.5162H101.521V33.7448H101.931V34.5162H102.544V34.8129H101.931V36.4842C101.931 36.7314 102.015 36.7907 102.277 36.7907L102.544 36.7808V37.0676C102.446 37.0775 102.282 37.0924 102.193 37.0924ZM103.741 37.1171C103.163 37.1171 102.836 36.8204 102.836 36.3457C102.836 35.9699 103.074 35.6782 103.697 35.6238L104.167 35.5842C104.513 35.5546 104.612 35.4804 104.612 35.2925C104.612 34.9661 104.429 34.7634 104.003 34.7634C103.608 34.7634 103.4 34.9315 103.37 35.2925H102.975C102.975 34.7881 103.286 34.4667 103.998 34.4667C104.71 34.4667 105.022 34.7881 105.022 35.2925V36.4149C105.022 36.7611 105.052 36.9836 105.101 37.0676H104.74C104.661 36.9588 104.631 36.855 104.631 36.583C104.493 36.9391 104.191 37.1171 103.741 37.1171ZM103.85 36.8303C104.354 36.8303 104.612 36.4298 104.612 35.9551V35.7029C104.552 35.782 104.394 35.8315 104.167 35.8512L103.816 35.8809C103.41 35.9106 103.247 36.0836 103.247 36.321C103.247 36.6127 103.425 36.8303 103.85 36.8303ZM107.59 37.1171C107.011 37.1171 106.685 36.8204 106.685 36.3457C106.685 35.9699 106.922 35.6782 107.545 35.6238L108.015 35.5842C108.361 35.5546 108.46 35.4804 108.46 35.2925C108.46 34.9661 108.277 34.7634 107.852 34.7634C107.456 34.7634 107.249 34.9315 107.219 35.2925H106.823C106.823 34.7881 107.135 34.4667 107.847 34.4667C108.559 34.4667 108.871 34.7881 108.871 35.2925V36.4149C108.871 36.7611 108.9 36.9836 108.95 37.0676H108.589C108.51 36.9588 108.48 36.855 108.48 36.583C108.341 36.9391 108.04 37.1171 107.59 37.1171ZM107.699 36.8303C108.203 36.8303 108.46 36.4298 108.46 35.9551V35.7029C108.401 35.782 108.243 35.8315 108.015 35.8512L107.664 35.8809C107.259 35.9106 107.095 36.0836 107.095 36.321C107.095 36.6127 107.273 36.8303 107.699 36.8303ZM110.252 37.1171C109.668 37.1171 109.396 36.8204 109.396 36.2023V34.5162H109.807V36.138C109.807 36.5633 109.96 36.7858 110.37 36.7858C110.796 36.7858 111.073 36.4545 111.073 35.9402V34.5162H111.483V37.0676H111.092V36.5979C110.949 36.9143 110.687 37.1171 110.252 37.1171ZM112.904 37.0924C112.414 37.0924 112.231 36.949 112.231 36.4743V34.8129H111.796V34.5162H112.231V33.7448H112.642V34.5162H113.255V34.8129H112.642V36.4842C112.642 36.7314 112.726 36.7907 112.988 36.7907L113.255 36.7808V37.0676C113.156 37.0775 112.993 37.0924 112.904 37.0924ZM114.623 37.1171C113.837 37.1171 113.402 36.6127 113.402 35.7919C113.402 34.976 113.837 34.4667 114.623 34.4667C115.414 34.4667 115.849 34.976 115.849 35.7919C115.849 36.6127 115.414 37.1171 114.623 37.1171ZM114.623 36.8006C115.142 36.8006 115.439 36.4594 115.439 35.7919C115.439 35.1244 115.142 34.7832 114.623 34.7832C114.109 34.7832 113.812 35.1244 113.812 35.7919C113.812 36.4594 114.109 36.8006 114.623 36.8006ZM119.595 37.0676H119.2V35.4359C119.2 35.0106 119.071 34.798 118.73 34.798C118.384 34.798 118.122 35.1194 118.122 35.6337V37.0676H117.731V35.4359C117.731 35.0106 117.598 34.798 117.266 34.798C116.92 34.798 116.668 35.1194 116.668 35.6337V37.0676H116.272V34.5162H116.663V34.9859C116.782 34.6695 117.034 34.4667 117.385 34.4667C117.776 34.4667 118.003 34.6497 118.087 35.0156C118.216 34.6546 118.493 34.4667 118.844 34.4667C119.353 34.4667 119.595 34.7634 119.595 35.3815V37.0676ZM120.927 37.1171C120.348 37.1171 120.022 36.8204 120.022 36.3457C120.022 35.9699 120.259 35.6782 120.882 35.6238L121.352 35.5842C121.698 35.5546 121.797 35.4804 121.797 35.2925C121.797 34.9661 121.614 34.7634 121.189 34.7634C120.793 34.7634 120.586 34.9315 120.556 35.2925H120.161C120.161 34.7881 120.472 34.4667 121.184 34.4667C121.896 34.4667 122.208 34.7881 122.208 35.2925V36.4149C122.208 36.7611 122.237 36.9836 122.287 37.0676H121.926C121.847 36.9588 121.817 36.855 121.817 36.583C121.679 36.9391 121.377 37.1171 120.927 37.1171ZM121.036 36.8303C121.54 36.8303 121.797 36.4298 121.797 35.9551V35.7029C121.738 35.782 121.58 35.8315 121.352 35.8512L121.001 35.8809C120.596 35.9106 120.433 36.0836 120.433 36.321C120.433 36.6127 120.611 36.8303 121.036 36.8303ZM123.58 37.0924C123.091 37.0924 122.908 36.949 122.908 36.4743V34.8129H122.472V34.5162H122.908V33.7448H123.318V34.5162H123.931V34.8129H123.318V36.4842C123.318 36.7314 123.402 36.7907 123.664 36.7907L123.931 36.7808V37.0676C123.832 37.0775 123.669 37.0924 123.58 37.0924ZM124.732 37.0676H124.322V34.5162H124.732V37.0676ZM124.525 34.0069C124.362 34.0069 124.273 33.908 124.273 33.7794C124.273 33.6509 124.362 33.552 124.525 33.552C124.688 33.552 124.782 33.6509 124.782 33.7794C124.782 33.908 124.688 34.0069 124.525 34.0069ZM126.352 37.1171C125.595 37.1171 125.16 36.6127 125.16 35.7919C125.16 34.976 125.595 34.4667 126.352 34.4667C127.133 34.4667 127.464 34.976 127.464 35.426H127.093C127.044 35.0898 126.836 34.7832 126.352 34.7832C125.867 34.7832 125.57 35.1244 125.57 35.7919C125.57 36.4594 125.867 36.8006 126.352 36.8006C126.777 36.8006 127.034 36.5682 127.093 36.138H127.464C127.464 36.6374 127.103 37.1171 126.352 37.1171ZM128.648 37.1171C128.07 37.1171 127.743 36.8204 127.743 36.3457C127.743 35.9699 127.981 35.6782 128.604 35.6238L129.073 35.5842C129.42 35.5546 129.519 35.4804 129.519 35.2925C129.519 34.9661 129.336 34.7634 128.91 34.7634C128.515 34.7634 128.307 34.9315 128.277 35.2925H127.882C127.882 34.7881 128.193 34.4667 128.905 34.4667C129.617 34.4667 129.929 34.7881 129.929 35.2925V36.4149C129.929 36.7611 129.959 36.9836 130.008 37.0676H129.647C129.568 36.9588 129.538 36.855 129.538 36.583C129.4 36.9391 129.098 37.1171 128.648 37.1171ZM128.757 36.8303C129.261 36.8303 129.519 36.4298 129.519 35.9551V35.7029C129.459 35.782 129.301 35.8315 129.073 35.8512L128.722 35.8809C128.317 35.9106 128.154 36.0836 128.154 36.321C128.154 36.6127 128.332 36.8303 128.757 36.8303ZM130.865 37.0676H130.455V33.547H130.865V37.0676ZM131.802 37.0676H131.391V33.547H131.802V37.0676ZM132.363 38.0368V37.7401H132.561C132.857 37.7401 133.04 37.5769 133.184 37.2061L132.13 34.5162H132.556L133.367 36.7264L134.187 34.5162H134.613L133.569 37.1566C133.297 37.839 133.04 38.0368 132.561 38.0368H132.363ZM137.299 37.1171C136.513 37.1171 136.078 36.6127 136.078 35.7919C136.078 35.0057 136.483 34.4667 137.27 34.4667C138.061 34.4667 138.466 35.0205 138.466 35.7326C138.466 35.7721 138.466 35.8166 138.456 35.8562H136.488C136.498 36.5484 136.825 36.8303 137.299 36.8303C137.71 36.8303 137.957 36.6127 138.046 36.2913H138.412C138.293 36.8006 137.942 37.1171 137.299 37.1171ZM137.27 34.7535C136.829 34.7535 136.543 35.0255 136.488 35.5793H138.056C138.001 35.0255 137.71 34.7535 137.27 34.7535ZM140.031 37.0676H139.537L138.543 34.5162H138.968L139.784 36.6968L140.6 34.5162H141.025L140.031 37.0676ZM142.326 37.1171C141.54 37.1171 141.105 36.6127 141.105 35.7919C141.105 35.0057 141.51 34.4667 142.296 34.4667C143.087 34.4667 143.493 35.0205 143.493 35.7326C143.493 35.7721 143.493 35.8166 143.483 35.8562H141.515C141.525 36.5484 141.851 36.8303 142.326 36.8303C142.736 36.8303 142.984 36.6127 143.073 36.2913H143.439C143.32 36.8006 142.969 37.1171 142.326 37.1171ZM142.296 34.7535C141.856 34.7535 141.569 35.0255 141.515 35.5793H143.083C143.028 35.0255 142.736 34.7535 142.296 34.7535ZM144.328 37.0676H143.917V34.5162H144.308V35.1194C144.446 34.6744 144.679 34.4914 145.06 34.4914C145.129 34.4914 145.218 34.5013 145.292 34.5162V34.8722L145.045 34.8623C144.61 34.8623 144.328 35.2084 144.328 35.8364V37.0676ZM145.685 38.0368V37.7401H145.883C146.18 37.7401 146.363 37.5769 146.506 37.2061L145.453 34.5162H145.878L146.689 36.7264L147.51 34.5162H147.935L146.892 37.1566C146.62 37.839 146.363 38.0368 145.883 38.0368H145.685ZM150.647 37.1171C149.826 37.1171 149.45 36.6226 149.45 36.1776H149.836C149.87 36.4446 150.093 36.8006 150.647 36.8006C151.136 36.8006 151.487 36.499 151.487 35.9551C151.487 35.4062 151.136 35.1046 150.647 35.1046C150.132 35.1046 149.92 35.4112 149.85 35.6831H149.47L149.766 33.547H151.695V33.8783H150.103L149.93 35.1194C150.113 34.8771 150.409 34.803 150.691 34.803C151.408 34.803 151.893 35.1985 151.893 35.9452C151.893 36.6869 151.408 37.1171 150.647 37.1171ZM158.115 37.0676H157.719V35.4359C157.719 35.0106 157.59 34.798 157.249 34.798C156.903 34.798 156.641 35.1194 156.641 35.6337V37.0676H156.25V35.4359C156.25 35.0106 156.117 34.798 155.786 34.798C155.44 34.798 155.187 35.1194 155.187 35.6337V37.0676H154.792V34.5162H155.182V34.9859C155.301 34.6695 155.553 34.4667 155.904 34.4667C156.295 34.4667 156.522 34.6497 156.606 35.0156C156.735 34.6546 157.012 34.4667 157.363 34.4667C157.872 34.4667 158.115 34.7634 158.115 35.3815V37.0676ZM159.051 37.0676H158.64V34.5162H159.051V37.0676ZM158.843 34.0069C158.68 34.0069 158.591 33.908 158.591 33.7794C158.591 33.6509 158.68 33.552 158.843 33.552C159.006 33.552 159.1 33.6509 159.1 33.7794C159.1 33.908 159.006 34.0069 158.843 34.0069ZM161.664 37.0676H161.253V35.4458C161.253 35.0205 161.1 34.798 160.69 34.798C160.264 34.798 159.987 35.1293 159.987 35.6436V37.0676H159.577V34.5162H159.968V34.9859C160.111 34.6695 160.373 34.4667 160.803 34.4667C161.387 34.4667 161.664 34.7634 161.664 35.3815V37.0676ZM163.045 37.1171C162.461 37.1171 162.189 36.8204 162.189 36.2023V34.5162H162.6V36.138C162.6 36.5633 162.753 36.7858 163.164 36.7858C163.589 36.7858 163.866 36.4545 163.866 35.9402V34.5162H164.276V37.0676H163.885V36.5979C163.742 36.9143 163.48 37.1171 163.045 37.1171ZM165.697 37.0924C165.207 37.0924 165.024 36.949 165.024 36.4743V34.8129H164.589V34.5162H165.024V33.7448H165.435V34.5162H166.048V34.8129H165.435V36.4842C165.435 36.7314 165.519 36.7907 165.781 36.7907L166.048 36.7808V37.0676C165.949 37.0775 165.786 37.0924 165.697 37.0924ZM167.416 37.1171C166.63 37.1171 166.195 36.6127 166.195 35.7919C166.195 35.0057 166.6 34.4667 167.387 34.4667C168.178 34.4667 168.583 35.0205 168.583 35.7326C168.583 35.7721 168.583 35.8166 168.573 35.8562H166.605C166.615 36.5484 166.942 36.8303 167.416 36.8303C167.827 36.8303 168.074 36.6127 168.163 36.2913H168.529C168.41 36.8006 168.059 37.1171 167.416 37.1171ZM167.387 34.7535C166.947 34.7535 166.66 35.0255 166.605 35.5793H168.173C168.119 35.0255 167.827 34.7535 167.387 34.7535ZM169.962 37.1171C169.186 37.1171 168.909 36.766 168.909 36.2913H169.299C169.324 36.6078 169.453 36.8352 169.967 36.8352C170.476 36.8352 170.61 36.6078 170.61 36.3605C170.61 36.1281 170.452 36.0144 170.189 35.9749L169.69 35.9007C169.21 35.8315 168.978 35.6534 168.978 35.243C168.978 34.8178 169.22 34.4667 169.962 34.4667C170.709 34.4667 170.951 34.8178 170.951 35.2529H170.56C170.536 34.9909 170.457 34.7486 169.962 34.7486C169.542 34.7486 169.388 34.9216 169.388 35.2134C169.388 35.4606 169.527 35.5397 169.744 35.5694L170.249 35.6436C170.724 35.7128 171.02 35.8957 171.02 36.3408C171.02 36.766 170.743 37.1171 169.962 37.1171ZM56.7717 43.1171C56.1931 43.1171 55.8668 42.8204 55.8668 42.3457C55.8668 41.9699 56.1041 41.6782 56.7272 41.6238L57.1969 41.5842C57.543 41.5546 57.6419 41.4804 57.6419 41.2925C57.6419 40.9661 57.459 40.7634 57.0337 40.7634C56.6382 40.7634 56.4305 40.9315 56.4008 41.2925H56.0052C56.0052 40.7881 56.3168 40.4667 57.0288 40.4667C57.7408 40.4667 58.0523 40.7881 58.0523 41.2925V42.4149C58.0523 42.7611 58.082 42.9836 58.1315 43.0676H57.7705C57.6914 42.9588 57.6617 42.855 57.6617 42.583C57.5233 42.9391 57.2216 43.1171 56.7717 43.1171ZM56.8804 42.8303C57.3848 42.8303 57.6419 42.4298 57.6419 41.9551V41.7029C57.5826 41.782 57.4244 41.8315 57.1969 41.8512L56.8458 41.8809C56.4404 41.9106 56.2772 42.0836 56.2772 42.321C56.2772 42.6127 56.4552 42.8303 56.8804 42.8303ZM59.6708 43.1171C58.9143 43.1171 58.4792 42.6127 58.4792 41.7919C58.4792 40.976 58.9143 40.4667 59.6708 40.4667C60.4521 40.4667 60.7834 40.976 60.7834 41.426H60.4125C60.3631 41.0898 60.1554 40.7832 59.6708 40.7832C59.1863 40.7832 58.8896 41.1244 58.8896 41.7919C58.8896 42.4594 59.1863 42.8006 59.6708 42.8006C60.0961 42.8006 60.3532 42.5682 60.4125 42.138H60.7834C60.7834 42.6374 60.4224 43.1171 59.6708 43.1171ZM61.5719 43.0676H61.1615V40.5162H61.5521V41.1194C61.6905 40.6744 61.9229 40.4914 62.3037 40.4914C62.3729 40.4914 62.4619 40.5013 62.5361 40.5162V40.8722L62.2889 40.8623C61.8537 40.8623 61.5719 41.2084 61.5719 41.8364V43.0676ZM63.8871 43.1171C63.1009 43.1171 62.6657 42.6127 62.6657 41.7919C62.6657 40.976 63.1009 40.4667 63.8871 40.4667C64.6782 40.4667 65.1133 40.976 65.1133 41.7919C65.1133 42.6127 64.6782 43.1171 63.8871 43.1171ZM63.8871 42.8006C64.4063 42.8006 64.7029 42.4594 64.7029 41.7919C64.7029 41.1244 64.4063 40.7832 63.8871 40.7832C63.3728 40.7832 63.0761 41.1244 63.0761 41.7919C63.0761 42.4594 63.3728 42.8006 63.8871 42.8006ZM66.4907 43.1171C65.7144 43.1171 65.4375 42.766 65.4375 42.2913H65.8281C65.8528 42.6078 65.9814 42.8352 66.4956 42.8352C67.0049 42.8352 67.1384 42.6078 67.1384 42.3605C67.1384 42.1281 66.9802 42.0144 66.7181 41.9749L66.2187 41.9007C65.7391 41.8315 65.5067 41.6534 65.5067 41.243C65.5067 40.8178 65.749 40.4667 66.4907 40.4667C67.2373 40.4667 67.4796 40.8178 67.4796 41.2529H67.089C67.0643 40.9909 66.9851 40.7486 66.4907 40.7486C66.0704 40.7486 65.9171 40.9216 65.9171 41.2134C65.9171 41.4606 66.0555 41.5397 66.2731 41.5694L66.7775 41.6436C67.2522 41.7128 67.5488 41.8957 67.5488 42.3408C67.5488 42.766 67.2719 43.1171 66.4907 43.1171ZM68.9292 43.1171C68.1529 43.1171 67.876 42.766 67.876 42.2913H68.2666C68.2913 42.6078 68.4199 42.8352 68.9342 42.8352C69.4435 42.8352 69.577 42.6078 69.577 42.3605C69.577 42.1281 69.4187 42.0144 69.1567 41.9749L68.6573 41.9007C68.1776 41.8315 67.9452 41.6534 67.9452 41.243C67.9452 40.8178 68.1875 40.4667 68.9292 40.4667C69.6759 40.4667 69.9181 40.8178 69.9181 41.2529H69.5275C69.5028 40.9909 69.4237 40.7486 68.9292 40.7486C68.5089 40.7486 68.3556 40.9216 68.3556 41.2134C68.3556 41.4606 68.4941 41.5397 68.7116 41.5694L69.216 41.6436C69.6907 41.7128 69.9874 41.8957 69.9874 42.3408C69.9874 42.766 69.7105 43.1171 68.9292 43.1171ZM72.4556 43.1171C71.8771 43.1171 71.5507 42.8204 71.5507 42.3457C71.5507 41.9699 71.7881 41.6782 72.4111 41.6238L72.8808 41.5842C73.227 41.5546 73.3258 41.4804 73.3258 41.2925C73.3258 40.9661 73.1429 40.7634 72.7177 40.7634C72.3221 40.7634 72.1144 40.9315 72.0847 41.2925H71.6892C71.6892 40.7881 72.0007 40.4667 72.7127 40.4667C73.4247 40.4667 73.7363 40.7881 73.7363 41.2925V42.4149C73.7363 42.7611 73.7659 42.9836 73.8154 43.0676H73.4544C73.3753 42.9588 73.3456 42.855 73.3456 42.583C73.2072 42.9391 72.9055 43.1171 72.4556 43.1171ZM72.5644 42.8303C73.0687 42.8303 73.3258 42.4298 73.3258 41.9551V41.7029C73.2665 41.782 73.1083 41.8315 72.8808 41.8512L72.5298 41.8809C72.1243 41.9106 71.9611 42.0836 71.9611 42.321C71.9611 42.6127 72.1391 42.8303 72.5644 42.8303ZM74.6724 43.0676H74.262V39.547H74.6724V43.0676ZM75.6092 43.0676H75.1988V39.547H75.6092V43.0676ZM77.4063 44.0368V43.7401H77.6041C77.9008 43.7401 78.0838 43.5769 78.2271 43.2061L77.1739 40.5162H77.5992L78.4101 42.7264L79.2309 40.5162H79.6562L78.6128 43.1566C78.3409 43.839 78.0838 44.0368 77.6041 44.0368H77.4063ZM80.9568 43.1171C80.1706 43.1171 79.7355 42.6127 79.7355 41.7919C79.7355 40.976 80.1706 40.4667 80.9568 40.4667C81.748 40.4667 82.1831 40.976 82.1831 41.7919C82.1831 42.6127 81.748 43.1171 80.9568 43.1171ZM80.9568 42.8006C81.476 42.8006 81.7727 42.4594 81.7727 41.7919C81.7727 41.1244 81.476 40.7832 80.9568 40.7832C80.4426 40.7832 80.1459 41.1244 80.1459 41.7919C80.1459 42.4594 80.4426 42.8006 80.9568 42.8006ZM83.4616 43.1171C82.8781 43.1171 82.6061 42.8204 82.6061 42.2023V40.5162H83.0165V42.138C83.0165 42.5633 83.1698 42.7858 83.5802 42.7858C84.0055 42.7858 84.2824 42.4545 84.2824 41.9402V40.5162H84.6928V43.0676H84.3022V42.5979C84.1588 42.9143 83.8967 43.1171 83.4616 43.1171ZM85.6289 43.0676H85.2185V40.5162H85.6091V41.1194C85.7476 40.6744 85.98 40.4914 86.3607 40.4914C86.43 40.4914 86.519 40.5013 86.5931 40.5162V40.8722L86.3459 40.8623C85.9108 40.8623 85.6289 41.2084 85.6289 41.8364V43.0676ZM89.4788 43.1171C89.0189 43.1171 88.7222 42.9193 88.5788 42.5583V43.0676H88.1882V39.547H88.5986V41.0007C88.742 40.6447 89.0436 40.4667 89.4788 40.4667C90.1661 40.4667 90.5864 40.9562 90.5864 41.7919C90.5864 42.6276 90.1661 43.1171 89.4788 43.1171ZM89.3848 42.8006C89.8546 42.8006 90.176 42.4891 90.176 41.7919C90.176 41.0947 89.8546 40.7832 89.3848 40.7832C88.92 40.7832 88.5986 41.0947 88.5986 41.7919C88.5986 42.4891 88.92 42.8006 89.3848 42.8006ZM91.8685 43.1171C91.285 43.1171 91.0131 42.8204 91.0131 42.2023V40.5162H91.4235V42.138C91.4235 42.5633 91.5768 42.7858 91.9872 42.7858C92.4124 42.7858 92.6893 42.4545 92.6893 41.9402V40.5162H93.0997V43.0676H92.7091V42.5979C92.5657 42.9143 92.3036 43.1171 91.8685 43.1171ZM94.5798 43.1171C93.8034 43.1171 93.5265 42.766 93.5265 42.2913H93.9172C93.9419 42.6078 94.0705 42.8352 94.5847 42.8352C95.094 42.8352 95.2275 42.6078 95.2275 42.3605C95.2275 42.1281 95.0693 42.0144 94.8072 41.9749L94.3078 41.9007C93.8282 41.8315 93.5958 41.6534 93.5958 41.243C93.5958 40.8178 93.8381 40.4667 94.5798 40.4667C95.3264 40.4667 95.5687 40.8178 95.5687 41.2529H95.1781C95.1533 40.9909 95.0742 40.7486 94.5798 40.7486C94.1595 40.7486 94.0062 40.9216 94.0062 41.2134C94.0062 41.4606 94.1446 41.5397 94.3622 41.5694L94.8665 41.6436C95.3412 41.7128 95.6379 41.8957 95.6379 42.3408C95.6379 42.766 95.361 43.1171 94.5798 43.1171ZM96.4744 43.0676H96.064V40.5162H96.4744V43.0676ZM96.2667 40.0069C96.1035 40.0069 96.0145 39.908 96.0145 39.7794C96.0145 39.6509 96.1035 39.552 96.2667 39.552C96.4299 39.552 96.5238 39.6509 96.5238 39.7794C96.5238 39.908 96.4299 40.0069 96.2667 40.0069ZM99.0874 43.0676H98.677V41.4458C98.677 41.0205 98.5237 40.798 98.1133 40.798C97.6881 40.798 97.4112 41.1293 97.4112 41.6436V43.0676H97.0008V40.5162H97.3914V40.9859C97.5348 40.6695 97.7969 40.4667 98.227 40.4667C98.8105 40.4667 99.0874 40.7634 99.0874 41.3815V43.0676ZM100.736 43.1171C99.9494 43.1171 99.5142 42.6127 99.5142 41.7919C99.5142 41.0057 99.9197 40.4667 100.706 40.4667C101.497 40.4667 101.903 41.0205 101.903 41.7326C101.903 41.7721 101.903 41.8166 101.893 41.8562H99.9246C99.9345 42.5484 100.261 42.8303 100.736 42.8303C101.146 42.8303 101.393 42.6127 101.482 42.2913H101.848C101.729 42.8006 101.378 43.1171 100.736 43.1171ZM100.706 40.7535C100.266 40.7535 99.979 41.0255 99.9246 41.5793H101.492C101.438 41.0255 101.146 40.7535 100.706 40.7535ZM103.281 43.1171C102.505 43.1171 102.228 42.766 102.228 42.2913H102.619C102.643 42.6078 102.772 42.8352 103.286 42.8352C103.795 42.8352 103.929 42.6078 103.929 42.3605C103.929 42.1281 103.771 42.0144 103.509 41.9749L103.009 41.9007C102.53 41.8315 102.297 41.6534 102.297 41.243C102.297 40.8178 102.54 40.4667 103.281 40.4667C104.028 40.4667 104.27 40.8178 104.27 41.2529H103.88C103.855 40.9909 103.776 40.7486 103.281 40.7486C102.861 40.7486 102.708 40.9216 102.708 41.2134C102.708 41.4606 102.846 41.5397 103.064 41.5694L103.568 41.6436C104.043 41.7128 104.339 41.8957 104.339 42.3408C104.339 42.766 104.063 43.1171 103.281 43.1171ZM105.72 43.1171C104.943 43.1171 104.667 42.766 104.667 42.2913H105.057C105.082 42.6078 105.21 42.8352 105.725 42.8352C106.234 42.8352 106.368 42.6078 106.368 42.3605C106.368 42.1281 106.209 42.0144 105.947 41.9749L105.448 41.9007C104.968 41.8315 104.736 41.6534 104.736 41.243C104.736 40.8178 104.978 40.4667 105.72 40.4667C106.466 40.4667 106.709 40.8178 106.709 41.2529H106.318C106.293 40.9909 106.214 40.7486 105.72 40.7486C105.299 40.7486 105.146 40.9216 105.146 41.2134C105.146 41.4606 105.285 41.5397 105.502 41.5694L106.007 41.6436C106.481 41.7128 106.778 41.8957 106.778 42.3408C106.778 42.766 106.501 43.1171 105.72 43.1171ZM108.851 43.0676H108.44V39.547H108.851V43.0676ZM110.499 43.1171C109.713 43.1171 109.278 42.6127 109.278 41.7919C109.278 40.976 109.713 40.4667 110.499 40.4667C111.291 40.4667 111.726 40.976 111.726 41.7919C111.726 42.6127 111.291 43.1171 110.499 43.1171ZM110.499 42.8006C111.019 42.8006 111.315 42.4594 111.315 41.7919C111.315 41.1244 111.019 40.7832 110.499 40.7832C109.985 40.7832 109.688 41.1244 109.688 41.7919C109.688 42.4594 109.985 42.8006 110.499 42.8006ZM113.241 43.1171C112.485 43.1171 112.05 42.6127 112.05 41.7919C112.05 40.976 112.485 40.4667 113.241 40.4667C114.023 40.4667 114.354 40.976 114.354 41.426H113.983C113.934 41.0898 113.726 40.7832 113.241 40.7832C112.757 40.7832 112.46 41.1244 112.46 41.7919C112.46 42.4594 112.757 42.8006 113.241 42.8006C113.667 42.8006 113.924 42.5682 113.983 42.138H114.354C114.354 42.6374 113.993 43.1171 113.241 43.1171ZM115.538 43.1171C114.96 43.1171 114.633 42.8204 114.633 42.3457C114.633 41.9699 114.871 41.6782 115.494 41.6238L115.963 41.5842C116.309 41.5546 116.408 41.4804 116.408 41.2925C116.408 40.9661 116.225 40.7634 115.8 40.7634C115.405 40.7634 115.197 40.9315 115.167 41.2925H114.772C114.772 40.7881 115.083 40.4667 115.795 40.4667C116.507 40.4667 116.819 40.7881 116.819 41.2925V42.4149C116.819 42.7611 116.848 42.9836 116.898 43.0676H116.537C116.458 42.9588 116.428 42.855 116.428 42.583C116.29 42.9391 115.988 43.1171 115.538 43.1171ZM115.647 42.8303C116.151 42.8303 116.408 42.4298 116.408 41.9551V41.7029C116.349 41.782 116.191 41.8315 115.963 41.8512L115.612 41.8809C115.207 41.9106 115.044 42.0836 115.044 42.321C115.044 42.6127 115.222 42.8303 115.647 42.8303ZM118.191 43.0924C117.702 43.0924 117.519 42.949 117.519 42.4743V40.8129H117.084V40.5162H117.519V39.7448H117.929V40.5162H118.542V40.8129H117.929V42.4842C117.929 42.7314 118.013 42.7907 118.275 42.7907L118.542 42.7808V43.0676C118.443 43.0775 118.28 43.0924 118.191 43.0924ZM119.344 43.0676H118.933V40.5162H119.344V43.0676ZM119.136 40.0069C118.973 40.0069 118.884 39.908 118.884 39.7794C118.884 39.6509 118.973 39.552 119.136 39.552C119.299 39.552 119.393 39.6509 119.393 39.7794C119.393 39.908 119.299 40.0069 119.136 40.0069ZM120.992 43.1171C120.206 43.1171 119.771 42.6127 119.771 41.7919C119.771 40.976 120.206 40.4667 120.992 40.4667C121.784 40.4667 122.219 40.976 122.219 41.7919C122.219 42.6127 121.784 43.1171 120.992 43.1171ZM120.992 42.8006C121.512 42.8006 121.808 42.4594 121.808 41.7919C121.808 41.1244 121.512 40.7832 120.992 40.7832C120.478 40.7832 120.181 41.1244 120.181 41.7919C120.181 42.4594 120.478 42.8006 120.992 42.8006ZM124.728 43.0676H124.318V41.4458C124.318 41.0205 124.165 40.798 123.754 40.798C123.329 40.798 123.052 41.1293 123.052 41.6436V43.0676H122.642V40.5162H123.032V40.9859C123.176 40.6695 123.438 40.4667 123.868 40.4667C124.451 40.4667 124.728 40.7634 124.728 41.3815V43.0676ZM126.208 43.1171C125.432 43.1171 125.155 42.766 125.155 42.2913H125.546C125.57 42.6078 125.699 42.8352 126.213 42.8352C126.723 42.8352 126.856 42.6078 126.856 42.3605C126.856 42.1281 126.698 42.0144 126.436 41.9749L125.936 41.9007C125.457 41.8315 125.224 41.6534 125.224 41.243C125.224 40.8178 125.467 40.4667 126.208 40.4667C126.955 40.4667 127.197 40.8178 127.197 41.2529H126.807C126.782 40.9909 126.703 40.7486 126.208 40.7486C125.788 40.7486 125.635 40.9216 125.635 41.2134C125.635 41.4606 125.773 41.5397 125.991 41.5694L126.495 41.6436C126.97 41.7128 127.267 41.8957 127.267 42.3408C127.267 42.766 126.99 43.1171 126.208 43.1171ZM127.895 43.0973C127.727 43.0973 127.633 42.9935 127.633 42.86C127.633 42.7314 127.727 42.6226 127.895 42.6226C128.063 42.6226 128.157 42.7314 128.157 42.86C128.157 42.9935 128.063 43.0973 127.895 43.0973Z" fill="#107789"/>
<path d="M38.9255 40.289C38.9314 40.2961 38.9368 40.3036 38.9417 40.3113C39.7886 41.6291 41.2291 42.4158 42.7953 42.4158C45.3213 42.4158 47.3765 40.3595 47.3765 37.8321C47.3765 36.3399 46.6471 34.9373 45.4254 34.0802C45.4169 34.0743 45.4088 34.0679 45.4012 34.0609C45.3922 34.0563 45.3836 34.0512 45.3753 34.0454C44.6121 33.5257 43.7199 33.2509 42.7953 33.2509C42.4834 33.2509 42.1713 33.2824 41.8681 33.3442C40.0483 33.7185 38.646 35.1386 38.2961 36.962C38.2399 37.238 38.2118 37.5299 38.2118 37.8321C38.2118 38.699 38.4541 39.5404 38.9125 40.2656C38.9172 40.2731 38.9217 40.281 38.9255 40.289ZM35.1198 41.4959L38.4034 41.5023L38.4647 40.4561C37.9842 39.6693 37.7308 38.7637 37.7308 37.8321C37.7308 37.6259 37.7428 37.4235 37.7665 37.2271C36.0073 37.5538 34.2285 37.0059 32.9507 35.7278C31.9258 34.7044 31.3615 33.3432 31.3615 31.895C31.3615 30.4467 31.9258 29.0854 32.9507 28.0617C33.9742 27.0381 35.3356 26.4744 36.7837 26.4744C38.2317 26.4744 39.5932 27.0381 40.6169 28.0618C41.874 29.3188 42.4266 31.0757 42.1262 32.8136C42.3481 32.7845 42.5716 32.7699 42.7953 32.7699C43.7894 32.7699 44.7497 33.0574 45.5778 33.6022L46.3826 33.559L46.391 30.2754L44.3824 30.1592C44.3316 30.1562 44.283 30.1372 44.2437 30.1049C44.2044 30.0726 44.1763 30.0286 44.1635 29.9794C43.9899 29.3106 43.7234 28.6659 43.3713 28.0631C43.3456 28.0191 43.3345 27.968 43.3397 27.9173C43.3449 27.8666 43.3661 27.8188 43.4002 27.7809L44.748 26.2824L42.4308 23.9567L40.9278 25.2959C40.8898 25.3298 40.8421 25.3508 40.7914 25.3558C40.7407 25.3607 40.6898 25.3495 40.646 25.3236C40.0419 24.9684 39.3982 24.6996 38.7322 24.5247C38.6829 24.5117 38.639 24.4834 38.6068 24.4438C38.5746 24.4043 38.5557 24.3555 38.553 24.3046L38.4475 22.2959L35.1641 22.2876L35.0479 24.2963C35.045 24.3471 35.026 24.3956 34.9937 24.435C34.9614 24.4743 34.9175 24.5024 34.8682 24.5151C34.1993 24.6887 33.5545 24.9552 32.9521 25.3073C32.908 25.333 32.857 25.3441 32.8062 25.3389C32.7555 25.3337 32.7077 25.3126 32.6698 25.2785L31.1712 23.9305L28.8456 26.2455L30.1849 27.7509C30.2187 27.7889 30.2396 27.8367 30.2446 27.8873C30.2495 27.9379 30.2384 27.9888 30.2126 28.0327C29.8573 28.6365 29.5884 29.2803 29.4134 29.9465C29.4006 29.9958 29.3723 30.0397 29.3328 30.0719C29.2933 30.1041 29.2445 30.1229 29.1936 30.1255L27.1826 30.2311L27.1763 33.5144L29.1852 33.6306C29.236 33.6335 29.2846 33.6525 29.3239 33.6848C29.3633 33.7171 29.3913 33.761 29.4041 33.8103C29.5769 34.4766 29.8425 35.1217 30.1941 35.7271C30.2196 35.7711 30.2305 35.822 30.2253 35.8725C30.2201 35.9231 30.1989 35.9707 30.165 36.0085L28.8193 37.5073L31.1346 39.833L32.6396 38.4936C32.6777 38.4598 32.7255 38.439 32.7762 38.434C32.827 38.4291 32.8779 38.4403 32.9218 38.4662C33.5191 38.8193 34.1624 39.0881 34.8333 39.2651C34.8825 39.2781 34.9264 39.3063 34.9585 39.3458C34.9907 39.3852 35.0095 39.4339 35.0122 39.4847L35.1198 41.4959ZM36.7837 26.9553C35.4641 26.9553 34.2236 27.4691 33.2908 28.4019C32.3568 29.3348 31.8425 30.5753 31.8425 31.8949C31.8425 33.2145 32.3568 34.455 33.2908 35.3876C34.4981 36.5952 36.1954 37.0881 37.8555 36.718C38.2773 34.8286 39.7317 33.355 41.6187 32.9069C41.9621 31.2669 41.4644 29.5896 40.2768 28.4019C39.344 27.4691 38.1033 26.9553 36.7837 26.9553ZM42.7941 41.8275C40.5917 41.8275 38.7998 40.0356 38.7998 37.8333C38.7998 35.6309 40.5917 33.839 42.7941 33.839C44.9965 33.839 46.7884 35.6309 46.7884 37.8333C46.7884 40.0356 44.9965 41.8275 42.7941 41.8275ZM42.7941 34.3199C40.8569 34.3199 39.2808 35.896 39.2808 37.8333C39.2808 39.7706 40.8568 41.3466 42.7941 41.3466C44.7314 41.3466 46.3074 39.7706 46.3074 37.8333C46.3074 35.896 44.7314 34.3199 42.7941 34.3199ZM41.8688 39.2815C41.8294 39.2816 41.7905 39.2719 41.7556 39.2534C41.7208 39.2349 41.691 39.2081 41.669 39.1754L40.8775 37.999C40.842 37.9461 40.8289 37.8811 40.8411 37.8185C40.8533 37.7559 40.8899 37.7007 40.9428 37.6651C40.9958 37.6295 41.0607 37.6163 41.1233 37.6286C41.1859 37.6408 41.2411 37.6774 41.2768 37.7304L41.9343 38.7078L44.6313 36.9044C44.7415 36.8307 44.8909 36.8603 44.9648 36.9707C45.0388 37.081 45.009 37.2304 44.8986 37.3042L42.0022 39.2409C41.9628 39.2674 41.9163 39.2815 41.8688 39.2815ZM36.7832 36.535C36.7516 36.535 36.7203 36.5288 36.6912 36.5167C36.662 36.5047 36.6354 36.487 36.6131 36.4646C36.5908 36.4423 36.5731 36.4158 36.561 36.3866C36.5489 36.3574 36.5427 36.3261 36.5427 36.2945V35.5238C36.5427 35.3909 36.6503 35.2833 36.7832 35.2833C36.9161 35.2833 37.0237 35.3909 37.0237 35.5238V36.2945C37.0237 36.3261 37.0175 36.3574 37.0054 36.3866C36.9933 36.4158 36.9756 36.4423 36.9533 36.4646C36.9309 36.4869 36.9044 36.5047 36.8752 36.5167C36.8461 36.5288 36.8148 36.535 36.7832 36.535ZM33.651 35.2377C33.6194 35.2377 33.5882 35.2315 33.559 35.2194C33.5298 35.2073 33.5033 35.1896 33.481 35.1672C33.4586 35.1449 33.4409 35.1184 33.4288 35.0892C33.4167 35.0601 33.4105 35.0288 33.4105 34.9972C33.4105 34.9656 33.4167 34.9344 33.4288 34.9052C33.4409 34.876 33.4586 34.8495 33.481 34.8272L34.0261 34.2821C34.12 34.1882 34.2722 34.1882 34.3661 34.2821C34.4601 34.376 34.4601 34.5282 34.3661 34.6221L33.821 35.1672C33.7987 35.1896 33.7722 35.2074 33.7431 35.2194C33.7139 35.2315 33.6826 35.2377 33.651 35.2377ZM36.7832 32.1055H36.7827L35.5214 32.1025C35.4581 32.1016 35.3977 32.0759 35.3534 32.0308C35.309 31.9858 35.2841 31.925 35.2842 31.8618C35.2842 31.7985 35.3092 31.7378 35.3537 31.6929C35.3982 31.6479 35.4586 31.6223 35.5218 31.6215H35.5223L36.5427 31.6239V29.6083C36.5427 29.4755 36.6503 29.3678 36.7832 29.3678C36.9161 29.3678 37.0237 29.4755 37.0237 29.6083V31.865C37.0237 31.8966 37.0174 31.9279 37.0053 31.9571C36.9932 31.9863 36.9754 32.0128 36.953 32.0351C36.9079 32.0802 36.8469 32.1055 36.7832 32.1055ZM41.2126 32.1055H40.4419C40.309 32.1055 40.2014 31.9977 40.2014 31.8649C40.2014 31.7321 40.309 31.6245 40.4419 31.6245H41.2126C41.3456 31.6245 41.4531 31.7321 41.4531 31.8649C41.4531 31.9977 41.3456 32.1055 41.2126 32.1055ZM33.1245 32.1055H32.3537C32.2208 32.1055 32.1132 31.9977 32.1132 31.8649C32.1132 31.7321 32.2208 31.6245 32.3537 31.6245H33.1245C33.2574 31.6245 33.3649 31.7321 33.3649 31.8649C33.3649 31.9977 33.2574 32.1055 33.1245 32.1055ZM39.3703 29.5183C39.3387 29.5184 39.3074 29.5122 39.2782 29.5001C39.249 29.488 39.2225 29.4702 39.2002 29.4479C39.1779 29.4255 39.1602 29.399 39.1481 29.3699C39.136 29.3407 39.1298 29.3094 39.1298 29.2778C39.1298 29.2463 39.136 29.215 39.1481 29.1858C39.1602 29.1566 39.1779 29.1301 39.2002 29.1078L39.7453 28.5628C39.8393 28.4689 39.9914 28.4689 40.0854 28.5628C40.1793 28.6568 40.1793 28.8091 40.0854 28.9029L39.5403 29.4479C39.518 29.4702 39.4915 29.488 39.4623 29.5001C39.4331 29.5122 39.4019 29.5184 39.3703 29.5183ZM34.1961 29.5183C34.1645 29.5184 34.1332 29.5122 34.1041 29.5001C34.0749 29.488 34.0484 29.4702 34.0261 29.4479L33.481 28.9029C33.387 28.8091 33.387 28.6568 33.481 28.5628C33.5749 28.4689 33.7271 28.4689 33.821 28.5628L34.3661 29.1078C34.3885 29.1301 34.4062 29.1566 34.4183 29.1858C34.4303 29.215 34.4366 29.2463 34.4366 29.2778C34.4366 29.3094 34.4303 29.3407 34.4183 29.3699C34.4062 29.399 34.3885 29.4255 34.3661 29.4479C34.3438 29.4702 34.3173 29.488 34.2882 29.5001C34.259 29.5122 34.2277 29.5184 34.1961 29.5183ZM36.7832 28.4467C36.7516 28.4467 36.7203 28.4405 36.6912 28.4284C36.662 28.4164 36.6355 28.3986 36.6131 28.3763C36.5908 28.354 36.5731 28.3275 36.561 28.2983C36.5489 28.2691 36.5427 28.2378 36.5427 28.2063V27.4355C36.5427 27.3027 36.6503 27.195 36.7832 27.195C36.9161 27.195 37.0237 27.3027 37.0237 27.4355V28.2063C37.0237 28.2378 37.0175 28.2691 37.0054 28.2983C36.9933 28.3275 36.9756 28.354 36.9533 28.3763C36.9309 28.3986 36.9044 28.4164 36.8752 28.4284C36.8461 28.4405 36.8148 28.4467 36.7832 28.4467Z" fill="url(#paint1_linear_0_1)"/>
<defs>
<filter id="filter0_d_0_1" x="0.906245" y="-0.00141817" width="195.101" height="66.2834" filterUnits="userSpaceOnUse" color-interpolation-filters="sRGB">
<feFlood flood-opacity="0" result="BackgroundImageFix"/>
<feColorMatrix in="SourceAlpha" type="matrix" values="0 0 0 0 0 0 0 0 0 0 0 0 0 0 0 0 0 0 127 0" result="hardAlpha"/>
<feOffset dx="-0.797633" dy="0.797633"/>
<feGaussianBlur stdDeviation="6.89953"/>
<feComposite in2="hardAlpha" operator="out"/>
<feColorMatrix type="matrix" values="0 0 0 0 0 0 0 0 0 0 0 0 0 0 0 0 0 0 0.18 0"/>
<feBlend mode="normal" in2="BackgroundImageFix" result="effect1_dropShadow_0_1"/>
<feBlend mode="normal" in="SourceGraphic" in2="effect1_dropShadow_0_1" result="shape"/>
</filter>
<linearGradient id="paint0_linear_0_1" x1="172.934" y1="40.4844" x2="65.0875" y2="-19.7718" gradientUnits="userSpaceOnUse">
<stop stop-color="#0C6271"/>
<stop offset="1" stop-color="#117D90"/>
</linearGradient>
<linearGradient id="paint1_linear_0_1" x1="46.1619" y1="36.5879" x2="29.3774" y2="34.4144" gradientUnits="userSpaceOnUse">
<stop stop-color="#0C6271"/>
<stop offset="1" stop-color="#117D90"/>
</linearGradient>
</defs>
</svg>
