<svg width="196" height="67" viewBox="0 0 196 67" fill="none" xmlns="http://www.w3.org/2000/svg">
<g filter="url(#filter0_d_0_1)">
<rect x="15" y="13" width="167.503" height="38.6852" rx="8.77396" fill="white"/>
<rect x="15.1994" y="13.1994" width="167.104" height="38.2864" rx="8.57456" stroke="url(#paint0_linear_0_1)" stroke-width="0.398817"/>
</g>
<path d="M58.5793 27.2721C56.6051 27.2721 55.5435 25.9647 55.5435 24.0608C55.5435 22.1568 56.6051 20.8495 58.5793 20.8495C60.5534 20.8495 61.6151 22.1568 61.6151 24.0608C61.6151 25.9647 60.5534 27.2721 58.5793 27.2721ZM58.5793 26.4736C59.9392 26.4736 60.6412 25.605 60.6412 24.0608C60.6412 22.5166 59.9392 21.648 58.5793 21.648C57.2193 21.648 56.5174 22.5166 56.5174 24.0608C56.5174 25.605 57.2193 26.4736 58.5793 26.4736ZM66.1771 27.1843H65.2471V24.3591C65.2471 23.6747 65.0014 23.3238 64.3609 23.3238C63.6853 23.3238 63.2466 23.8327 63.2466 24.6574V27.1843H62.3166V22.657H63.2028V23.4466C63.4484 22.9202 63.8871 22.5692 64.6417 22.5692C65.677 22.5692 66.1771 23.0957 66.1771 24.1924V27.1843ZM69.1167 27.2721C67.6778 27.2721 66.8794 26.3596 66.8794 24.9206C66.8794 23.5256 67.6339 22.5692 69.0641 22.5692C70.4943 22.5692 71.2488 23.5431 71.2488 24.8417C71.2488 24.9294 71.24 25.0084 71.2313 25.0961H67.8094C67.8357 26.1665 68.3446 26.6316 69.1167 26.6316C69.7572 26.6316 70.1608 26.2982 70.3012 25.7805H71.1523C70.9505 26.7018 70.2925 27.2721 69.1167 27.2721ZM69.0641 23.2097C68.3622 23.2097 67.9059 23.6309 67.8094 24.4819H70.3188C70.2223 23.6309 69.766 23.2097 69.0641 23.2097ZM74.2549 25.0259H71.9035V24.3152H74.2549V25.0259ZM78.0379 27.2721C76.0638 27.2721 75.0022 25.9647 75.0022 24.0608C75.0022 22.1568 76.0638 20.8495 78.0379 20.8495C79.7401 20.8495 80.8456 21.8673 80.8456 23.1659H79.9331C79.8191 22.2972 79.2049 21.648 78.0379 21.648C76.678 21.648 75.9761 22.5166 75.9761 24.0608C75.9761 25.605 76.678 26.4736 78.0379 26.4736C79.1873 26.4736 79.8191 25.8595 79.9331 24.9031H80.8456C80.8456 26.228 79.7752 27.2721 78.0379 27.2721ZM82.4739 27.1843H81.5439V20.9373H82.4739V27.1843ZM84.2819 27.1843H83.3518V22.657H84.2819V27.1843ZM83.8168 21.8673C83.4571 21.8673 83.2641 21.6567 83.2641 21.376C83.2641 21.0952 83.4571 20.8758 83.8168 20.8758C84.1678 20.8758 84.3696 21.0952 84.3696 21.376C84.3696 21.6567 84.1678 21.8673 83.8168 21.8673ZM87.1777 27.2721C85.7827 27.2721 84.9843 26.3596 84.9843 24.9206C84.9843 23.4817 85.7827 22.5692 87.1777 22.5692C88.6079 22.5692 89.2309 23.4817 89.2309 24.324H88.371C88.2833 23.7625 87.9499 23.2799 87.1777 23.2799C86.3881 23.2799 85.9143 23.8327 85.9143 24.9206C85.9143 26.0174 86.3881 26.5614 87.1777 26.5614C87.8533 26.5614 88.2745 26.2016 88.371 25.4822H89.2309C89.2309 26.4122 88.5553 27.2721 87.1777 27.2721ZM94.0932 27.1843H93.014L91.5488 25.1137L90.7766 25.8682V27.1843H89.8466V20.9373H90.7766V24.8154L92.9263 22.657H94.0055L92.1805 24.4644L94.0932 27.1843ZM99.673 27.2721C97.6988 27.2721 96.6372 25.9647 96.6372 24.0608C96.6372 22.1568 97.6988 20.8495 99.673 20.8495C101.375 20.8495 102.481 21.8673 102.481 23.1659H101.568C101.454 22.2972 100.84 21.648 99.673 21.648C98.313 21.648 97.6111 22.5166 97.6111 24.0608C97.6111 25.605 98.313 26.4736 99.673 26.4736C100.822 26.4736 101.454 25.8595 101.568 24.9031H102.481C102.481 26.228 101.41 27.2721 99.673 27.2721ZM105.241 27.2721C103.802 27.2721 103.003 26.3596 103.003 24.9206C103.003 23.4817 103.802 22.5692 105.241 22.5692C106.68 22.5692 107.478 23.4817 107.478 24.9206C107.478 26.3596 106.68 27.2721 105.241 27.2721ZM105.241 26.5614C106.074 26.5614 106.548 26.0174 106.548 24.9206C106.548 23.8327 106.074 23.2799 105.241 23.2799C104.407 23.2799 103.933 23.8327 103.933 24.9206C103.933 26.0174 104.407 26.5614 105.241 26.5614ZM112.043 27.1843H111.113V24.3591C111.113 23.6747 110.868 23.3238 110.227 23.3238C109.552 23.3238 109.113 23.8327 109.113 24.6574V27.1843H108.183V22.657H109.069V23.4466C109.315 22.9202 109.753 22.5692 110.508 22.5692C111.543 22.5692 112.043 23.0957 112.043 24.1924V27.1843ZM116.782 27.1843H115.852V24.3591C115.852 23.6747 115.606 23.3238 114.965 23.3238C114.29 23.3238 113.851 23.8327 113.851 24.6574V27.1843H112.921V22.657H113.807V23.4466C114.053 22.9202 114.492 22.5692 115.246 22.5692C116.282 22.5692 116.782 23.0957 116.782 24.1924V27.1843ZM119.721 27.2721C118.282 27.2721 117.484 26.3596 117.484 24.9206C117.484 23.5256 118.238 22.5692 119.669 22.5692C121.099 22.5692 121.853 23.5431 121.853 24.8417C121.853 24.9294 121.845 25.0084 121.836 25.0961H118.414C118.44 26.1665 118.949 26.6316 119.721 26.6316C120.362 26.6316 120.765 26.2982 120.906 25.7805H121.757C121.555 26.7018 120.897 27.2721 119.721 27.2721ZM119.669 23.2097C118.967 23.2097 118.51 23.6309 118.414 24.4819H120.923C120.827 23.6309 120.371 23.2097 119.669 23.2097ZM124.57 27.2721C123.175 27.2721 122.376 26.3596 122.376 24.9206C122.376 23.4817 123.175 22.5692 124.57 22.5692C126 22.5692 126.623 23.4817 126.623 24.324H125.763C125.675 23.7625 125.342 23.2799 124.57 23.2799C123.78 23.2799 123.306 23.8327 123.306 24.9206C123.306 26.0174 123.78 26.5614 124.57 26.5614C125.246 26.5614 125.667 26.2016 125.763 25.4822H126.623C126.623 26.4122 125.947 27.2721 124.57 27.2721ZM128.906 27.2282C127.958 27.2282 127.625 26.9474 127.625 26.0262V23.3238H126.888V22.657H127.625V21.2882H128.555V22.657H129.599V23.3238H128.555V26.0525C128.555 26.4473 128.704 26.5614 129.116 26.5614L129.599 26.5526V27.1843C129.415 27.2019 129.09 27.2282 128.906 27.2282ZM131.193 27.1843H130.263V22.657H131.193V27.1843ZM130.728 21.8673C130.369 21.8673 130.176 21.6567 130.176 21.376C130.176 21.0952 130.369 20.8758 130.728 20.8758C131.079 20.8758 131.281 21.0952 131.281 21.376C131.281 21.6567 131.079 21.8673 130.728 21.8673ZM134.133 27.2721C132.694 27.2721 131.896 26.3596 131.896 24.9206C131.896 23.4817 132.694 22.5692 134.133 22.5692C135.572 22.5692 136.371 23.4817 136.371 24.9206C136.371 26.3596 135.572 27.2721 134.133 27.2721ZM134.133 26.5614C134.967 26.5614 135.441 26.0174 135.441 24.9206C135.441 23.8327 134.967 23.2799 134.133 23.2799C133.3 23.2799 132.826 23.8327 132.826 24.9206C132.826 26.0174 133.3 26.5614 134.133 26.5614ZM140.936 27.1843H140.006V24.3591C140.006 23.6747 139.76 23.3238 139.12 23.3238C138.444 23.3238 138.005 23.8327 138.005 24.6574V27.1843H137.075V22.657H137.961V23.4466C138.207 22.9202 138.646 22.5692 139.4 22.5692C140.436 22.5692 140.936 23.0957 140.936 24.1924V27.1843ZM55.9973 37.1843H55.572V33.6637H55.9973V37.1843ZM58.6382 37.1843H58.2278V35.5625C58.2278 35.1372 58.0745 34.9147 57.6641 34.9147C57.2389 34.9147 56.962 35.246 56.962 35.7603V37.1843H56.5516V34.6329H56.9422V35.1026C57.0856 34.7862 57.3477 34.5834 57.7778 34.5834C58.3613 34.5834 58.6382 34.8801 58.6382 35.4982V37.1843ZM60.1183 37.2338C59.3419 37.2338 59.065 36.8827 59.065 36.408H59.4557C59.4804 36.7245 59.609 36.9519 60.1232 36.9519C60.6325 36.9519 60.766 36.7245 60.766 36.4772C60.766 36.2448 60.6078 36.1311 60.3457 36.0916L59.8463 36.0174C59.3667 35.9482 59.1343 35.7701 59.1343 35.3597C59.1343 34.9345 59.3766 34.5834 60.1183 34.5834C60.8649 34.5834 61.1072 34.9345 61.1072 35.3696H60.7166C60.6918 35.1076 60.6127 34.8653 60.1183 34.8653C59.698 34.8653 59.5447 35.0383 59.5447 35.3301C59.5447 35.5773 59.6831 35.6564 59.9007 35.6861L60.4051 35.7603C60.8797 35.8295 61.1764 36.0124 61.1764 36.4575C61.1764 36.8827 60.8995 37.2338 60.1183 37.2338ZM62.4492 37.209C61.9597 37.209 61.7767 37.0657 61.7767 36.591V34.9296H61.3416V34.6329H61.7767V33.8615H62.1871V34.6329H62.8002V34.9296H62.1871V36.6009C62.1871 36.8481 62.2712 36.9074 62.5332 36.9074L62.8002 36.8975V37.1843C62.7014 37.1942 62.5382 37.209 62.4492 37.209ZM63.9971 37.2338C63.4186 37.2338 63.0923 36.9371 63.0923 36.4624C63.0923 36.0866 63.3296 35.7949 63.9526 35.7405L64.4224 35.7009C64.7685 35.6713 64.8674 35.5971 64.8674 35.4092C64.8674 35.0828 64.6844 34.8801 64.2592 34.8801C63.8636 34.8801 63.6559 35.0482 63.6263 35.4092H63.2307C63.2307 34.9048 63.5422 34.5834 64.2543 34.5834C64.9663 34.5834 65.2778 34.9048 65.2778 35.4092V36.5316C65.2778 36.8778 65.3075 37.1003 65.3569 37.1843H64.996C64.9168 37.0755 64.8872 36.9717 64.8872 36.6997C64.7487 37.0558 64.4471 37.2338 63.9971 37.2338ZM64.1059 36.947C64.6103 36.947 64.8674 36.5465 64.8674 36.0718V35.8196C64.8081 35.8987 64.6498 35.9482 64.4224 35.9679L64.0713 35.9976C63.6658 36.0273 63.5027 36.2003 63.5027 36.4377C63.5027 36.7294 63.6807 36.947 64.1059 36.947ZM67.8902 37.1843H67.4798V35.5625C67.4798 35.1372 67.3265 34.9147 66.9161 34.9147C66.4908 34.9147 66.2139 35.246 66.2139 35.7603V37.1843H65.8035V34.6329H66.1942V35.1026C66.3376 34.7862 66.5996 34.5834 67.0298 34.5834C67.6133 34.5834 67.8902 34.8801 67.8902 35.4982V37.1843ZM69.2626 37.209C68.7731 37.209 68.5901 37.0657 68.5901 36.591V34.9296H68.155V34.6329H68.5901V33.8615H69.0005V34.6329H69.6137V34.9296H69.0005V36.6009C69.0005 36.8481 69.0846 36.9074 69.3467 36.9074L69.6137 36.8975V37.1843C69.5148 37.1942 69.3516 37.209 69.2626 37.209ZM70.415 37.1843H70.0046V33.6637H70.415V37.1843ZM70.976 38.1535V37.8568H71.1738C71.4704 37.8568 71.6534 37.6936 71.7968 37.3228L70.7436 34.6329H71.1688L71.9797 36.8431L72.8006 34.6329H73.2258L72.1825 37.2733C71.9105 37.9557 71.6534 38.1535 71.1738 38.1535H70.976ZM75.8827 37.2338C75.1261 37.2338 74.691 36.7294 74.691 35.9086C74.691 35.0927 75.1261 34.5834 75.8827 34.5834C76.6639 34.5834 76.9952 35.0927 76.9952 35.5427H76.6244C76.5749 35.2065 76.3673 34.8999 75.8827 34.8999C75.3981 34.8999 75.1014 35.2411 75.1014 35.9086C75.1014 36.5761 75.3981 36.9173 75.8827 36.9173C76.3079 36.9173 76.565 36.6849 76.6244 36.2547H76.9952C76.9952 36.7541 76.6343 37.2338 75.8827 37.2338ZM78.4958 37.2338C77.7096 37.2338 77.2744 36.7294 77.2744 35.9086C77.2744 35.0927 77.7096 34.5834 78.4958 34.5834C79.2869 34.5834 79.722 35.0927 79.722 35.9086C79.722 36.7294 79.2869 37.2338 78.4958 37.2338ZM78.4958 36.9173C79.0149 36.9173 79.3116 36.5761 79.3116 35.9086C79.3116 35.2411 79.0149 34.8999 78.4958 34.8999C77.9815 34.8999 77.6848 35.2411 77.6848 35.9086C77.6848 36.5761 77.9815 36.9173 78.4958 36.9173ZM82.2317 37.1843H81.8213V35.5625C81.8213 35.1372 81.668 34.9147 81.2576 34.9147C80.8324 34.9147 80.5554 35.246 80.5554 35.7603V37.1843H80.145V34.6329H80.5357V35.1026C80.6791 34.7862 80.9411 34.5834 81.3713 34.5834C81.9548 34.5834 82.2317 34.8801 82.2317 35.4982V37.1843ZM84.8441 37.1843H84.4337V35.5625C84.4337 35.1372 84.2804 34.9147 83.87 34.9147C83.4447 34.9147 83.1678 35.246 83.1678 35.7603V37.1843H82.7574V34.6329H83.148V35.1026C83.2914 34.7862 83.5535 34.5834 83.9837 34.5834C84.5672 34.5834 84.8441 34.8801 84.8441 35.4982V37.1843ZM86.4922 37.2338C85.706 37.2338 85.2709 36.7294 85.2709 35.9086C85.2709 35.1224 85.6764 34.5834 86.4626 34.5834C87.2537 34.5834 87.6592 35.1372 87.6592 35.8493C87.6592 35.8888 87.6592 35.9333 87.6493 35.9729H85.6813C85.6912 36.6651 86.0175 36.947 86.4922 36.947C86.9026 36.947 87.1499 36.7294 87.2389 36.408H87.6048C87.4861 36.9173 87.135 37.2338 86.4922 37.2338ZM86.4626 34.8702C86.0225 34.8702 85.7357 35.1422 85.6813 35.696H87.2488C87.1944 35.1422 86.9026 34.8702 86.4626 34.8702ZM89.1763 37.2338C88.4198 37.2338 87.9847 36.7294 87.9847 35.9086C87.9847 35.0927 88.4198 34.5834 89.1763 34.5834C89.9576 34.5834 90.2889 35.0927 90.2889 35.5427H89.9181C89.8686 35.2065 89.6609 34.8999 89.1763 34.8999C88.6918 34.8999 88.3951 35.2411 88.3951 35.9086C88.3951 36.5761 88.6918 36.9173 89.1763 36.9173C89.6016 36.9173 89.8587 36.6849 89.9181 36.2547H90.2889C90.2889 36.7541 89.9279 37.2338 89.1763 37.2338ZM91.562 37.209C91.0724 37.209 90.8895 37.0657 90.8895 36.591V34.9296H90.4544V34.6329H90.8895V33.8615H91.2999V34.6329H91.913V34.9296H91.2999V36.6009C91.2999 36.8481 91.384 36.9074 91.646 36.9074L91.913 36.8975V37.1843C91.8141 37.1942 91.651 37.209 91.562 37.209ZM96.3339 37.1843H95.8987L95.2955 35.162L94.6922 37.1843H94.2571L93.3423 34.6329H93.7676L94.4944 36.7245L95.1076 34.6329H95.4834L96.0965 36.7245L96.8234 34.6329H97.2486L96.3339 37.1843ZM97.9874 37.1843H97.577V34.6329H97.9874V37.1843ZM97.7797 34.1236C97.6165 34.1236 97.5275 34.0247 97.5275 33.8961C97.5275 33.7675 97.6165 33.6687 97.7797 33.6687C97.9429 33.6687 98.0368 33.7675 98.0368 33.8961C98.0368 34.0247 97.9429 34.1236 97.7797 34.1236ZM99.4088 37.209C98.9192 37.209 98.7363 37.0657 98.7363 36.591V34.9296H98.3011V34.6329H98.7363V33.8615H99.1467V34.6329H99.7598V34.9296H99.1467V36.6009C99.1467 36.8481 99.2307 36.9074 99.4928 36.9074L99.7598 36.8975V37.1843C99.6609 37.1942 99.4978 37.209 99.4088 37.209ZM102.237 37.1843H101.827V35.5625C101.827 35.1372 101.674 34.9147 101.263 34.9147C100.838 34.9147 100.561 35.246 100.561 35.7603V37.1843H100.151V33.6637H100.561V35.0779C100.7 34.7713 100.962 34.5834 101.377 34.5834C101.96 34.5834 102.237 34.8801 102.237 35.4982V37.1843ZM105.122 37.2338C104.336 37.2338 103.9 36.7294 103.9 35.9086C103.9 35.0927 104.336 34.5834 105.122 34.5834C105.913 34.5834 106.348 35.0927 106.348 35.9086C106.348 36.7294 105.913 37.2338 105.122 37.2338ZM105.122 36.9173C105.641 36.9173 105.938 36.5761 105.938 35.9086C105.938 35.2411 105.641 34.8999 105.122 34.8999C104.607 34.8999 104.311 35.2411 104.311 35.9086C104.311 36.5761 104.607 36.9173 105.122 36.9173ZM107.912 37.1843H107.417L106.424 34.6329H106.849L107.665 36.8135L108.481 34.6329H108.906L107.912 37.1843ZM110.206 37.2338C109.42 37.2338 108.985 36.7294 108.985 35.9086C108.985 35.1224 109.391 34.5834 110.177 34.5834C110.968 34.5834 111.373 35.1372 111.373 35.8493C111.373 35.8888 111.373 35.9333 111.363 35.9729H109.396C109.405 36.6651 109.732 36.947 110.206 36.947C110.617 36.947 110.864 36.7294 110.953 36.408H111.319C111.2 36.9173 110.849 37.2338 110.206 37.2338ZM110.177 34.8702C109.737 34.8702 109.45 35.1422 109.396 35.696H110.963C110.909 35.1422 110.617 34.8702 110.177 34.8702ZM112.208 37.1843H111.798V34.6329H112.188V35.2361C112.327 34.7911 112.559 34.6081 112.94 34.6081C113.009 34.6081 113.098 34.618 113.172 34.6329V34.9889L112.925 34.979C112.49 34.979 112.208 35.3251 112.208 35.9531V37.1843ZM115.915 37.2338C115.094 37.2338 114.718 36.7393 114.718 36.2943H115.104C115.138 36.5613 115.361 36.9173 115.915 36.9173C116.404 36.9173 116.755 36.6157 116.755 36.0718C116.755 35.5229 116.404 35.2213 115.915 35.2213C115.4 35.2213 115.188 35.5279 115.119 35.7998H114.738L115.034 33.6637H116.963V33.995H115.371L115.198 35.2361C115.381 34.9938 115.677 34.9197 115.959 34.9197C116.676 34.9197 117.161 35.3152 117.161 36.0619C117.161 36.8036 116.676 37.2338 115.915 37.2338ZM118.858 37.2338C117.884 37.2338 117.489 36.5465 117.489 35.424C117.489 34.3016 117.884 33.6143 118.858 33.6143C119.832 33.6143 120.233 34.3016 120.233 35.424C120.233 36.5465 119.832 37.2338 118.858 37.2338ZM118.858 36.9025C119.471 36.9025 119.822 36.4624 119.822 35.424C119.822 34.3906 119.471 33.9456 118.858 33.9456C118.245 33.9456 117.899 34.3906 117.899 35.424C117.899 36.4624 118.245 36.9025 118.858 36.9025ZM123.185 37.2338C122.75 37.2338 122.449 37.0558 122.305 36.6997V38.1535H121.895V34.6329H122.285V35.1422C122.429 34.7812 122.725 34.5834 123.185 34.5834C123.873 34.5834 124.293 35.0729 124.293 35.9086C124.293 36.7442 123.873 37.2338 123.185 37.2338ZM123.091 36.9173C123.561 36.9173 123.883 36.6058 123.883 35.9086C123.883 35.2114 123.561 34.8999 123.091 34.8999C122.627 34.8999 122.305 35.2114 122.305 35.9086C122.305 36.6058 122.627 36.9173 123.091 36.9173ZM125.842 37.2338C125.056 37.2338 124.621 36.7294 124.621 35.9086C124.621 35.0927 125.056 34.5834 125.842 34.5834C126.633 34.5834 127.068 35.0927 127.068 35.9086C127.068 36.7294 126.633 37.2338 125.842 37.2338ZM125.842 36.9173C126.361 36.9173 126.658 36.5761 126.658 35.9086C126.658 35.2411 126.361 34.8999 125.842 34.8999C125.328 34.8999 125.031 35.2411 125.031 35.9086C125.031 36.5761 125.328 36.9173 125.842 36.9173ZM128.782 37.2338C128.347 37.2338 128.045 37.0558 127.902 36.6997V38.1535H127.491V34.6329H127.882V35.1422C128.025 34.7812 128.322 34.5834 128.782 34.5834C129.469 34.5834 129.89 35.0729 129.89 35.9086C129.89 36.7442 129.469 37.2338 128.782 37.2338ZM128.688 36.9173C129.158 36.9173 129.479 36.6058 129.479 35.9086C129.479 35.2114 129.158 34.8999 128.688 34.8999C128.223 34.8999 127.902 35.2114 127.902 35.9086C127.902 36.6058 128.223 36.9173 128.688 36.9173ZM131.172 37.2338C130.588 37.2338 130.316 36.9371 130.316 36.319V34.6329H130.727V36.2547C130.727 36.68 130.88 36.9025 131.29 36.9025C131.716 36.9025 131.992 36.5712 131.992 36.0569V34.6329H132.403V37.1843H132.012V36.7146C131.869 37.031 131.607 37.2338 131.172 37.2338ZM133.339 37.1843H132.929V33.6637H133.339V37.1843ZM134.671 37.2338C134.093 37.2338 133.766 36.9371 133.766 36.4624C133.766 36.0866 134.004 35.7949 134.627 35.7405L135.097 35.7009C135.443 35.6713 135.542 35.5971 135.542 35.4092C135.542 35.0828 135.359 34.8801 134.933 34.8801C134.538 34.8801 134.33 35.0482 134.3 35.4092H133.905C133.905 34.9048 134.216 34.5834 134.928 34.5834C135.64 34.5834 135.952 34.9048 135.952 35.4092V36.5316C135.952 36.8778 135.982 37.1003 136.031 37.1843H135.67C135.591 37.0755 135.561 36.9717 135.561 36.6997C135.423 37.0558 135.121 37.2338 134.671 37.2338ZM134.78 36.947C135.284 36.947 135.542 36.5465 135.542 36.0718V35.8196C135.482 35.8987 135.324 35.9482 135.097 35.9679L134.746 35.9976C134.34 36.0273 134.177 36.2003 134.177 36.4377C134.177 36.7294 134.355 36.947 134.78 36.947ZM136.888 37.1843H136.478V34.6329H136.868V35.2361C137.007 34.7911 137.239 34.6081 137.62 34.6081C137.689 34.6081 137.778 34.618 137.852 34.6329V34.9889L137.605 34.979C137.17 34.979 136.888 35.3251 136.888 35.9531V37.1843ZM142.132 34.7417C142.132 35.4487 141.668 35.8196 140.946 35.8196H139.902V37.1843H139.477V33.6637H140.946C141.668 33.6637 142.132 34.0296 142.132 34.7417ZM141.707 34.7417C141.707 34.2422 141.42 33.9901 140.891 33.9901H139.902V35.4932H140.891C141.42 35.4932 141.707 35.2361 141.707 34.7417ZM144.13 37.2338C143.027 37.2338 142.458 36.497 142.458 35.424C142.458 34.351 143.027 33.6143 144.13 33.6143C145.237 33.6143 145.806 34.351 145.806 35.424C145.806 36.497 145.237 37.2338 144.13 37.2338ZM144.13 36.8827C144.955 36.8827 145.381 36.3536 145.381 35.424C145.381 34.4944 144.955 33.9653 144.13 33.9653C143.309 33.9653 142.884 34.4944 142.884 35.424C142.884 36.3536 143.309 36.8827 144.13 36.8827ZM147.498 37.2338C146.568 37.2338 146.133 36.8333 146.133 36.0817H146.534C146.598 36.6355 146.825 36.9074 147.508 36.9074C148.175 36.9074 148.437 36.6256 148.437 36.1707C148.437 35.8987 148.289 35.696 147.71 35.6119L147.176 35.5328C146.464 35.424 146.222 35.162 146.222 34.6675C146.222 34.0445 146.632 33.6143 147.498 33.6143C148.363 33.6143 148.773 34.0296 148.773 34.7169H148.383C148.323 34.1977 148.081 33.9406 147.488 33.9406C146.909 33.9406 146.647 34.2126 146.647 34.6428C146.647 34.9345 146.781 35.0977 147.3 35.1768L147.834 35.2559C148.511 35.3548 148.862 35.6169 148.862 36.1509C148.862 36.8234 148.427 37.2338 147.498 37.2338ZM152.715 37.2338C151.939 37.2338 151.662 36.8827 151.662 36.408H152.053C152.077 36.7245 152.206 36.9519 152.72 36.9519C153.229 36.9519 153.363 36.7245 153.363 36.4772C153.363 36.2448 153.205 36.1311 152.943 36.0916L152.443 36.0174C151.964 35.9482 151.731 35.7701 151.731 35.3597C151.731 34.9345 151.973 34.5834 152.715 34.5834C153.462 34.5834 153.704 34.9345 153.704 35.3696H153.313C153.289 35.1076 153.21 34.8653 152.715 34.8653C152.295 34.8653 152.142 35.0383 152.142 35.3301C152.142 35.5773 152.28 35.6564 152.498 35.6861L153.002 35.7603C153.477 35.8295 153.773 36.0124 153.773 36.4575C153.773 36.8827 153.496 37.2338 152.715 37.2338ZM154.094 38.1535V37.8568H154.292C154.588 37.8568 154.771 37.6936 154.915 37.3228L153.862 34.6329H154.287L155.098 36.8431L155.919 34.6329H156.344L155.3 37.2733C155.029 37.9557 154.771 38.1535 154.292 38.1535H154.094ZM157.486 37.2338C156.71 37.2338 156.433 36.8827 156.433 36.408H156.823C156.848 36.7245 156.977 36.9519 157.491 36.9519C158 36.9519 158.134 36.7245 158.134 36.4772C158.134 36.2448 157.976 36.1311 157.713 36.0916L157.214 36.0174C156.734 35.9482 156.502 35.7701 156.502 35.3597C156.502 34.9345 156.744 34.5834 157.486 34.5834C158.233 34.5834 158.475 34.9345 158.475 35.3696H158.084C158.06 35.1076 157.98 34.8653 157.486 34.8653C157.066 34.8653 156.912 35.0383 156.912 35.3301C156.912 35.5773 157.051 35.6564 157.268 35.6861L157.773 35.7603C158.248 35.8295 158.544 36.0124 158.544 36.4575C158.544 36.8827 158.267 37.2338 157.486 37.2338ZM159.817 37.209C159.327 37.209 159.144 37.0657 159.144 36.591V34.9296H158.709V34.6329H159.144V33.8615H159.555V34.6329H160.168V34.9296H159.555V36.6009C159.555 36.8481 159.639 36.9074 159.901 36.9074L160.168 36.8975V37.1843C160.069 37.1942 159.906 37.209 159.817 37.209ZM161.537 37.2338C160.75 37.2338 160.315 36.7294 160.315 35.9086C160.315 35.1224 160.721 34.5834 161.507 34.5834C162.298 34.5834 162.703 35.1372 162.703 35.8493C162.703 35.8888 162.703 35.9333 162.694 35.9729H160.726C160.735 36.6651 161.062 36.947 161.537 36.947C161.947 36.947 162.194 36.7294 162.283 36.408H162.649C162.53 36.9173 162.179 37.2338 161.537 37.2338ZM161.507 34.8702C161.067 34.8702 160.78 35.1422 160.726 35.696H162.293C162.239 35.1422 161.947 34.8702 161.507 34.8702ZM166.451 37.1843H166.055V35.5526C166.055 35.1273 165.927 34.9147 165.585 34.9147C165.239 34.9147 164.977 35.2361 164.977 35.7504V37.1843H164.587V35.5526C164.587 35.1273 164.453 34.9147 164.122 34.9147C163.776 34.9147 163.523 35.2361 163.523 35.7504V37.1843H163.128V34.6329H163.518V35.1026C163.637 34.7862 163.889 34.5834 164.24 34.5834C164.631 34.5834 164.858 34.7664 164.943 35.1323C165.071 34.7713 165.348 34.5834 165.699 34.5834C166.208 34.5834 166.451 34.8801 166.451 35.4982V37.1843ZM167.931 37.2338C167.154 37.2338 166.877 36.8827 166.877 36.408H167.268C167.293 36.7245 167.421 36.9519 167.936 36.9519C168.445 36.9519 168.578 36.7245 168.578 36.4772C168.578 36.2448 168.42 36.1311 168.158 36.0916L167.659 36.0174C167.179 35.9482 166.947 35.7701 166.947 35.3597C166.947 34.9345 167.189 34.5834 167.931 34.5834C168.677 34.5834 168.92 34.9345 168.92 35.3696H168.529C168.504 35.1076 168.425 34.8653 167.931 34.8653C167.51 34.8653 167.357 35.0383 167.357 35.3301C167.357 35.5773 167.496 35.6564 167.713 35.6861L168.218 35.7603C168.692 35.8295 168.989 36.0124 168.989 36.4575C168.989 36.8827 168.712 37.2338 167.931 37.2338ZM58.3361 44.1843H57.901L57.2977 42.162L56.6945 44.1843H56.2593L55.3446 41.6329H55.7698L56.4967 43.7245L57.1098 41.6329H57.4856L58.0987 43.7245L58.8256 41.6329H59.2509L58.3361 44.1843ZM59.9896 44.1843H59.5792V41.6329H59.9896V44.1843ZM59.7819 41.1236C59.6188 41.1236 59.5298 41.0247 59.5298 40.8961C59.5298 40.7675 59.6188 40.6687 59.7819 40.6687C59.9451 40.6687 60.0391 40.7675 60.0391 40.8961C60.0391 41.0247 59.9451 41.1236 59.7819 41.1236ZM61.411 44.209C60.9215 44.209 60.7385 44.0657 60.7385 43.591V41.9296H60.3034V41.6329H60.7385V40.8615H61.1489V41.6329H61.7621V41.9296H61.1489V43.6009C61.1489 43.8481 61.233 43.9074 61.495 43.9074L61.7621 43.8975V44.1843C61.6632 44.1942 61.5 44.209 61.411 44.209ZM64.2396 44.1843H63.8292V42.5625C63.8292 42.1372 63.6759 41.9147 63.2655 41.9147C62.8403 41.9147 62.5634 42.246 62.5634 42.7603V44.1843H62.153V40.6637H62.5634V42.0779C62.7018 41.7713 62.9639 41.5834 63.3792 41.5834C63.9627 41.5834 64.2396 41.8801 64.2396 42.4982V44.1843ZM65.8878 44.2338C65.1016 44.2338 64.6664 43.7294 64.6664 42.9086C64.6664 42.0927 65.1016 41.5834 65.8878 41.5834C66.6789 41.5834 67.1141 42.0927 67.1141 42.9086C67.1141 43.7294 66.6789 44.2338 65.8878 44.2338ZM65.8878 43.9173C66.407 43.9173 66.7037 43.5761 66.7037 42.9086C66.7037 42.2411 66.407 41.8999 65.8878 41.8999C65.3735 41.8999 65.0769 42.2411 65.0769 42.9086C65.0769 43.5761 65.3735 43.9173 65.8878 43.9173ZM68.3925 44.2338C67.809 44.2338 67.5371 43.9371 67.5371 43.319V41.6329H67.9475V43.2547C67.9475 43.68 68.1008 43.9025 68.5112 43.9025C68.9364 43.9025 69.2133 43.5712 69.2133 43.0569V41.6329H69.6237V44.1843H69.2331V43.7146C69.0897 44.031 68.8276 44.2338 68.3925 44.2338ZM71.0444 44.209C70.5549 44.209 70.3719 44.0657 70.3719 43.591V41.9296H69.9368V41.6329H70.3719V40.8615H70.7824V41.6329H71.3955V41.9296H70.7824V43.6009C70.7824 43.8481 70.8664 43.9074 71.1285 43.9074L71.3955 43.8975V44.1843C71.2966 44.1942 71.1334 44.209 71.0444 44.209ZM74.1153 44.2338C73.3588 44.2338 72.9237 43.7294 72.9237 42.9086C72.9237 42.0927 73.3588 41.5834 74.1153 41.5834C74.8966 41.5834 75.2279 42.0927 75.2279 42.5427H74.857C74.8076 42.2065 74.5999 41.8999 74.1153 41.8999C73.6308 41.8999 73.3341 42.2411 73.3341 42.9086C73.3341 43.5761 73.6308 43.9173 74.1153 43.9173C74.5406 43.9173 74.7977 43.6849 74.857 43.2547H75.2279C75.2279 43.7541 74.8669 44.2338 74.1153 44.2338ZM76.7284 44.2338C75.9422 44.2338 75.5071 43.7294 75.5071 42.9086C75.5071 42.0927 75.9422 41.5834 76.7284 41.5834C77.5196 41.5834 77.9547 42.0927 77.9547 42.9086C77.9547 43.7294 77.5196 44.2338 76.7284 44.2338ZM76.7284 43.9173C77.2476 43.9173 77.5443 43.5761 77.5443 42.9086C77.5443 42.2411 77.2476 41.8999 76.7284 41.8999C76.2142 41.8999 75.9175 42.2411 75.9175 42.9086C75.9175 43.5761 76.2142 43.9173 76.7284 43.9173ZM81.7005 44.1843H81.305V42.5526C81.305 42.1273 81.1764 41.9147 80.8352 41.9147C80.4891 41.9147 80.227 42.2361 80.227 42.7504V44.1843H79.8364V42.5526C79.8364 42.1273 79.7029 41.9147 79.3716 41.9147C79.0255 41.9147 78.7733 42.2361 78.7733 42.7504V44.1843H78.3777V41.6329H78.7683V42.1026C78.887 41.7862 79.1392 41.5834 79.4903 41.5834C79.8809 41.5834 80.1083 41.7664 80.1924 42.1323C80.321 41.7713 80.5979 41.5834 80.9489 41.5834C81.4582 41.5834 81.7005 41.8801 81.7005 42.4982V44.1843ZM83.5168 44.2338C83.0817 44.2338 82.7801 44.0558 82.6367 43.6997V45.1535H82.2262V41.6329H82.6169V42.1422C82.7603 41.7812 83.057 41.5834 83.5168 41.5834C84.2041 41.5834 84.6244 42.0729 84.6244 42.9086C84.6244 43.7442 84.2041 44.2338 83.5168 44.2338ZM83.4229 43.9173C83.8926 43.9173 84.214 43.6058 84.214 42.9086C84.214 42.2114 83.8926 41.8999 83.4229 41.8999C82.9581 41.8999 82.6367 42.2114 82.6367 42.9086C82.6367 43.6058 82.9581 43.9173 83.4229 43.9173ZM85.4615 44.1843H85.0511V40.6637H85.4615V44.1843ZM87.1103 44.2338C86.3241 44.2338 85.889 43.7294 85.889 42.9086C85.889 42.1224 86.2944 41.5834 87.0807 41.5834C87.8718 41.5834 88.2773 42.1372 88.2773 42.8493C88.2773 42.8888 88.2773 42.9333 88.2674 42.9729H86.2994C86.3093 43.6651 86.6356 43.947 87.1103 43.947C87.5207 43.947 87.768 43.7294 87.857 43.408H88.2229C88.1042 43.9173 87.7531 44.2338 87.1103 44.2338ZM87.0807 41.8702C86.6406 41.8702 86.3538 42.1422 86.2994 42.696H87.8669C87.8125 42.1422 87.5207 41.8702 87.0807 41.8702ZM90.6892 44.1843H90.2343L89.4976 43.1855L88.7608 44.1843H88.3059L89.2602 42.8641L88.3553 41.6329H88.8103L89.4976 42.5674L90.1849 41.6329H90.6398L89.73 42.8641L90.6892 44.1843ZM93.1458 44.209C92.6563 44.209 92.4733 44.0657 92.4733 43.591V41.9296H92.0382V41.6329H92.4733V40.8615H92.8837V41.6329H93.4969V41.9296H92.8837V43.6009C92.8837 43.8481 92.9678 43.9074 93.2299 43.9074L93.4969 43.8975V44.1843C93.398 44.1942 93.2348 44.209 93.1458 44.209ZM94.8654 44.2338C94.0792 44.2338 93.644 43.7294 93.644 42.9086C93.644 42.1224 94.0495 41.5834 94.8357 41.5834C95.6268 41.5834 96.0323 42.1372 96.0323 42.8493C96.0323 42.8888 96.0323 42.9333 96.0224 42.9729H94.0544C94.0643 43.6651 94.3907 43.947 94.8654 43.947C95.2758 43.947 95.523 43.7294 95.612 43.408H95.9779C95.8592 43.9173 95.5082 44.2338 94.8654 44.2338ZM94.8357 41.8702C94.3956 41.8702 94.1088 42.1422 94.0544 42.696H95.6219C95.5675 42.1422 95.2758 41.8702 94.8357 41.8702ZM97.5495 44.2338C96.7929 44.2338 96.3578 43.7294 96.3578 42.9086C96.3578 42.0927 96.7929 41.5834 97.5495 41.5834C98.3307 41.5834 98.662 42.0927 98.662 42.5427H98.2912C98.2417 42.2065 98.0341 41.8999 97.5495 41.8999C97.0649 41.8999 96.7682 42.2411 96.7682 42.9086C96.7682 43.5761 97.0649 43.9173 97.5495 43.9173C97.9747 43.9173 98.2318 43.6849 98.2912 43.2547H98.662C98.662 43.7541 98.3011 44.2338 97.5495 44.2338ZM101.127 44.1843H100.716V42.5625C100.716 42.1372 100.563 41.9147 100.153 41.9147C99.7274 41.9147 99.4505 42.246 99.4505 42.7603V44.1843H99.0401V40.6637H99.4505V42.0779C99.589 41.7713 99.851 41.5834 100.266 41.5834C100.85 41.5834 101.127 41.8801 101.127 42.4982V44.1843ZM103.739 44.1843H103.329V42.5625C103.329 42.1372 103.175 41.9147 102.765 41.9147C102.34 41.9147 102.063 42.246 102.063 42.7603V44.1843H101.652V41.6329H102.043V42.1026C102.187 41.7862 102.449 41.5834 102.879 41.5834C103.462 41.5834 103.739 41.8801 103.739 42.4982V44.1843ZM104.675 44.1843H104.265V41.6329H104.675V44.1843ZM104.468 41.1236C104.304 41.1236 104.215 41.0247 104.215 40.8961C104.215 40.7675 104.304 40.6687 104.468 40.6687C104.631 40.6687 104.725 40.7675 104.725 40.8961C104.725 41.0247 104.631 41.1236 104.468 41.1236ZM106.294 44.2338C105.538 44.2338 105.103 43.7294 105.103 42.9086C105.103 42.0927 105.538 41.5834 106.294 41.5834C107.076 41.5834 107.407 42.0927 107.407 42.5427H107.036C106.987 42.2065 106.779 41.8999 106.294 41.8999C105.81 41.8999 105.513 42.2411 105.513 42.9086C105.513 43.5761 105.81 43.9173 106.294 43.9173C106.72 43.9173 106.977 43.6849 107.036 43.2547H107.407C107.407 43.7541 107.046 44.2338 106.294 44.2338ZM108.591 44.2338C108.013 44.2338 107.686 43.9371 107.686 43.4624C107.686 43.0866 107.923 42.7949 108.547 42.7405L109.016 42.7009C109.362 42.6713 109.461 42.5971 109.461 42.4092C109.461 42.0828 109.278 41.8801 108.853 41.8801C108.458 41.8801 108.25 42.0482 108.22 42.4092H107.825C107.825 41.9048 108.136 41.5834 108.848 41.5834C109.56 41.5834 109.872 41.9048 109.872 42.4092V43.5316C109.872 43.8778 109.901 44.1003 109.951 44.1843H109.59C109.511 44.0755 109.481 43.9717 109.481 43.6997C109.343 44.0558 109.041 44.2338 108.591 44.2338ZM108.7 43.947C109.204 43.947 109.461 43.5465 109.461 43.0718V42.8196C109.402 42.8987 109.244 42.9482 109.016 42.9679L108.665 42.9976C108.26 43.0273 108.097 43.2003 108.097 43.4377C108.097 43.7294 108.275 43.947 108.7 43.947ZM110.808 44.1843H110.397V40.6637H110.808V44.1843ZM113.525 44.2338C112.748 44.2338 112.471 43.8827 112.471 43.408H112.862C112.887 43.7245 113.015 43.9519 113.53 43.9519C114.039 43.9519 114.172 43.7245 114.172 43.4772C114.172 43.2448 114.014 43.1311 113.752 43.0916L113.253 43.0174C112.773 42.9482 112.541 42.7701 112.541 42.3597C112.541 41.9345 112.783 41.5834 113.525 41.5834C114.271 41.5834 114.514 41.9345 114.514 42.3696H114.123C114.098 42.1076 114.019 41.8653 113.525 41.8653C113.104 41.8653 112.951 42.0383 112.951 42.3301C112.951 42.5773 113.09 42.6564 113.307 42.6861L113.811 42.7603C114.286 42.8295 114.583 43.0124 114.583 43.4575C114.583 43.8827 114.306 44.2338 113.525 44.2338ZM116.131 44.2338C115.345 44.2338 114.91 43.7294 114.91 42.9086C114.91 42.1224 115.315 41.5834 116.102 41.5834C116.893 41.5834 117.298 42.1372 117.298 42.8493C117.298 42.8888 117.298 42.9333 117.288 42.9729H115.32C115.33 43.6651 115.657 43.947 116.131 43.947C116.542 43.947 116.789 43.7294 116.878 43.408H117.244C117.125 43.9173 116.774 44.2338 116.131 44.2338ZM116.102 41.8702C115.662 41.8702 115.375 42.1422 115.32 42.696H116.888C116.834 42.1422 116.542 41.8702 116.102 41.8702ZM118.569 44.209C118.08 44.209 117.897 44.0657 117.897 43.591V41.9296H117.462V41.6329H117.897V40.8615H118.307V41.6329H118.92V41.9296H118.307V43.6009C118.307 43.8481 118.391 43.9074 118.653 43.9074L118.92 43.8975V44.1843C118.822 44.1942 118.658 44.209 118.569 44.209ZM120.167 44.2338C119.583 44.2338 119.311 43.9371 119.311 43.319V41.6329H119.722V43.2547C119.722 43.68 119.875 43.9025 120.285 43.9025C120.711 43.9025 120.988 43.5712 120.988 43.0569V41.6329H121.398V44.1843H121.007V43.7146C120.864 44.031 120.602 44.2338 120.167 44.2338ZM123.214 44.2338C122.779 44.2338 122.478 44.0558 122.334 43.6997V45.1535H121.924V41.6329H122.314V42.1422C122.458 41.7812 122.754 41.5834 123.214 41.5834C123.902 41.5834 124.322 42.0729 124.322 42.9086C124.322 43.7442 123.902 44.2338 123.214 44.2338ZM123.12 43.9173C123.59 43.9173 123.912 43.6058 123.912 42.9086C123.912 42.2114 123.59 41.8999 123.12 41.8999C122.656 41.8999 122.334 42.2114 122.334 42.9086C122.334 43.6058 122.656 43.9173 123.12 43.9173Z" fill="#107789"/>
<path d="M33.2645 31.259L35.2037 40.2279C35.2845 40.6319 35.6885 40.9551 36.0925 41.0359C36.4965 41.1167 36.9813 40.8743 37.2237 40.4703L38.3549 38.3694L41.5062 41.5207C41.9102 41.9247 42.6374 41.9247 43.0414 41.5207L44.9806 39.5814C45.3846 39.1774 45.3846 38.4502 44.9806 38.0462L41.7486 35.0566L43.7686 33.9254C44.1726 33.683 44.415 33.279 44.3342 32.7942C44.2534 32.3094 43.9302 31.9862 43.5262 31.9054L34.5573 30.047C33.8301 29.8854 33.1029 30.6126 33.2645 31.259ZM34.3149 26.6533C34.7997 26.6533 35.1229 26.2493 35.1229 25.8453V23.4213C35.1229 22.9365 34.7189 22.6133 34.3149 22.6133C33.8301 22.6133 33.5069 23.0173 33.5069 23.4213V25.8453C33.5069 26.2493 33.8301 26.6533 34.3149 26.6533ZM31.3253 26.7341L29.5477 25.0373C29.2245 24.6333 28.6588 24.6333 28.3356 25.0373C28.0124 25.3605 28.0124 25.8453 28.3356 26.1685L30.0325 27.8653C30.3557 28.1885 30.9213 28.1885 31.2445 27.8653C31.6485 27.6229 31.6485 27.0573 31.3253 26.7341ZM25.9116 30.9358C25.9116 31.4206 26.3156 31.7438 26.7196 31.7438H29.1437C29.6285 31.7438 29.9517 31.3398 29.9517 30.9358C29.9517 30.5318 29.5477 30.1278 29.1437 30.1278H26.7196C26.2348 30.1278 25.9116 30.5318 25.9116 30.9358ZM30.1133 34.0062L28.4164 35.703C28.0932 36.0262 28.0932 36.5918 28.4164 36.915C28.7396 37.2382 29.3053 37.2382 29.6285 36.915L31.3253 35.2182C31.6485 34.895 31.6485 34.3294 31.3253 34.0062C30.9213 33.683 30.4365 33.683 30.1133 34.0062ZM38.5973 27.9461L40.2942 26.1685C40.6174 25.8453 40.6174 25.2797 40.2942 24.9565C39.971 24.6333 39.4054 24.6333 39.0821 24.9565L37.3853 26.6533C37.0621 26.9765 37.0621 27.5421 37.3853 27.8653C37.7085 28.2693 38.2741 28.2693 38.5973 27.9461Z" fill="url(#paint1_linear_0_1)"/>
<defs>
<filter id="filter0_d_0_1" x="0.403316" y="-0.00141817" width="195.101" height="66.2834" filterUnits="userSpaceOnUse" color-interpolation-filters="sRGB">
<feFlood flood-opacity="0" result="BackgroundImageFix"/>
<feColorMatrix in="SourceAlpha" type="matrix" values="0 0 0 0 0 0 0 0 0 0 0 0 0 0 0 0 0 0 127 0" result="hardAlpha"/>
<feOffset dx="-0.797633" dy="0.797633"/>
<feGaussianBlur stdDeviation="6.89953"/>
<feComposite in2="hardAlpha" operator="out"/>
<feColorMatrix type="matrix" values="0 0 0 0 0 0 0 0 0 0 0 0 0 0 0 0 0 0 0.18 0"/>
<feBlend mode="normal" in2="BackgroundImageFix" result="effect1_dropShadow_0_1"/>
<feBlend mode="normal" in="SourceGraphic" in2="effect1_dropShadow_0_1" result="shape"/>
</filter>
<linearGradient id="paint0_linear_0_1" x1="172.432" y1="40.4844" x2="64.5845" y2="-19.7718" gradientUnits="userSpaceOnUse">
<stop stop-color="#0C6271"/>
<stop offset="1" stop-color="#117D90"/>
</linearGradient>
<linearGradient id="paint1_linear_0_1" x1="44.1188" y1="36.2615" x2="28.0251" y2="34.1674" gradientUnits="userSpaceOnUse">
<stop stop-color="#0C6271"/>
<stop offset="1" stop-color="#117D90"/>
</linearGradient>
</defs>
</svg>

