<svg width="196" height="67" viewBox="0 0 196 67" fill="none" xmlns="http://www.w3.org/2000/svg">
<g filter="url(#filter0_d_0_1)">
<rect x="15" y="13.6853" width="167.503" height="38.6852" rx="8.77396" fill="white"/>
<rect x="15.1994" y="13.8847" width="167.104" height="38.2864" rx="8.57456" stroke="url(#paint0_linear_0_1)" stroke-width="0.398817"/>
</g>
<path d="M62.5544 27.8701H61.6243V22.518L59.58 27.8701H58.7465L56.7109 22.518V27.8701H55.7809V21.6231H57.3075L59.1676 26.4224L61.0277 21.6231H62.5544V27.8701ZM65.0264 27.9579C63.991 27.9579 63.4909 27.4314 63.4909 26.3347V23.3428H64.421V26.168C64.421 26.8523 64.6666 27.2033 65.3071 27.2033C65.9827 27.2033 66.4214 26.6944 66.4214 25.8697V23.3428H67.3515V27.8701H66.4653V27.0892C66.2109 27.6069 65.7809 27.9579 65.0264 27.9579ZM69.1593 27.8701H68.2292V21.6231H69.1593V27.8701ZM71.7042 27.914C70.7566 27.914 70.4232 27.6332 70.4232 26.712V24.0096H69.6862V23.3428H70.4232V21.974H71.3532V23.3428H72.3973V24.0096H71.3532V26.7383C71.3532 27.1331 71.5024 27.2472 71.9148 27.2472L72.3973 27.2384V27.8701C72.2131 27.8877 71.8884 27.914 71.7042 27.914ZM73.9918 27.8701H73.0617V23.3428H73.9918V27.8701ZM73.5268 22.5531C73.167 22.5531 72.974 22.3425 72.974 22.0618C72.974 21.781 73.167 21.5616 73.5268 21.5616C73.8777 21.5616 74.0795 21.781 74.0795 22.0618C74.0795 22.3425 73.8777 22.5531 73.5268 22.5531ZM77.1772 25.7117H74.8258V25.001H77.1772V25.7117ZM82.1292 27.8701H78.0757V21.6231H79.0496V27.0717H82.1292V27.8701ZM84.643 27.9579C83.2041 27.9579 82.4057 27.0454 82.4057 25.6064C82.4057 24.1675 83.2041 23.255 84.643 23.255C86.082 23.255 86.8804 24.1675 86.8804 25.6064C86.8804 27.0454 86.082 27.9579 84.643 27.9579ZM84.643 27.2472C85.4766 27.2472 85.9504 26.7032 85.9504 25.6064C85.9504 24.5185 85.4766 23.9657 84.643 23.9657C83.8095 23.9657 83.3357 24.5185 83.3357 25.6064C83.3357 26.7032 83.8095 27.2472 84.643 27.2472ZM89.6031 27.9579C88.208 27.9579 87.4096 27.0454 87.4096 25.6064C87.4096 24.1675 88.208 23.255 89.6031 23.255C91.0332 23.255 91.6562 24.1675 91.6562 25.0098H90.7963C90.7086 24.4483 90.3752 23.9657 89.6031 23.9657C88.8134 23.9657 88.3396 24.5185 88.3396 25.6064C88.3396 26.7032 88.8134 27.2472 89.6031 27.2472C90.2787 27.2472 90.6998 26.8874 90.7963 26.168H91.6562C91.6562 27.098 90.9806 27.9579 89.6031 27.9579ZM93.7196 27.9579C92.6668 27.9579 92.0965 27.4314 92.0965 26.5891C92.0965 25.9135 92.5088 25.3783 93.6319 25.2818L94.5093 25.2116C95.0445 25.159 95.2024 25.0361 95.2024 24.7466C95.2024 24.2289 94.9041 23.9218 94.2461 23.9218C93.6319 23.9218 93.2985 24.1851 93.2546 24.7466H92.3421C92.3421 23.8341 92.9037 23.255 94.2373 23.255C95.5622 23.255 96.1325 23.8341 96.1325 24.7466V26.712C96.1325 27.3261 96.1851 27.721 96.2729 27.8701H95.4393C95.2989 27.6946 95.2463 27.5104 95.2463 27.0892C95.0006 27.6683 94.5005 27.9579 93.7196 27.9579ZM93.9741 27.3174C94.7725 27.3174 95.2024 26.6944 95.2024 25.9486V25.5626C95.1059 25.6854 94.8603 25.7556 94.5093 25.7819L93.9302 25.8346C93.2809 25.8872 93.0265 26.1592 93.0265 26.5277C93.0265 26.9927 93.3073 27.3174 93.9741 27.3174ZM98.5916 27.914C97.644 27.914 97.3106 27.6332 97.3106 26.712V24.0096H96.5736V23.3428H97.3106V21.974H98.2406V23.3428H99.2847V24.0096H98.2406V26.7383C98.2406 27.1331 98.3898 27.2472 98.8022 27.2472L99.2847 27.2384V27.8701C99.1005 27.8877 98.7758 27.914 98.5916 27.914ZM100.879 27.8701H99.9492V23.3428H100.879V27.8701ZM100.414 22.5531C100.054 22.5531 99.8614 22.3425 99.8614 22.0618C99.8614 21.781 100.054 21.5616 100.414 21.5616C100.765 21.5616 100.967 21.781 100.967 22.0618C100.967 22.3425 100.765 22.5531 100.414 22.5531ZM103.819 27.9579C102.38 27.9579 101.582 27.0454 101.582 25.6064C101.582 24.1675 102.38 23.255 103.819 23.255C105.258 23.255 106.056 24.1675 106.056 25.6064C106.056 27.0454 105.258 27.9579 103.819 27.9579ZM103.819 27.2472C104.652 27.2472 105.126 26.7032 105.126 25.6064C105.126 24.5185 104.652 23.9657 103.819 23.9657C102.985 23.9657 102.512 24.5185 102.512 25.6064C102.512 26.7032 102.985 27.2472 103.819 27.2472ZM110.622 27.8701H109.691V25.0449C109.691 24.3605 109.446 24.0096 108.805 24.0096C108.13 24.0096 107.691 24.5185 107.691 25.3432V27.8701H106.761V23.3428H107.647V24.1324C107.893 23.606 108.332 23.255 109.086 23.255C110.121 23.255 110.622 23.7814 110.622 24.8782V27.8701ZM116.922 27.8701H115.728L113.342 21.6231H114.386L116.325 26.8787L118.255 21.6231H119.308L116.922 27.8701ZM120.766 27.8701H119.836V23.3428H120.766V27.8701ZM120.301 22.5531C119.942 22.5531 119.748 22.3425 119.748 22.0618C119.748 21.781 119.942 21.5616 120.301 21.5616C120.652 21.5616 120.854 21.781 120.854 22.0618C120.854 22.3425 120.652 22.5531 120.301 22.5531ZM123.434 27.9579C122.013 27.9579 121.469 27.3349 121.469 26.4663H122.364C122.407 26.9839 122.636 27.3349 123.443 27.3349C124.232 27.3349 124.469 26.9927 124.469 26.6067C124.469 26.2469 124.206 26.0627 123.776 26.0013L122.943 25.8784C121.995 25.7468 121.591 25.4134 121.591 24.6588C121.591 23.878 122.083 23.255 123.434 23.255C124.785 23.255 125.277 23.878 125.277 24.6764H124.382C124.338 24.2552 124.197 23.878 123.425 23.878C122.767 23.878 122.522 24.15 122.522 24.5887C122.522 24.9572 122.732 25.0888 123.083 25.1414L123.917 25.2642C124.838 25.3959 125.399 25.7293 125.399 26.554C125.399 27.3349 124.855 27.9579 123.434 27.9579ZM127.03 27.8701H126.1V23.3428H127.03V27.8701ZM126.565 22.5531C126.205 22.5531 126.012 22.3425 126.012 22.0618C126.012 21.781 126.205 21.5616 126.565 21.5616C126.916 21.5616 127.117 21.781 127.117 22.0618C127.117 22.3425 126.916 22.5531 126.565 22.5531ZM130.312 27.9579C129.531 27.9579 129.039 27.6157 128.794 27.0366V27.8701H127.908V21.6231H128.838V24.1149C129.092 23.5533 129.583 23.255 130.312 23.255C131.531 23.255 132.295 24.1236 132.295 25.6064C132.295 27.0892 131.531 27.9579 130.312 27.9579ZM130.101 27.2472C130.847 27.2472 131.365 26.747 131.365 25.6064C131.365 24.4746 130.847 23.9657 130.101 23.9657C129.347 23.9657 128.838 24.4746 128.838 25.6064C128.838 26.747 129.347 27.2472 130.101 27.2472ZM133.927 27.8701H132.997V23.3428H133.927V27.8701ZM133.462 22.5531C133.102 22.5531 132.909 22.3425 132.909 22.0618C132.909 21.781 133.102 21.5616 133.462 21.5616C133.813 21.5616 134.015 21.781 134.015 22.0618C134.015 22.3425 133.813 22.5531 133.462 22.5531ZM135.735 27.8701H134.805V21.6231H135.735V27.8701ZM137.543 27.8701H136.613V23.3428H137.543V27.8701ZM137.078 22.5531C136.718 22.5531 136.525 22.3425 136.525 22.0618C136.525 21.781 136.718 21.5616 137.078 21.5616C137.429 21.5616 137.631 21.781 137.631 22.0618C137.631 22.3425 137.429 22.5531 137.078 22.5531ZM140.088 27.914C139.14 27.914 138.807 27.6332 138.807 26.712V24.0096H138.07V23.3428H138.807V21.974H139.737V23.3428H140.781V24.0096H139.737V26.7383C139.737 27.1331 139.886 27.2472 140.299 27.2472L140.781 27.2384V27.8701C140.597 27.8877 140.272 27.914 140.088 27.914ZM141.507 29.5898V28.923H141.911C142.516 28.923 142.867 28.5369 142.867 28.1246C142.867 28.0368 142.849 27.9403 142.814 27.8526L141.095 23.3428H142.06L143.367 27.1243L144.683 23.3428H145.657L143.92 27.8526C143.402 29.1862 142.884 29.5898 141.902 29.5898H141.507ZM59.3156 38.8701H58.9052V35.75L57.6295 38.8701H57.2586L55.9829 35.75V38.8701H55.5725V35.3495H56.2351L57.4465 38.252L58.653 35.3495H59.3156V38.8701ZM60.9919 38.9196C60.2057 38.9196 59.7705 38.4152 59.7705 37.5944C59.7705 36.7785 60.2057 36.2692 60.9919 36.2692C61.783 36.2692 62.2182 36.7785 62.2182 37.5944C62.2182 38.4152 61.783 38.9196 60.9919 38.9196ZM60.9919 38.6031C61.5111 38.6031 61.8077 38.2619 61.8077 37.5944C61.8077 36.9269 61.5111 36.5857 60.9919 36.5857C60.4776 36.5857 60.1809 36.9269 60.1809 37.5944C60.1809 38.2619 60.4776 38.6031 60.9919 38.6031ZM64.7278 38.8701H64.3174V37.2483C64.3174 36.823 64.1641 36.6005 63.7537 36.6005C63.3285 36.6005 63.0516 36.9318 63.0516 37.446V38.8701H62.6412V36.3187H63.0318V36.7884C63.1752 36.4719 63.4372 36.2692 63.8674 36.2692C64.4509 36.2692 64.7278 36.5659 64.7278 37.184V38.8701ZM65.6639 38.8701H65.2535V36.3187H65.6639V38.8701ZM65.4563 35.8094C65.2931 35.8094 65.2041 35.7105 65.2041 35.5819C65.2041 35.4533 65.2931 35.3544 65.4563 35.3544C65.6194 35.3544 65.7134 35.4533 65.7134 35.5819C65.7134 35.7105 65.6194 35.8094 65.4563 35.8094ZM67.0853 38.8948C66.5958 38.8948 66.4128 38.7514 66.4128 38.2768V36.6153H65.9777V36.3187H66.4128V35.5473H66.8232V36.3187H67.4364V36.6153H66.8232V38.2866C66.8232 38.5339 66.9073 38.5932 67.1694 38.5932L67.4364 38.5833V38.8701C67.3375 38.88 67.1743 38.8948 67.0853 38.8948ZM68.8049 38.9196C68.0187 38.9196 67.5835 38.4152 67.5835 37.5944C67.5835 36.7785 68.0187 36.2692 68.8049 36.2692C69.596 36.2692 70.0311 36.7785 70.0311 37.5944C70.0311 38.4152 69.596 38.9196 68.8049 38.9196ZM68.8049 38.6031C69.324 38.6031 69.6207 38.2619 69.6207 37.5944C69.6207 36.9269 69.324 36.5857 68.8049 36.5857C68.2906 36.5857 67.9939 36.9269 67.9939 37.5944C67.9939 38.2619 68.2906 38.6031 68.8049 38.6031ZM70.8645 38.8701H70.4541V36.3187H70.8448V36.9219C70.9832 36.4769 71.2156 36.2939 71.5964 36.2939C71.6656 36.2939 71.7546 36.3038 71.8288 36.3187V36.6747L71.5815 36.6648C71.1464 36.6648 70.8645 37.0109 70.8645 37.6389V38.8701ZM73.8343 38.8701H73.4238V36.3187H73.8343V38.8701ZM73.6266 35.8094C73.4634 35.8094 73.3744 35.7105 73.3744 35.5819C73.3744 35.4533 73.4634 35.3544 73.6266 35.3544C73.7898 35.3544 73.8837 35.4533 73.8837 35.5819C73.8837 35.7105 73.7898 35.8094 73.6266 35.8094ZM76.4473 38.8701H76.0369V37.2483C76.0369 36.823 75.8836 36.6005 75.4732 36.6005C75.0479 36.6005 74.771 36.9318 74.771 37.446V38.8701H74.3606V36.3187H74.7513V36.7884C74.8947 36.4719 75.1567 36.2692 75.5869 36.2692C76.1704 36.2692 76.4473 36.5659 76.4473 37.184V38.8701ZM78.1429 38.8701H77.6484L76.6545 36.3187H77.0797L77.8956 38.4993L78.7115 36.3187H79.1367L78.1429 38.8701ZM80.4374 38.9196C79.6512 38.9196 79.2161 38.4152 79.2161 37.5944C79.2161 36.8082 79.6215 36.2692 80.4078 36.2692C81.1989 36.2692 81.6044 36.823 81.6044 37.5351C81.6044 37.5746 81.6044 37.6191 81.5945 37.6587H79.6265C79.6364 38.3509 79.9627 38.6328 80.4374 38.6328C80.8478 38.6328 81.0951 38.4152 81.1841 38.0938H81.55C81.4313 38.6031 81.0802 38.9196 80.4374 38.9196ZM80.4078 36.556C79.9677 36.556 79.6809 36.828 79.6265 37.3818H81.194C81.1396 36.828 80.8478 36.556 80.4078 36.556ZM84.1154 38.8701H83.705V37.2483C83.705 36.823 83.5517 36.6005 83.1413 36.6005C82.7161 36.6005 82.4392 36.9318 82.4392 37.446V38.8701H82.0288V36.3187H82.4194V36.7884C82.5628 36.4719 82.8249 36.2692 83.255 36.2692C83.8385 36.2692 84.1154 36.5659 84.1154 37.184V38.8701ZM85.4878 38.8948C84.9983 38.8948 84.8154 38.7514 84.8154 38.2768V36.6153H84.3802V36.3187H84.8154V35.5473H85.2258V36.3187H85.8389V36.6153H85.2258V38.2866C85.2258 38.5339 85.3098 38.5932 85.5719 38.5932L85.8389 38.5833V38.8701C85.74 38.88 85.5768 38.8948 85.4878 38.8948ZM87.2074 38.9196C86.4212 38.9196 85.986 38.4152 85.986 37.5944C85.986 36.7785 86.4212 36.2692 87.2074 36.2692C87.9985 36.2692 88.4337 36.7785 88.4337 37.5944C88.4337 38.4152 87.9985 38.9196 87.2074 38.9196ZM87.2074 38.6031C87.7266 38.6031 88.0233 38.2619 88.0233 37.5944C88.0233 36.9269 87.7266 36.5857 87.2074 36.5857C86.6931 36.5857 86.3965 36.9269 86.3965 37.5944C86.3965 38.2619 86.6931 38.6031 87.2074 38.6031ZM89.2671 38.8701H88.8567V36.3187H89.2473V36.9219C89.3858 36.4769 89.6182 36.2939 89.9989 36.2939C90.0681 36.2939 90.1571 36.3038 90.2313 36.3187V36.6747L89.9841 36.6648C89.5489 36.6648 89.2671 37.0109 89.2671 37.6389V38.8701ZM90.6248 39.8393V39.5426H90.8226C91.1193 39.5426 91.3022 39.3794 91.4456 39.0086L90.3924 36.3187H90.8177L91.6286 38.5289L92.4494 36.3187H92.8746L91.8313 38.9591C91.5594 39.6415 91.3022 39.8393 90.8226 39.8393H90.6248ZM95.2447 38.9196C94.6662 38.9196 94.3399 38.6229 94.3399 38.1482C94.3399 37.7724 94.5772 37.4807 95.2002 37.4263L95.67 37.3867C96.0161 37.357 96.115 37.2829 96.115 37.095C96.115 36.7686 95.932 36.5659 95.5068 36.5659C95.1112 36.5659 94.9036 36.734 94.8739 37.095H94.4783C94.4783 36.5906 94.7898 36.2692 95.5019 36.2692C96.2139 36.2692 96.5254 36.5906 96.5254 37.095V38.2174C96.5254 38.5635 96.5551 38.7861 96.6045 38.8701H96.2436C96.1644 38.7613 96.1348 38.6575 96.1348 38.3855C95.9963 38.7416 95.6947 38.9196 95.2447 38.9196ZM95.3535 38.6328C95.8579 38.6328 96.115 38.2323 96.115 37.7576V37.5054C96.0557 37.5845 95.8974 37.6339 95.67 37.6537L95.3189 37.6834C94.9134 37.7131 94.7503 37.8861 94.7503 38.1235C94.7503 38.4152 94.9283 38.6328 95.3535 38.6328ZM98.1439 38.9196C97.3874 38.9196 96.9522 38.4152 96.9522 37.5944C96.9522 36.7785 97.3874 36.2692 98.1439 36.2692C98.9252 36.2692 99.2565 36.7785 99.2565 37.2285H98.8856C98.8362 36.8922 98.6285 36.5857 98.1439 36.5857C97.6593 36.5857 97.3626 36.9269 97.3626 37.5944C97.3626 38.2619 97.6593 38.6031 98.1439 38.6031C98.5691 38.6031 98.8263 38.3707 98.8856 37.9405H99.2565C99.2565 38.4399 98.8955 38.9196 98.1439 38.9196ZM100.045 38.8701H99.6345V36.3187H100.025V36.9219C100.164 36.4769 100.396 36.2939 100.777 36.2939C100.846 36.2939 100.935 36.3038 101.009 36.3187V36.6747L100.762 36.6648C100.327 36.6648 100.045 37.0109 100.045 37.6389V38.8701ZM102.36 38.9196C101.574 38.9196 101.139 38.4152 101.139 37.5944C101.139 36.7785 101.574 36.2692 102.36 36.2692C103.151 36.2692 103.586 36.7785 103.586 37.5944C103.586 38.4152 103.151 38.9196 102.36 38.9196ZM102.36 38.6031C102.879 38.6031 103.176 38.2619 103.176 37.5944C103.176 36.9269 102.879 36.5857 102.36 36.5857C101.846 36.5857 101.549 36.9269 101.549 37.5944C101.549 38.2619 101.846 38.6031 102.36 38.6031ZM104.964 38.9196C104.187 38.9196 103.911 38.5685 103.911 38.0938H104.301C104.326 38.4103 104.454 38.6377 104.969 38.6377C105.478 38.6377 105.611 38.4103 105.611 38.163C105.611 37.9306 105.453 37.8169 105.191 37.7773L104.692 37.7032C104.212 37.6339 103.98 37.4559 103.98 37.0455C103.98 36.6203 104.222 36.2692 104.964 36.2692C105.71 36.2692 105.953 36.6203 105.953 37.0554H105.562C105.537 36.7934 105.458 36.5511 104.964 36.5511C104.543 36.5511 104.39 36.7241 104.39 37.0159C104.39 37.2631 104.529 37.3422 104.746 37.3719L105.251 37.446C105.725 37.5153 106.022 37.6982 106.022 38.1432C106.022 38.5685 105.745 38.9196 104.964 38.9196ZM107.402 38.9196C106.626 38.9196 106.349 38.5685 106.349 38.0938H106.74C106.764 38.4103 106.893 38.6377 107.407 38.6377C107.917 38.6377 108.05 38.4103 108.05 38.163C108.05 37.9306 107.892 37.8169 107.63 37.7773L107.13 37.7032C106.651 37.6339 106.418 37.4559 106.418 37.0455C106.418 36.6203 106.661 36.2692 107.402 36.2692C108.149 36.2692 108.391 36.6203 108.391 37.0554H108.001C107.976 36.7934 107.897 36.5511 107.402 36.5511C106.982 36.5511 106.829 36.7241 106.829 37.0159C106.829 37.2631 106.967 37.3422 107.185 37.3719L107.689 37.446C108.164 37.5153 108.46 37.6982 108.46 38.1432C108.46 38.5685 108.184 38.9196 107.402 38.9196ZM110.929 38.9196C110.35 38.9196 110.024 38.6229 110.024 38.1482C110.024 37.7724 110.261 37.4807 110.884 37.4263L111.354 37.3867C111.7 37.357 111.799 37.2829 111.799 37.095C111.799 36.7686 111.616 36.5659 111.191 36.5659C110.795 36.5659 110.587 36.734 110.558 37.095H110.162C110.162 36.5906 110.474 36.2692 111.186 36.2692C111.898 36.2692 112.209 36.5906 112.209 37.095V38.2174C112.209 38.5635 112.239 38.7861 112.288 38.8701H111.927C111.848 38.7613 111.819 38.6575 111.819 38.3855C111.68 38.7416 111.379 38.9196 110.929 38.9196ZM111.037 38.6328C111.542 38.6328 111.799 38.2323 111.799 37.7576V37.5054C111.74 37.5845 111.581 37.6339 111.354 37.6537L111.003 37.6834C110.597 37.7131 110.434 37.8861 110.434 38.1235C110.434 38.4152 110.612 38.6328 111.037 38.6328ZM113.145 38.8701H112.735V35.3495H113.145V38.8701ZM114.082 38.8701H113.672V35.3495H114.082V38.8701ZM116.255 38.8701H115.845V35.3495H116.255V38.8701ZM117.904 38.9196C117.118 38.9196 116.683 38.4152 116.683 37.5944C116.683 36.7785 117.118 36.2692 117.904 36.2692C118.695 36.2692 119.13 36.7785 119.13 37.5944C119.13 38.4152 118.695 38.9196 117.904 38.9196ZM117.904 38.6031C118.423 38.6031 118.72 38.2619 118.72 37.5944C118.72 36.9269 118.423 36.5857 117.904 36.5857C117.39 36.5857 117.093 36.9269 117.093 37.5944C117.093 38.2619 117.39 38.6031 117.904 38.6031ZM120.646 38.9196C119.89 38.9196 119.454 38.4152 119.454 37.5944C119.454 36.7785 119.89 36.2692 120.646 36.2692C121.427 36.2692 121.759 36.7785 121.759 37.2285H121.388C121.338 36.8922 121.131 36.5857 120.646 36.5857C120.162 36.5857 119.865 36.9269 119.865 37.5944C119.865 38.2619 120.162 38.6031 120.646 38.6031C121.071 38.6031 121.328 38.3707 121.388 37.9405H121.759C121.759 38.4399 121.398 38.9196 120.646 38.9196ZM122.943 38.9196C122.364 38.9196 122.038 38.6229 122.038 38.1482C122.038 37.7724 122.275 37.4807 122.898 37.4263L123.368 37.3867C123.714 37.357 123.813 37.2829 123.813 37.095C123.813 36.7686 123.63 36.5659 123.205 36.5659C122.809 36.5659 122.602 36.734 122.572 37.095H122.176C122.176 36.5906 122.488 36.2692 123.2 36.2692C123.912 36.2692 124.223 36.5906 124.223 37.095V38.2174C124.223 38.5635 124.253 38.7861 124.302 38.8701H123.942C123.862 38.7613 123.833 38.6575 123.833 38.3855C123.694 38.7416 123.393 38.9196 122.943 38.9196ZM123.051 38.6328C123.556 38.6328 123.813 38.2323 123.813 37.7576V37.5054C123.754 37.5845 123.595 37.6339 123.368 37.6537L123.017 37.6834C122.611 37.7131 122.448 37.8861 122.448 38.1235C122.448 38.4152 122.626 38.6328 123.051 38.6328ZM125.596 38.8948C125.106 38.8948 124.923 38.7514 124.923 38.2768V36.6153H124.488V36.3187H124.923V35.5473H125.334V36.3187H125.947V36.6153H125.334V38.2866C125.334 38.5339 125.418 38.5932 125.68 38.5932L125.947 38.5833V38.8701C125.848 38.88 125.685 38.8948 125.596 38.8948ZM126.748 38.8701H126.338V36.3187H126.748V38.8701ZM126.54 35.8094C126.377 35.8094 126.288 35.7105 126.288 35.5819C126.288 35.4533 126.377 35.3544 126.54 35.3544C126.704 35.3544 126.798 35.4533 126.798 35.5819C126.798 35.7105 126.704 35.8094 126.54 35.8094ZM128.397 38.9196C127.611 38.9196 127.176 38.4152 127.176 37.5944C127.176 36.7785 127.611 36.2692 128.397 36.2692C129.188 36.2692 129.623 36.7785 129.623 37.5944C129.623 38.4152 129.188 38.9196 128.397 38.9196ZM128.397 38.6031C128.916 38.6031 129.213 38.2619 129.213 37.5944C129.213 36.9269 128.916 36.5857 128.397 36.5857C127.883 36.5857 127.586 36.9269 127.586 37.5944C127.586 38.2619 127.883 38.6031 128.397 38.6031ZM132.133 38.8701H131.723V37.2483C131.723 36.823 131.569 36.6005 131.159 36.6005C130.734 36.6005 130.457 36.9318 130.457 37.446V38.8701H130.046V36.3187H130.437V36.7884C130.58 36.4719 130.842 36.2692 131.273 36.2692C131.856 36.2692 132.133 36.5659 132.133 37.184V38.8701ZM133.613 38.9196C132.837 38.9196 132.56 38.5685 132.56 38.0938H132.95C132.975 38.4103 133.104 38.6377 133.618 38.6377C134.127 38.6377 134.261 38.4103 134.261 38.163C134.261 37.9306 134.102 37.8169 133.84 37.7773L133.341 37.7032C132.861 37.6339 132.629 37.4559 132.629 37.0455C132.629 36.6203 132.871 36.2692 133.613 36.2692C134.36 36.2692 134.602 36.6203 134.602 37.0554H134.211C134.187 36.7934 134.107 36.5511 133.613 36.5511C133.193 36.5511 133.039 36.7241 133.039 37.0159C133.039 37.2631 133.178 37.3422 133.395 37.3719L133.9 37.446C134.374 37.5153 134.671 37.6982 134.671 38.1432C134.671 38.5685 134.394 38.9196 133.613 38.9196ZM136.966 38.8701H136.556V36.6153H136.121V36.3187H136.556V36.0022C136.556 35.5473 136.744 35.3248 137.228 35.3248C137.317 35.3248 137.481 35.3396 137.579 35.3495V35.6363L137.312 35.6264C137.05 35.6264 136.966 35.7451 136.966 35.9923V36.3187H137.579V36.6153H136.966V38.8701ZM138.352 38.8701H137.941V36.3187H138.332V36.9219C138.47 36.4769 138.703 36.2939 139.084 36.2939C139.153 36.2939 139.242 36.3038 139.316 36.3187V36.6747L139.069 36.6648C138.634 36.6648 138.352 37.0109 138.352 37.6389V38.8701ZM140.667 38.9196C139.881 38.9196 139.446 38.4152 139.446 37.5944C139.446 36.7785 139.881 36.2692 140.667 36.2692C141.458 36.2692 141.893 36.7785 141.893 37.5944C141.893 38.4152 141.458 38.9196 140.667 38.9196ZM140.667 38.6031C141.186 38.6031 141.483 38.2619 141.483 37.5944C141.483 36.9269 141.186 36.5857 140.667 36.5857C140.153 36.5857 139.856 36.9269 139.856 37.5944C139.856 38.2619 140.153 38.6031 140.667 38.6031ZM145.639 38.8701H145.243V37.2384C145.243 36.8131 145.115 36.6005 144.774 36.6005C144.428 36.6005 144.166 36.9219 144.166 37.4362V38.8701H143.775V37.2384C143.775 36.8131 143.641 36.6005 143.31 36.6005C142.964 36.6005 142.712 36.9219 142.712 37.4362V38.8701H142.316V36.3187H142.707V36.7884C142.826 36.4719 143.078 36.2692 143.429 36.2692C143.819 36.2692 144.047 36.4522 144.131 36.8181C144.259 36.4571 144.536 36.2692 144.887 36.2692C145.397 36.2692 145.639 36.5659 145.639 37.184V38.8701ZM148.207 38.9196C147.628 38.9196 147.302 38.6229 147.302 38.1482C147.302 37.7724 147.539 37.4807 148.162 37.4263L148.632 37.3867C148.978 37.357 149.077 37.2829 149.077 37.095C149.077 36.7686 148.894 36.5659 148.469 36.5659C148.073 36.5659 147.866 36.734 147.836 37.095H147.441C147.441 36.5906 147.752 36.2692 148.464 36.2692C149.176 36.2692 149.488 36.5906 149.488 37.095V38.2174C149.488 38.5635 149.517 38.7861 149.567 38.8701H149.206C149.127 38.7613 149.097 38.6575 149.097 38.3855C148.959 38.7416 148.657 38.9196 148.207 38.9196ZM148.316 38.6328C148.82 38.6328 149.077 38.2323 149.077 37.7576V37.5054C149.018 37.5845 148.86 37.6339 148.632 37.6537L148.281 37.6834C147.876 37.7131 147.712 37.8861 147.712 38.1235C147.712 38.4152 147.89 38.6328 148.316 38.6328ZM153.44 38.9196C152.664 38.9196 152.387 38.5685 152.387 38.0938H152.777C152.802 38.4103 152.931 38.6377 153.445 38.6377C153.954 38.6377 154.088 38.4103 154.088 38.163C154.088 37.9306 153.93 37.8169 153.667 37.7773L153.168 37.7032C152.688 37.6339 152.456 37.4559 152.456 37.0455C152.456 36.6203 152.698 36.2692 153.44 36.2692C154.187 36.2692 154.429 36.6203 154.429 37.0554H154.038C154.014 36.7934 153.934 36.5511 153.44 36.5511C153.02 36.5511 152.866 36.7241 152.866 37.0159C152.866 37.2631 153.005 37.3422 153.222 37.3719L153.727 37.446C154.201 37.5153 154.498 37.6982 154.498 38.1432C154.498 38.5685 154.221 38.9196 153.44 38.9196ZM155.335 38.8701H154.924V36.3187H155.335V38.8701ZM155.127 35.8094C154.964 35.8094 154.875 35.7105 154.875 35.5819C154.875 35.4533 154.964 35.3544 155.127 35.3544C155.29 35.3544 155.384 35.4533 155.384 35.5819C155.384 35.7105 155.29 35.8094 155.127 35.8094ZM157.948 38.8701H157.537V37.2483C157.537 36.823 157.384 36.6005 156.974 36.6005C156.548 36.6005 156.271 36.9318 156.271 37.446V38.8701H155.861V36.3187H156.252V36.7884C156.395 36.4719 156.657 36.2692 157.087 36.2692C157.671 36.2692 157.948 36.5659 157.948 37.184V38.8701ZM159.482 38.7712C158.795 38.7712 158.374 38.2619 158.374 37.5202C158.374 36.7785 158.795 36.2692 159.482 36.2692C159.937 36.2692 160.239 36.467 160.382 36.828V36.3187H160.773V38.702C160.773 39.4882 160.352 39.8887 159.596 39.8887C158.879 39.8887 158.513 39.5278 158.513 39.0036H158.889C158.923 39.3943 159.185 39.6069 159.616 39.6069C160.085 39.6069 160.362 39.3547 160.362 38.791V38.2372C160.219 38.5932 159.917 38.7712 159.482 38.7712ZM159.571 38.4745C160.041 38.4745 160.362 38.1432 160.362 37.5202C160.362 36.8972 160.041 36.5659 159.571 36.5659C159.106 36.5659 158.785 36.8972 158.785 37.5202C158.785 38.1432 159.106 38.4745 159.571 38.4745ZM161.709 38.8701H161.298V35.3495H161.709V38.8701ZM163.357 38.9196C162.571 38.9196 162.136 38.4152 162.136 37.5944C162.136 36.8082 162.542 36.2692 163.328 36.2692C164.119 36.2692 164.524 36.823 164.524 37.5351C164.524 37.5746 164.524 37.6191 164.514 37.6587H162.547C162.556 38.3509 162.883 38.6328 163.357 38.6328C163.768 38.6328 164.015 38.4152 164.104 38.0938H164.47C164.351 38.6031 164 38.9196 163.357 38.9196ZM163.328 36.556C162.888 36.556 162.601 36.828 162.547 37.3818H164.114C164.06 36.828 163.768 36.556 163.328 36.556ZM164.956 39.5574L164.743 39.4684C164.852 39.2904 164.882 39.147 164.882 38.885V38.346H165.233V38.885C165.233 39.1915 165.149 39.414 164.956 39.5574ZM55.9532 44.8701H55.5428V42.3187H55.9532V44.8701ZM55.7456 41.8094C55.5824 41.8094 55.4934 41.7105 55.4934 41.5819C55.4934 41.4533 55.5824 41.3544 55.7456 41.3544C55.9087 41.3544 56.0027 41.4533 56.0027 41.5819C56.0027 41.7105 55.9087 41.8094 55.7456 41.8094ZM58.5663 44.8701H58.1559V43.2483C58.1559 42.823 58.0026 42.6005 57.5922 42.6005C57.1669 42.6005 56.89 42.9318 56.89 43.446V44.8701H56.4796V42.3187H56.8702V42.7884C57.0136 42.4719 57.2757 42.2692 57.7059 42.2692C58.2894 42.2692 58.5663 42.5659 58.5663 43.184V44.8701ZM59.9387 44.8948C59.4492 44.8948 59.2662 44.7514 59.2662 44.2768V42.6153H58.8311V42.3187H59.2662V41.5473H59.6766V42.3187H60.2898V42.6153H59.6766V44.2866C59.6766 44.5339 59.7607 44.5932 60.0228 44.5932L60.2898 44.5833V44.8701C60.1909 44.88 60.0277 44.8948 59.9387 44.8948ZM61.5361 44.9196C60.9526 44.9196 60.6807 44.6229 60.6807 44.0048V42.3187H61.0911V43.9405C61.0911 44.3658 61.2444 44.5883 61.6548 44.5883C62.08 44.5883 62.3569 44.257 62.3569 43.7427V42.3187H62.7673V44.8701H62.3767V44.4004C62.2333 44.7168 61.9712 44.9196 61.5361 44.9196ZM63.7035 44.8701H63.293V42.3187H63.7035V44.8701ZM63.4958 41.8094C63.3326 41.8094 63.2436 41.7105 63.2436 41.5819C63.2436 41.4533 63.3326 41.3544 63.4958 41.3544C63.6589 41.3544 63.7529 41.4533 63.7529 41.5819C63.7529 41.7105 63.6589 41.8094 63.4958 41.8094ZM65.1248 44.8948C64.6353 44.8948 64.4523 44.7514 64.4523 44.2768V42.6153H64.0172V42.3187H64.4523V41.5473H64.8627V42.3187H65.4759V42.6153H64.8627V44.2866C64.8627 44.5339 64.9468 44.5932 65.2089 44.5932L65.4759 44.5833V44.8701C65.377 44.88 65.2138 44.8948 65.1248 44.8948ZM66.2772 44.8701H65.8668V42.3187H66.2772V44.8701ZM66.0695 41.8094C65.9063 41.8094 65.8173 41.7105 65.8173 41.5819C65.8173 41.4533 65.9063 41.3544 66.0695 41.3544C66.2327 41.3544 66.3266 41.4533 66.3266 41.5819C66.3266 41.7105 66.2327 41.8094 66.0695 41.8094ZM68.0941 44.8701H67.5997L66.6058 42.3187H67.031L67.8469 44.4993L68.6628 42.3187H69.088L68.0941 44.8701ZM70.3887 44.9196C69.6025 44.9196 69.1674 44.4152 69.1674 43.5944C69.1674 42.8082 69.5728 42.2692 70.359 42.2692C71.1502 42.2692 71.5556 42.823 71.5556 43.5351C71.5556 43.5746 71.5556 43.6191 71.5458 43.6587H69.5778C69.5877 44.3509 69.914 44.6328 70.3887 44.6328C70.7991 44.6328 71.0463 44.4152 71.1353 44.0938H71.5013C71.3826 44.6031 71.0315 44.9196 70.3887 44.9196ZM70.359 42.556C69.919 42.556 69.6322 42.828 69.5778 43.3818H71.1452C71.0908 42.828 70.7991 42.556 70.359 42.556ZM74.2249 44.9196C73.5376 44.9196 73.1173 44.43 73.1173 43.5944C73.1173 42.7587 73.5376 42.2692 74.2249 42.2692C74.6601 42.2692 74.9617 42.4472 75.1051 42.8032V41.3495H75.5155V44.8701H75.1249V44.3608C74.9815 44.7218 74.6798 44.9196 74.2249 44.9196ZM74.3139 44.6031C74.7837 44.6031 75.1051 44.2916 75.1051 43.5944C75.1051 42.8972 74.7837 42.5857 74.3139 42.5857C73.8491 42.5857 73.5277 42.8972 73.5277 43.5944C73.5277 44.2916 73.8491 44.6031 74.3139 44.6031ZM76.847 44.9196C76.2685 44.9196 75.9422 44.6229 75.9422 44.1482C75.9422 43.7724 76.1795 43.4807 76.8025 43.4263L77.2723 43.3867C77.6184 43.357 77.7173 43.2829 77.7173 43.095C77.7173 42.7686 77.5343 42.5659 77.1091 42.5659C76.7135 42.5659 76.5059 42.734 76.4762 43.095H76.0806C76.0806 42.5906 76.3921 42.2692 77.1042 42.2692C77.8162 42.2692 78.1277 42.5906 78.1277 43.095V44.2174C78.1277 44.5635 78.1574 44.7861 78.2068 44.8701H77.8459C77.7667 44.7613 77.7371 44.6575 77.7371 44.3855C77.5986 44.7416 77.297 44.9196 76.847 44.9196ZM76.9558 44.6328C77.4602 44.6328 77.7173 44.2323 77.7173 43.7576V43.5054C77.658 43.5845 77.4997 43.6339 77.2723 43.6537L76.9212 43.6834C76.5157 43.7131 76.3526 43.8861 76.3526 44.1235C76.3526 44.4152 76.5306 44.6328 76.9558 44.6328ZM79.6078 44.9196C78.8314 44.9196 78.5545 44.5685 78.5545 44.0938H78.9452C78.9699 44.4103 79.0985 44.6377 79.6127 44.6377C80.122 44.6377 80.2555 44.4103 80.2555 44.163C80.2555 43.9306 80.0973 43.8169 79.8352 43.7773L79.3358 43.7032C78.8562 43.6339 78.6238 43.4559 78.6238 43.0455C78.6238 42.6203 78.8661 42.2692 79.6078 42.2692C80.3544 42.2692 80.5967 42.6203 80.5967 43.0554H80.2061C80.1813 42.7934 80.1022 42.5511 79.6078 42.5511C79.1875 42.5511 79.0342 42.7241 79.0342 43.0159C79.0342 43.2631 79.1726 43.3422 79.3902 43.3719L79.8945 43.446C80.3692 43.5153 80.6659 43.6982 80.6659 44.1432C80.6659 44.5685 80.389 44.9196 79.6078 44.9196ZM83.1786 44.8701H82.7682V43.2483C82.7682 42.823 82.6149 42.6005 82.2045 42.6005C81.7793 42.6005 81.5024 42.9318 81.5024 43.446V44.8701H81.092V41.3495H81.5024V42.7637C81.6408 42.4571 81.9029 42.2692 82.3183 42.2692C82.9017 42.2692 83.1786 42.5659 83.1786 43.184V44.8701ZM84.9949 44.9196C84.5351 44.9196 84.2384 44.7218 84.095 44.3608V44.8701H83.7043V41.3495H84.1148V42.8032C84.2582 42.4472 84.5598 42.2692 84.9949 42.2692C85.6822 42.2692 86.1025 42.7587 86.1025 43.5944C86.1025 44.43 85.6822 44.9196 84.9949 44.9196ZM84.901 44.6031C85.3707 44.6031 85.6921 44.2916 85.6921 43.5944C85.6921 42.8972 85.3707 42.5857 84.901 42.5857C84.4362 42.5857 84.1148 42.8972 84.1148 43.5944C84.1148 44.2916 84.4362 44.6031 84.901 44.6031ZM87.6516 44.9196C86.8654 44.9196 86.4303 44.4152 86.4303 43.5944C86.4303 42.7785 86.8654 42.2692 87.6516 42.2692C88.4428 42.2692 88.8779 42.7785 88.8779 43.5944C88.8779 44.4152 88.4428 44.9196 87.6516 44.9196ZM87.6516 44.6031C88.1708 44.6031 88.4675 44.2619 88.4675 43.5944C88.4675 42.9269 88.1708 42.5857 87.6516 42.5857C87.1374 42.5857 86.8407 42.9269 86.8407 43.5944C86.8407 44.2619 87.1374 44.6031 87.6516 44.6031ZM90.1069 44.9196C89.5284 44.9196 89.202 44.6229 89.202 44.1482C89.202 43.7724 89.4394 43.4807 90.0624 43.4263L90.5321 43.3867C90.8783 43.357 90.9772 43.2829 90.9772 43.095C90.9772 42.7686 90.7942 42.5659 90.369 42.5659C89.9734 42.5659 89.7657 42.734 89.736 43.095H89.3405C89.3405 42.5906 89.652 42.2692 90.364 42.2692C91.0761 42.2692 91.3876 42.5906 91.3876 43.095V44.2174C91.3876 44.5635 91.4172 44.7861 91.4667 44.8701H91.1057C91.0266 44.7613 90.9969 44.6575 90.9969 44.3855C90.8585 44.7416 90.5569 44.9196 90.1069 44.9196ZM90.2157 44.6328C90.72 44.6328 90.9772 44.2323 90.9772 43.7576V43.5054C90.9178 43.5845 90.7596 43.6339 90.5321 43.6537L90.1811 43.6834C89.7756 43.7131 89.6124 43.8861 89.6124 44.1235C89.6124 44.4152 89.7904 44.6328 90.2157 44.6328ZM92.3237 44.8701H91.9133V42.3187H92.3039V42.9219C92.4424 42.4769 92.6748 42.2939 93.0555 42.2939C93.1247 42.2939 93.2137 42.3038 93.2879 42.3187V42.6747L93.0407 42.6648C92.6055 42.6648 92.3237 43.0109 92.3237 43.6389V44.8701ZM94.5252 44.9196C93.8379 44.9196 93.4176 44.43 93.4176 43.5944C93.4176 42.7587 93.8379 42.2692 94.5252 42.2692C94.9603 42.2692 95.2619 42.4472 95.4053 42.8032V41.3495H95.8157V44.8701H95.4251V44.3608C95.2817 44.7218 94.9801 44.9196 94.5252 44.9196ZM94.6142 44.6031C95.0839 44.6031 95.4053 44.2916 95.4053 43.5944C95.4053 42.8972 95.0839 42.5857 94.6142 42.5857C94.1494 42.5857 93.828 42.8972 93.828 43.5944C93.828 44.2916 94.1494 44.6031 94.6142 44.6031ZM96.544 44.8998C96.3759 44.8998 96.282 44.7959 96.282 44.6624C96.282 44.5339 96.3759 44.4251 96.544 44.4251C96.7121 44.4251 96.8061 44.5339 96.8061 44.6624C96.8061 44.7959 96.7121 44.8998 96.544 44.8998Z" fill="#107789"/>
<path d="M33.4209 22.8142V23.655H44.9443V37.9689H46.0483V22.8142H33.4209Z" fill="url(#paint1_linear_0_1)"/>
<path d="M31.2124 25.3378H42.7349V39.6509H43.8387V24.4956H31.2124V25.3378Z" fill="url(#paint2_linear_0_1)"/>
<path d="M29.0015 27.0203H40.5238V41.3324H41.628V26.1782H29.0015V27.0203Z" fill="url(#paint3_linear_0_1)"/>
<path d="M26.7915 43.0143H39.4192V27.8608H26.7915V43.0143ZM29.4959 31.6319H36.0053V32.1617H29.4959V31.6319ZM29.4959 33.9916H34.5101V34.5227H29.4959V33.9916ZM29.4959 36.3509H34.5101V36.8828H29.4959V36.3509ZM29.4959 38.7129H36.0053V39.2433H29.4959V38.7129Z" fill="url(#paint4_linear_0_1)"/>
<defs>
<filter id="filter0_d_0_1" x="0.403316" y="0.683885" width="195.101" height="66.2834" filterUnits="userSpaceOnUse" color-interpolation-filters="sRGB">
<feFlood flood-opacity="0" result="BackgroundImageFix"/>
<feColorMatrix in="SourceAlpha" type="matrix" values="0 0 0 0 0 0 0 0 0 0 0 0 0 0 0 0 0 0 127 0" result="hardAlpha"/>
<feOffset dx="-0.797633" dy="0.797633"/>
<feGaussianBlur stdDeviation="6.89953"/>
<feComposite in2="hardAlpha" operator="out"/>
<feColorMatrix type="matrix" values="0 0 0 0 0 0 0 0 0 0 0 0 0 0 0 0 0 0 0.18 0"/>
<feBlend mode="normal" in2="BackgroundImageFix" result="effect1_dropShadow_0_1"/>
<feBlend mode="normal" in="SourceGraphic" in2="effect1_dropShadow_0_1" result="shape"/>
</filter>
<linearGradient id="paint0_linear_0_1" x1="172.432" y1="41.1697" x2="64.5845" y2="-19.0865" gradientUnits="userSpaceOnUse">
<stop stop-color="#0C6271"/>
<stop offset="1" stop-color="#117D90"/>
</linearGradient>
<linearGradient id="paint1_linear_0_1" x1="45.2891" y1="33.581" x2="34.7428" y2="32.4471" gradientUnits="userSpaceOnUse">
<stop stop-color="#0C6271"/>
<stop offset="1" stop-color="#117D90"/>
</linearGradient>
<linearGradient id="paint2_linear_0_1" x1="43.0796" y1="35.2628" x2="32.5342" y2="34.1292" gradientUnits="userSpaceOnUse">
<stop stop-color="#0C6271"/>
<stop offset="1" stop-color="#117D90"/>
</linearGradient>
<linearGradient id="paint3_linear_0_1" x1="40.8688" y1="36.9447" x2="30.3233" y2="35.8109" gradientUnits="userSpaceOnUse">
<stop stop-color="#0C6271"/>
<stop offset="1" stop-color="#117D90"/>
</linearGradient>
<linearGradient id="paint4_linear_0_1" x1="38.66" y1="38.6268" x2="28.1135" y2="37.4927" gradientUnits="userSpaceOnUse">
<stop stop-color="#0C6271"/>
<stop offset="1" stop-color="#117D90"/>
</linearGradient>
</defs>
</svg>
